<?xml version="1.0" encoding="UTF-8" standalone="no"?>
<!-- Created with Inkscape (http://www.inkscape.org/) -->

<svg
   width="150"
   height="150"
   viewBox="0 0 39.687501 39.687501"
   version="1.1"
   id="svg5"
   inkscape:version="1.1 (c68e22c387, 2021-05-23)"
   sodipodi:docname="alienDama.svg"
   xmlns:inkscape="http://www.inkscape.org/namespaces/inkscape"
   xmlns:sodipodi="http://sodipodi.sourceforge.net/DTD/sodipodi-0.dtd"
   xmlns:xlink="http://www.w3.org/1999/xlink"
   xmlns="http://www.w3.org/2000/svg"
   xmlns:svg="http://www.w3.org/2000/svg">
  <sodipodi:namedview
     id="namedview7"
     pagecolor="#505050"
     bordercolor="#eeeeee"
     borderopacity="1"
     inkscape:pageshadow="0"
     inkscape:pageopacity="0"
     inkscape:pagecheckerboard="0"
     inkscape:document-units="px"
     showgrid="true"
     units="px"
     width="512px"
     inkscape:zoom="7.099352"
     inkscape:cx="83.52875"
     inkscape:cy="85.007758"
     inkscape:window-width="1920"
     inkscape:window-height="1001"
     inkscape:window-x="-9"
     inkscape:window-y="-9"
     inkscape:window-maximized="1"
     inkscape:current-layer="g927"
     inkscape:snap-global="false">
    <inkscape:grid
       type="xygrid"
       id="grid939"
       spacingx="0.26458334"
       spacingy="0.26458334" />
  </sodipodi:namedview>
  <defs
     id="defs2" />
  <g
     inkscape:label="Livello 1"
     inkscape:groupmode="layer"
     id="layer1"
     style="display:none">
    <g
       id="g4973-3-7"
       inkscape:label="pedina1"
       style="display:inline"
       transform="translate(6.5171902,8.7794035)">
      <path
         style="display:inline;fill:#ff00ff;fill-opacity:1;stroke:#000000;stroke-width:0.79375;stroke-linecap:round;stroke-linejoin:miter;stroke-miterlimit:4;stroke-dasharray:none;stroke-opacity:1"
         d="m 2.7432267,11.064347 c 0,0 -0.4164513,2.640186 0.1828813,4.238475 0.9030892,2.408342 6.6269589,5.001722 9.921336,5.291667 5.475824,0.481938 8.242921,-0.901092 9.921336,-3.175 0.997045,-1.350791 0.137162,-6.263701 0.137162,-6.263701 v 0 0"
         id="path4971-6-5"
         sodipodi:nodetypes="csssccc"
         inkscape:label="border" />
      <path
         id="path4969-3-3"
         style="display:inline;fill:#0080ff;fill-opacity:1;stroke:#000000;stroke-width:1.32292;stroke-linecap:round;stroke-linejoin:round;stroke-miterlimit:4;stroke-dasharray:none;stroke-dashoffset:80;paint-order:stroke fill markers;stop-color:#000000"
         d="m 22.448737,11.110066 c -0.276912,1.179977 -1.196764,6.461007 -9.669873,5.898748 C 7.4500588,16.655205 3.137111,12.321774 3.1089907,11.110066 3.0286687,7.6489976 7.4383412,5.7404851 12.778864,5.7404851 c 5.340523,0 10.312453,2.6314165 9.669873,5.3695809 z"
         inkscape:label="circle"
         sodipodi:nodetypes="sssss" />
    </g>
    <g
       id="g4973-3-7-0"
       inkscape:label="pedina1"
       style="display:inline"
       transform="translate(4.8033469,4.7649344)">
      <path
         style="display:inline;fill:#ff00ff;fill-opacity:1;stroke:#000000;stroke-width:0.79375;stroke-linecap:round;stroke-linejoin:miter;stroke-miterlimit:4;stroke-dasharray:none;stroke-opacity:1"
         d="m 2.7432267,11.064347 c 0,0 -0.4164513,2.640186 0.1828813,4.238475 0.9030892,2.408342 6.6269589,5.001722 9.921336,5.291667 5.475824,0.481938 8.242921,-0.901092 9.921336,-3.175 0.997045,-1.350791 0.137162,-6.263701 0.137162,-6.263701 v 0 0"
         id="path4971-6-5-8"
         sodipodi:nodetypes="csssccc"
         inkscape:label="border" />
      <path
         id="path4969-3-3-5"
         style="display:inline;fill:#0080ff;fill-opacity:1;stroke:#000000;stroke-width:1.32292;stroke-linecap:round;stroke-linejoin:round;stroke-miterlimit:4;stroke-dasharray:none;stroke-dashoffset:80;paint-order:stroke fill markers;stop-color:#000000"
         d="m 22.448737,11.110066 c -0.276912,1.179977 -1.196764,6.461007 -9.669873,5.898748 C 7.4500588,16.655205 3.137111,12.321774 3.1089907,11.110066 3.0286687,7.6489976 7.4383412,5.7404851 12.778864,5.7404851 c 5.340523,0 10.312453,2.6314165 9.669873,5.3695809 z"
         inkscape:label="circle"
         sodipodi:nodetypes="sssss" />
    </g>
  </g>
  <g
     inkscape:label="mostro1"
     inkscape:groupmode="layer"
     id="g1015"
     style="display:none">
    <g
       id="g1007"
       inkscape:label="pedina1"
       style="display:inline"
       transform="translate(6.5171902,8.7794035)">
      <path
         style="display:inline;fill:#ff00ff;fill-opacity:1;stroke:#000000;stroke-width:0.79375;stroke-linecap:round;stroke-linejoin:miter;stroke-miterlimit:4;stroke-dasharray:none;stroke-opacity:1"
         d="m 1.42031,7.0955969 c 0,0 -2.1569702,5.7964311 0.9766313,8.7363921 1.8757802,1.759866 6.6269589,5.001722 9.9213357,5.291667 5.475824,0.481938 8.772088,-1.430259 10.450503,-3.704167 0.997045,-1.350791 0.666329,-6.263701 0.666329,-6.263701 C 23.181393,8.7215426 21.587452,6.5745307 21.26406,5.7726802"
         id="path1003"
         sodipodi:nodetypes="cssscc"
         inkscape:label="border" />
    </g>
    <g
       id="g1013"
       inkscape:label="pedina1"
       style="display:inline"
       transform="translate(4.8033469,4.7649344)">
      <path
         id="path1011"
         style="display:inline;fill:#0080ff;fill-opacity:1;stroke:#000000;stroke-width:1.32292;stroke-linecap:round;stroke-linejoin:round;stroke-miterlimit:4;stroke-dasharray:none;stroke-dashoffset:80;paint-order:stroke fill markers;stop-color:#000000"
         d="m 22.448737,11.110066 c -0.276912,1.179977 -1.196764,6.461007 -9.669873,5.898748 C 7.4500588,16.655205 3.137111,12.321774 3.1089907,11.110066 3.0286687,7.6489976 7.4383412,5.7404851 12.778864,5.7404851 c 5.340523,0 10.312453,2.6314165 9.669873,5.3695809 z"
         inkscape:label="circle"
         sodipodi:nodetypes="sssss" />
    </g>
    <path
       style="fill:#000000;stroke:#000000;stroke-width:0.264583px;stroke-linecap:butt;stroke-linejoin:miter;stroke-opacity:1"
       d="m 7.2377672,20.952634 3.9428308,-0.19399 1.267135,4.062284 0.521761,-2.571537 c 0,0 2.310657,3.577791 2.422463,3.428716 0.111806,-0.149074 1.528015,-2.832418 1.528015,-2.832418 l 3.130568,3.540523 0.708104,-3.540523 c 0,0 3.875941,4.099552 3.875941,3.316911 0,-0.782642 0.521761,-4.73312 0.521761,-4.73312 l 2.012508,1.490746 0.55903,-4.099552 1.975239,1.043522 -0.633568,4.770389 -1.900701,-0.447224 -1.714359,3.428716 -3.018761,-1.043522 -2.273388,1.416208 -2.459732,-1.975238 -2.124314,1.11806 -2.049776,-2.198851 -0.596299,0.894448 -2.049776,-2.087045 -0.521761,0.708104 z"
       id="path1164"
       sodipodi:nodetypes="ccccscccscccccccccccccccc" />
    <g
       id="g938"
       inkscape:label="occhio"
       transform="matrix(1.4631244,1.1772156,-1.1258407,1.3992721,10.492575,-21.207448)"
       style="display:inline">
      <path
         style="fill:none;fill-opacity:1;stroke:#000000;stroke-width:1.03637;stroke-linecap:round;stroke-linejoin:miter;stroke-miterlimit:4;stroke-dasharray:none;stroke-opacity:1"
         d="m 14.781905,15.862243 c -0.09952,-1.0817 -0.904118,-2.375637 -2.47744,-2.737868"
         id="path914"
         inkscape:label="stelo" />
      <ellipse
         style="display:inline;fill:#ffffff;stroke:none;stroke-width:0.926042;stroke-linecap:round;stroke-linejoin:round;stroke-miterlimit:4;stroke-dasharray:none;stroke-dashoffset:119.167;paint-order:stroke fill markers;stop-color:#000000"
         id="ellipse916"
         cx="11.087426"
         cy="13.025397"
         rx="1.4721121"
         ry="1.5093808"
         inkscape:label="bulbo" />
      <ellipse
         style="fill:#ff0000;stroke:none;stroke-width:0.926042;stroke-linecap:round;stroke-linejoin:round;stroke-miterlimit:4;stroke-dasharray:none;stroke-dashoffset:119.167;paint-order:stroke fill markers;stop-color:#000000"
         id="ellipse918"
         cx="10.644272"
         cy="13.860389"
         rx="0.55902988"
         ry="0.54039556"
         inkscape:label="iride" />
      <path
         style="display:inline;fill:#ff00ff;fill-opacity:1;stroke:#000000;stroke-width:0.370417;stroke-linecap:round;stroke-linejoin:round;stroke-miterlimit:4;stroke-dasharray:none;stroke-dashoffset:119.167;stroke-opacity:1;paint-order:stroke fill markers;stop-color:#000000"
         id="path920"
         sodipodi:type="arc"
         sodipodi:cx="8.5533381"
         sodipodi:cy="-15.281358"
         sodipodi:rx="1.4157501"
         sodipodi:ry="1.5707906"
         sodipodi:start="0"
         sodipodi:end="3.1935623"
         sodipodi:arc-type="slice"
         transform="matrix(0.97571991,-0.21902204,-0.17883911,-0.98387833,0,0)"
         inkscape:label="palpebra"
         d="m 9.9690882,-15.281358 a 1.4157501,1.5707906 0 0 1 -0.7292198,1.373746 1.4157501,1.5707906 0 0 1 -1.4364513,-0.04142 1.4157501,1.5707906 0 0 1 -0.6639178,-1.413919 l 1.4138388,0.0816 z" />
      <g
         id="g936"
         inkscape:label="ciglia"
         transform="matrix(0.93211672,-0.24821923,0.21705112,1.0150271,-2.0766492,2.7461868)">
        <path
           style="fill:none;stroke:#000000;stroke-width:0.264583px;stroke-linecap:round;stroke-linejoin:miter;stroke-opacity:1"
           d="M 10.119522,12.939285 10.014111,12.254109"
           id="path922" />
        <path
           style="fill:none;stroke:#000000;stroke-width:0.264583px;stroke-linecap:round;stroke-linejoin:miter;stroke-opacity:1"
           d="m 10.593875,12.912932 -0.05271,-0.711529"
           id="path924" />
        <path
           style="fill:none;stroke:#000000;stroke-width:0.264583px;stroke-linecap:round;stroke-linejoin:miter;stroke-opacity:1"
           d="m 10.989169,12.860226 0.02635,-0.764235"
           id="path926" />
        <path
           style="fill:none;stroke:#000000;stroke-width:0.264583px;stroke-linecap:round;stroke-linejoin:miter;stroke-opacity:1"
           d="m 11.516227,12.833873 0.02635,-0.711528"
           id="path928" />
        <path
           style="fill:none;stroke:#000000;stroke-width:0.264583px;stroke-linecap:round;stroke-linejoin:miter;stroke-opacity:1"
           d="m 12.043286,12.860226 0.02635,-0.63247"
           id="path930" />
        <path
           style="fill:none;stroke:#000000;stroke-width:0.264583px;stroke-linecap:round;stroke-linejoin:miter;stroke-opacity:1"
           d="m 12.570344,12.912932 0.368941,-0.711529"
           id="path932" />
        <path
           style="fill:none;stroke:#000000;stroke-width:0.264583px;stroke-linecap:round;stroke-linejoin:miter;stroke-opacity:1"
           d="M 9.4870521,12.965638 8.7228174,12.043286"
           id="path934" />
      </g>
    </g>
    <use
       x="0"
       y="0"
       xlink:href="#g938"
       id="use1100"
       width="100%"
       height="100%"
       transform="matrix(-1,0,0,1,36.577579,1.3416718)"
       style="display:inline" />
    <path
       style="fill:#ffffff;stroke:#800080;stroke-width:0.281716;paint-order:stroke fill markers;stop-color:#000000"
       d="m 90.569894,97.084176 c -1.00617,-0.80069 -4.204319,-3.821087 -7.106998,-6.711993 -2.902679,-2.890905 -5.323562,-5.201311 -5.379739,-5.134235 -0.05618,0.06708 -0.660482,2.948932 -1.3429,6.404123 -0.682645,3.456324 -1.365764,6.244195 -1.518654,6.197749 -0.152839,-0.04643 -2.688203,-2.800174 -5.634139,-6.119432 -2.945937,-3.319258 -5.488543,-6.078391 -5.650234,-6.13141 -0.161694,-0.05302 -1.541792,2.251894 -3.066889,5.122028 -2.23579,4.207618 -2.846851,5.157051 -3.154679,4.901574 -0.20998,-0.174267 -2.304951,-3.177192 -4.655493,-6.673164 -3.382113,-5.030237 -4.314458,-6.242981 -4.469022,-5.813062 -0.10742,0.29879 -0.492202,2.096213 -0.855069,3.994273 -0.362868,1.898061 -0.738129,3.45102 -0.833914,3.45102 -0.09578,0 -1.056603,-2.82068 -2.13515,-6.268178 l -1.960996,-6.268178 h -2.528047 c -1.390426,0 -4.524708,0.100193 -6.965071,0.222652 l -4.437025,0.222652 0.0021,-2.335521 c 0.0023,-2.522318 0.373204,-6.263562 0.848171,-8.555572 l 0.296519,-1.430882 2.595889,2.658701 c 7.372044,7.550419 17.391227,13.087663 27.69831,15.307866 3.548578,0.764383 13.569475,1.066489 17.793726,0.536437 14.369945,-1.803115 23.93013,-9.627768 26.93686,-22.0468 0.32778,-1.353846 0.6694,-2.463102 0.75917,-2.465014 0.32929,-0.007 3.90152,7.814323 4.60493,10.082409 1.1777,3.797387 1.24054,3.754218 -2.55939,1.75837 -1.80658,-0.94888 -3.37474,-1.625038 -3.48478,-1.502573 -0.11006,0.122465 -0.61511,3.391966 -1.12234,7.265559 -0.50724,3.873593 -1.00832,7.140822 -1.11351,7.26051 -0.10519,0.119687 -1.82272,-0.986396 -3.816722,-2.457962 -1.99401,-1.471567 -3.652077,-2.647056 -3.684592,-2.612198 -0.09178,0.09838 -1.503126,11.498908 -1.887375,15.245746 l -0.343584,3.350303 z"
       id="path1420"
       transform="scale(0.26458334)" />
    <path
       style="fill:#ffffff;stroke:#800080;stroke-width:0.281716;paint-order:stroke fill markers;stop-color:#000000"
       d="M 72.400974,111.52157 C 64.102825,110.82926 52.148855,105.19349 40.622031,96.53921 35.260142,92.513531 32.867877,90.064266 31.442167,87.140622 30.813451,85.851339 30.223959,84.416155 30.132185,83.951324 l -0.166861,-0.845148 0.652568,0.744875 c 0.358912,0.409682 2.426447,2.730808 4.594522,5.158059 4.400088,4.926083 3.848311,4.676116 5.454591,2.471048 l 0.537682,-0.738118 3.726514,3.858825 c 2.049583,2.122354 3.838102,3.858825 3.974487,3.858825 0.136385,0 0.719531,-0.710218 1.29588,-1.578262 l 1.047908,-1.578263 1.127275,1.226118 c 0.620002,0.674365 2.303713,2.489136 3.741581,4.032827 l 2.614307,2.80671 3.171862,-1.6493 c 1.744522,-0.90711 3.552177,-1.874752 4.017008,-2.150312 l 0.845148,-0.501019 4.688141,3.762101 4.688137,3.7621 4.320564,-2.67834 c 2.838538,-1.75962 4.515955,-2.63536 4.890198,-2.55307 0.313302,0.0689 2.950855,0.95602 5.861231,1.9714 l 5.29159,1.84615 3.231489,-6.458297 c 1.777313,-3.55206 3.346493,-6.458291 3.487053,-6.458291 0.14056,0 1.56621,0.306887 3.16813,0.681972 1.60191,0.375085 3.16467,0.723708 3.47281,0.774719 0.51759,0.08568 0.60799,-0.239838 1.18699,-4.27385 0.62014,-4.320743 0.62514,-4.337013 0.47571,-1.549437 -0.20246,3.777056 -0.83949,7.300006 -1.6301,9.014907 -0.35716,0.774719 -1.5027,2.326 -2.54563,3.447287 -5.04866,5.428 -12.149704,9.03995 -20.694182,10.52614 -3.206597,0.55774 -11.025567,0.90756 -14.257814,0.63789 z"
       id="path1459"
       transform="scale(0.26458334)" />
  </g>
  <g
     inkscape:label="mostro2"
     inkscape:groupmode="layer"
     id="g944"
     style="display:none">
    <g
       id="g908"
       inkscape:label="pedina1"
       style="display:inline"
       transform="translate(6.5171902,8.7794035)">
      <path
         style="display:inline;fill:#ff00ff;fill-opacity:1;stroke:#000000;stroke-width:0.79375;stroke-linecap:round;stroke-linejoin:miter;stroke-miterlimit:4;stroke-dasharray:none;stroke-opacity:1"
         d="m 0.89114332,7.0955969 c 0,0 -0.70339345,6.5782411 2.03496468,8.7363921 1.6604157,1.308604 6.6269589,4.472555 9.921336,4.7625 5.475824,0.481938 8.242921,-0.901092 9.921336,-3.175 0.997045,-1.350791 0.137162,-6.263701 0.137162,-6.263701 v 0 L 21.26406,5.7726802"
         id="path906"
         sodipodi:nodetypes="csssccc"
         inkscape:label="border" />
    </g>
    <g
       id="g912"
       inkscape:label="pedina1"
       style="display:inline"
       transform="translate(4.8033469,4.7649344)">
      <path
         id="path910"
         style="display:inline;fill:#0080ff;fill-opacity:1;stroke:#000000;stroke-width:1.32292;stroke-linecap:round;stroke-linejoin:round;stroke-miterlimit:4;stroke-dasharray:none;stroke-dashoffset:80;paint-order:stroke fill markers;stop-color:#000000"
         d="M 22.448737,11.110066 C 22.171825,12.290043 21.32651,10.490027 12.853401,9.9277685 7.5245961,9.5741595 3.137111,12.321774 3.1089907,11.110066 3.0286687,7.6489976 7.4383412,5.7404851 12.778864,5.7404851 c 5.340523,0 10.312453,2.6314165 9.669873,5.3695809 z"
         inkscape:label="circle"
         sodipodi:nodetypes="sssss" />
    </g>
    <path
       style="fill:#000000;stroke:#000000;stroke-width:0.264583px;stroke-linecap:butt;stroke-linejoin:miter;stroke-opacity:1"
       d="m 7.7891502,19.789659 3.2423728,-3.875941 1.006254,4.360433 1.900702,-3.577791 c 0,0 0.55903,3.987747 0.670836,3.838672 0.111806,-0.149074 3.279642,-3.242374 3.279642,-3.242374 l 1.155329,3.875941 2.683343,-3.875941 c 0,0 1.378941,3.689597 1.378941,2.906956 0,-0.782642 1.900701,-3.61506 1.900701,-3.61506 l 2.161583,3.354179 0.55903,-2.459731 1.453478,1.416209 -0.111807,5.739374 -1.900701,-0.447224 -1.714359,3.428716 -3.018761,-1.043522 -2.273388,1.416208 -2.459732,-1.975238 -2.124314,1.11806 -2.049776,-2.198851 -0.596299,0.894448 -2.049776,-2.087045 -0.521761,0.708104 z"
       id="path942"
       sodipodi:nodetypes="ccccscccscccccccccccccccc"
       inkscape:label="bocca" />
    <g
       id="g3367"
       inkscape:label="occhio"
       transform="matrix(1.8779163,0,0,1.7959621,-13.932884,-15.88884)"
       style="display:inline">
      <path
         style="fill:none;fill-opacity:1;stroke:#000000;stroke-width:1.03637;stroke-linecap:round;stroke-linejoin:miter;stroke-miterlimit:4;stroke-dasharray:none;stroke-opacity:1"
         d="m 14.781905,15.862243 c -0.09952,-1.0817 -0.904118,-2.375637 -2.47744,-2.737868"
         id="path1288"
         inkscape:label="stelo" />
      <ellipse
         style="display:inline;fill:#ffffff;stroke:none;stroke-width:0.926042;stroke-linecap:round;stroke-linejoin:round;stroke-miterlimit:4;stroke-dasharray:none;stroke-dashoffset:119.167;paint-order:stroke fill markers;stop-color:#000000"
         id="path1312"
         cx="11.087426"
         cy="13.025397"
         rx="1.4721121"
         ry="1.5093808"
         inkscape:label="bulbo" />
      <ellipse
         style="fill:#ff0000;stroke:none;stroke-width:0.926042;stroke-linecap:round;stroke-linejoin:round;stroke-miterlimit:4;stroke-dasharray:none;stroke-dashoffset:119.167;paint-order:stroke fill markers;stop-color:#000000"
         id="path1474"
         cx="10.863814"
         cy="13.675685"
         rx="0.55902988"
         ry="0.54039556"
         inkscape:label="iride" />
      <path
         style="display:inline;fill:#ff00ff;fill-opacity:1;stroke:#000000;stroke-width:0.370417;stroke-linecap:round;stroke-linejoin:round;stroke-miterlimit:4;stroke-dasharray:none;stroke-dashoffset:119.167;stroke-opacity:1;paint-order:stroke fill markers;stop-color:#000000"
         id="path1312-7"
         sodipodi:type="arc"
         sodipodi:cx="15.501239"
         sodipodi:cy="7.1725907"
         sodipodi:rx="1.4721121"
         sodipodi:ry="1.5093808"
         sodipodi:start="0"
         sodipodi:end="3.1935623"
         sodipodi:arc-type="slice"
         transform="matrix(0.27555094,0.96128647,0.96128647,-0.27555094,0,0)"
         inkscape:label="palpebra"
         d="M 16.973351,7.1725907 A 1.4721121,1.5093808 0 0 1 16.2151,8.4926297 1.4721121,1.5093808 0 0 1 14.721463,8.4528263 1.4721121,1.5093808 0 0 1 14.031114,7.0941841 l 1.470125,0.078407 z" />
      <g
         id="g853"
         inkscape:label="ciglia"
         transform="rotate(69.397467,11.019166,13.05246)">
        <path
           style="fill:none;stroke:#000000;stroke-width:0.264583px;stroke-linecap:round;stroke-linejoin:miter;stroke-opacity:1"
           d="M 10.119522,12.939285 10.014111,12.254109"
           id="path2966" />
        <path
           style="fill:none;stroke:#000000;stroke-width:0.264583px;stroke-linecap:round;stroke-linejoin:miter;stroke-opacity:1"
           d="m 10.593875,12.912932 -0.05271,-0.711529"
           id="path2968" />
        <path
           style="fill:none;stroke:#000000;stroke-width:0.264583px;stroke-linecap:round;stroke-linejoin:miter;stroke-opacity:1"
           d="m 10.989169,12.860226 0.02635,-0.764235"
           id="path2970" />
        <path
           style="fill:none;stroke:#000000;stroke-width:0.264583px;stroke-linecap:round;stroke-linejoin:miter;stroke-opacity:1"
           d="m 11.516227,12.833873 0.02635,-0.711528"
           id="path2972" />
        <path
           style="fill:none;stroke:#000000;stroke-width:0.264583px;stroke-linecap:round;stroke-linejoin:miter;stroke-opacity:1"
           d="m 12.043286,12.860226 0.02635,-0.63247"
           id="path2974" />
        <path
           style="fill:none;stroke:#000000;stroke-width:0.264583px;stroke-linecap:round;stroke-linejoin:miter;stroke-opacity:1"
           d="m 12.570344,12.912932 0.368941,-0.711529"
           id="path3212" />
        <path
           style="fill:none;stroke:#000000;stroke-width:0.264583px;stroke-linecap:round;stroke-linejoin:miter;stroke-opacity:1"
           d="M 9.4870521,12.965638 8.7228174,12.043286"
           id="path3247" />
      </g>
    </g>
    <use
       x="0"
       y="0"
       xlink:href="#g3367"
       id="use873"
       width="100%"
       height="100%"
       transform="matrix(-1,0,0,1,34.504375,1.5875001)"
       inkscape:label="occhio2"
       style="display:inline" />
    <path
       style="fill:#ffffff;stroke:#800080;stroke-width:0.281716;paint-order:stroke fill markers;stop-color:#000000"
       d="m 73.909351,109.45224 c -7.968536,-0.77265 -20.151132,-6.13503 -32.144976,-14.149162 -1.355757,-0.905899 -2.465014,-1.718175 -2.465014,-1.805056 0,-0.206172 1.751253,-2.64466 1.89932,-2.64466 0.06243,0 1.766254,1.711424 3.786273,3.803164 2.020019,2.091741 3.784349,3.803164 3.920734,3.803164 0.136385,0 0.710919,-0.697246 1.276741,-1.549437 0.565823,-0.85219 1.050586,-1.549437 1.077252,-1.549437 0.02666,0 1.684887,1.77481 3.684937,3.944022 2.00005,2.169212 3.724422,3.944022 3.831938,3.944022 0.107516,0 1.964202,-0.92762 4.125968,-2.06137 l 3.930484,-2.061375 4.654964,3.733135 4.654963,3.73314 4.320564,-2.67834 c 2.838538,-1.75962 4.515955,-2.63536 4.890198,-2.55307 0.313302,0.0689 2.950855,0.95602 5.861231,1.9714 l 5.29159,1.84615 3.231489,-6.458297 c 1.777313,-3.55206 3.346493,-6.458291 3.487053,-6.458291 0.27408,0 6.01764,1.324684 6.88164,1.587169 0.43016,0.130684 0.48675,0.334281 0.32988,1.186869 -0.38656,2.100989 -1.25407,3.456666 -3.86921,6.04651 -4.28022,4.23883 -9.399119,6.73536 -16.277439,7.93864 -3.105241,0.54323 -12.63708,0.79409 -16.38058,0.43111 z"
       id="path1498"
       transform="scale(0.26458334)" />
    <path
       style="fill:#ffffff;stroke:#800080;stroke-width:0.140858;paint-order:stroke fill markers;stop-color:#000000"
       d="m 72.142362,78.42265 c -0.03517,-0.0581 -0.960261,-3.116481 -2.055751,-6.796394 -1.09549,-3.679914 -2.038919,-6.838853 -2.096507,-7.019865 -0.09534,-0.299677 -0.658363,0.213416 -6.294768,5.736542 -3.404534,3.336111 -6.232404,6.019655 -6.284156,5.963431 -0.133523,-0.145064 -0.845651,-4.373217 -1.67683,-9.955915 -0.391647,-2.630542 -0.733503,-4.804222 -0.75968,-4.830399 -0.07318,-0.07318 -0.348738,0.430291 -3.890043,7.107437 -1.816534,3.425085 -3.340211,6.182379 -3.385949,6.12732 -0.155258,-0.186899 -3.112092,-13.289096 -3.040887,-13.474652 0.120341,-0.313605 6.66647,-1.846306 10.516076,-2.462219 5.173509,-0.827729 10.737993,-1.007616 16.269091,-0.525943 9.766557,0.850517 16.047298,1.831244 23.686708,3.69864 l 1.008581,0.24654 -0.813828,1.210336 c -2.254457,3.352857 -5.076734,8.371543 -5.935357,10.554487 l -0.532153,1.352938 -0.445018,-0.983977 c -0.763015,-1.687099 -2.112692,-4.965091 -3.099676,-7.528249 -0.520864,-1.352666 -1.002155,-2.475946 -1.069536,-2.496179 -0.06738,-0.02023 -2.333555,3.162387 -5.035944,7.072489 -2.70239,3.910102 -4.933009,7.109276 -4.95693,7.109276 -0.02392,0 -0.07227,-0.04754 -0.107443,-0.105644 z"
       id="path1936"
       transform="scale(0.26458334)" />
    <path
       style="fill:#ffffff;stroke:#800080;stroke-width:0.140858;paint-order:stroke fill markers;stop-color:#000000"
       d="m 98.784201,68.23262 c -1.990731,-3.0917 -3.556475,-5.621272 -3.479431,-5.621272 0.07704,0 1.135349,0.289608 2.35179,0.643572 2.64852,0.770676 4.11064,0.928886 5.20996,0.563751 0.8285,-0.275184 1.72573,-1.042092 2.12243,-1.814152 0.15158,-0.29502 0.30623,-0.485178 0.34365,-0.422573 0.0374,0.0626 0.43217,1.318161 0.87723,2.790126 0.44506,1.471966 0.84392,2.77138 0.88636,2.887588 0.0424,0.116208 -0.53164,-0.345078 -1.27572,-1.025078 -1.08756,-0.99389 -1.36698,-1.187265 -1.42477,-0.986006 -0.0395,0.137698 -0.49475,2.120249 -1.01158,4.405669 -0.51684,2.285419 -0.94886,4.165284 -0.96005,4.177477 -0.0112,0.01219 -1.64914,-2.507403 -3.639869,-5.599102 z"
       id="path1975"
       transform="scale(0.26458334)" />
  </g>
  <g
     inkscape:label="mostro3"
     inkscape:groupmode="layer"
     id="g906"
     style="display:none">
    <g
       id="g870"
       inkscape:label="pedina1"
       style="display:inline"
       transform="translate(6.5171902,8.7794035)">
      <path
         style="display:inline;fill:#ff00ff;fill-opacity:1;stroke:#000000;stroke-width:0.79375;stroke-linecap:round;stroke-linejoin:miter;stroke-miterlimit:4;stroke-dasharray:none;stroke-opacity:1"
         d="m 0.89114332,5.5080969 c 0,0 -0.70339345,13.4574081 2.03496468,15.6155591 1.6604157,1.308604 6.6269589,4.472555 9.921336,4.7625 5.475824,0.481938 8.242921,-0.901092 9.921336,-3.175 0.997045,-1.350791 0.137162,-11.555368 0.137162,-11.555368 v 0 L 20.295075,4.1851802"
         id="path868"
         sodipodi:nodetypes="csssccc"
         inkscape:label="border" />
    </g>
    <g
       id="g874"
       inkscape:label="pedina1"
       style="display:inline"
       transform="translate(4.8033469,4.7649344)">
      <path
         id="path872"
         style="display:inline;fill:#0080ff;fill-opacity:1;stroke:#000000;stroke-width:1.32292;stroke-linecap:round;stroke-linejoin:round;stroke-miterlimit:4;stroke-dasharray:none;stroke-dashoffset:80;paint-order:stroke fill markers;stop-color:#000000"
         d="M 22.448737,11.110066 C 22.171825,12.290043 21.32651,8.902527 12.853401,8.3402685 7.5245961,7.9866595 3.137111,12.321774 3.1089907,11.110066 3.0286687,7.6489976 7.4383412,5.7404851 12.778864,5.7404851 c 5.340523,0 10.312453,2.6314165 9.669873,5.3695809 z"
         inkscape:label="circle"
         sodipodi:nodetypes="sssss" />
    </g>
    <path
       style="fill:#000000;stroke:#000000;stroke-width:0.264583px;stroke-linecap:butt;stroke-linejoin:miter;stroke-opacity:1"
       d="m 7.7891502,19.789659 3.6150598,-4.658583 2.012508,4.770389 0.968985,-4.658582 c 0,0 1.490747,5.068538 1.602553,4.919463 0.111806,-0.149074 2.347925,-4.323165 2.347925,-4.323165 l 2.087046,6.015065 1.751626,-6.015065 c 0,0 2.310658,4.770388 2.310658,3.987747 0,-0.782642 0.894447,-4.025016 0.894447,-4.025016 l 1.788896,4.136821 0.55903,-2.459731 1.453478,1.416209 -0.111807,9.972707 -1.900701,-0.447224 -1.528016,4.770388 -3.205104,-2.385194 -2.087045,2.75788 -2.646075,-3.31691 -1.937971,2.459732 -2.236119,-3.540523 -0.409956,2.23612 -2.236119,-3.428717 -0.745373,1.565283 z"
       id="path876"
       sodipodi:nodetypes="ccccscccscccccccccccccccc"
       inkscape:label="bocca" />
    <g
       id="g902"
       inkscape:label="occhio"
       transform="matrix(1.5622791,-1.0420431,0.99656724,1.4940996,-26.259734,4.7147677)"
       style="display:inline">
      <path
         style="fill:none;fill-opacity:1;stroke:#000000;stroke-width:1.03637;stroke-linecap:round;stroke-linejoin:miter;stroke-miterlimit:4;stroke-dasharray:none;stroke-opacity:1"
         d="m 14.781905,15.862243 c -0.09952,-1.0817 -0.904118,-2.375637 -2.47744,-2.737868"
         id="path878"
         inkscape:label="stelo" />
      <ellipse
         style="display:inline;fill:#ffffff;stroke:none;stroke-width:0.926042;stroke-linecap:round;stroke-linejoin:round;stroke-miterlimit:4;stroke-dasharray:none;stroke-dashoffset:119.167;paint-order:stroke fill markers;stop-color:#000000"
         id="ellipse880"
         cx="11.087426"
         cy="13.025397"
         rx="1.4721121"
         ry="1.5093808"
         inkscape:label="bulbo" />
      <ellipse
         style="fill:#ff0000;stroke:none;stroke-width:0.926042;stroke-linecap:round;stroke-linejoin:round;stroke-miterlimit:4;stroke-dasharray:none;stroke-dashoffset:119.167;paint-order:stroke fill markers;stop-color:#000000"
         id="ellipse882"
         cx="10.863814"
         cy="13.675685"
         rx="0.55902988"
         ry="0.54039556"
         inkscape:label="iride" />
      <path
         style="display:inline;fill:#ff00ff;fill-opacity:1;stroke:#000000;stroke-width:0.370417;stroke-linecap:round;stroke-linejoin:round;stroke-miterlimit:4;stroke-dasharray:none;stroke-dashoffset:119.167;stroke-opacity:1;paint-order:stroke fill markers;stop-color:#000000"
         id="path884"
         sodipodi:type="arc"
         sodipodi:cx="15.501239"
         sodipodi:cy="7.1725907"
         sodipodi:rx="1.4721121"
         sodipodi:ry="1.5093808"
         sodipodi:start="0"
         sodipodi:end="3.1935623"
         sodipodi:arc-type="slice"
         transform="matrix(0.27555094,0.96128647,0.96128647,-0.27555094,0,0)"
         inkscape:label="palpebra"
         d="M 16.973351,7.1725907 A 1.4721121,1.5093808 0 0 1 16.2151,8.4926297 1.4721121,1.5093808 0 0 1 14.721463,8.4528263 1.4721121,1.5093808 0 0 1 14.031114,7.0941841 l 1.470125,0.078407 z" />
      <g
         id="g900"
         inkscape:label="ciglia"
         transform="rotate(69.397467,11.019166,13.05246)">
        <path
           style="fill:none;stroke:#000000;stroke-width:0.264583px;stroke-linecap:round;stroke-linejoin:miter;stroke-opacity:1"
           d="M 10.119522,12.939285 10.014111,12.254109"
           id="path886" />
        <path
           style="fill:none;stroke:#000000;stroke-width:0.264583px;stroke-linecap:round;stroke-linejoin:miter;stroke-opacity:1"
           d="m 10.593875,12.912932 -0.05271,-0.711529"
           id="path888" />
        <path
           style="fill:none;stroke:#000000;stroke-width:0.264583px;stroke-linecap:round;stroke-linejoin:miter;stroke-opacity:1"
           d="m 10.989169,12.860226 0.02635,-0.764235"
           id="path890" />
        <path
           style="fill:none;stroke:#000000;stroke-width:0.264583px;stroke-linecap:round;stroke-linejoin:miter;stroke-opacity:1"
           d="m 11.516227,12.833873 0.02635,-0.711528"
           id="path892" />
        <path
           style="fill:none;stroke:#000000;stroke-width:0.264583px;stroke-linecap:round;stroke-linejoin:miter;stroke-opacity:1"
           d="m 12.043286,12.860226 0.02635,-0.63247"
           id="path894" />
        <path
           style="fill:none;stroke:#000000;stroke-width:0.264583px;stroke-linecap:round;stroke-linejoin:miter;stroke-opacity:1"
           d="m 12.570344,12.912932 0.368941,-0.711529"
           id="path896" />
        <path
           style="fill:none;stroke:#000000;stroke-width:0.264583px;stroke-linecap:round;stroke-linejoin:miter;stroke-opacity:1"
           d="M 9.4870521,12.965638 8.7228174,12.043286"
           id="path898" />
      </g>
    </g>
    <use
       x="0"
       y="0"
       xlink:href="#g902"
       id="use968"
       width="100%"
       height="100%"
       transform="matrix(-1,0,0,1,35.543116,0)" />
    <path
       style="fill:#ffffff;stroke:#800080;stroke-width:0.140858;paint-order:stroke fill markers;stop-color:#000000"
       d="m 75.781564,129.65379 c -4.171711,-0.28464 -6.285007,-0.70276 -10.282628,-2.03445 -7.724935,-2.57332 -17.040513,-7.52555 -26.515649,-14.0959 -0.452575,-0.31383 -0.58177,-0.48541 -0.531842,-0.70632 0.03627,-0.16049 0.671982,-1.55005 1.41269,-3.08791 1.215494,-2.52362 1.364866,-2.76973 1.532701,-2.52536 0.102277,0.14891 1.978004,3.02804 4.168281,6.39807 2.190278,3.37002 4.060984,6.21179 4.157126,6.31503 0.186912,0.20071 0.174891,0.25462 1.211889,-5.43486 0.361582,-1.98381 0.506205,-2.53059 0.633366,-2.39458 0.09063,0.0969 1.861135,2.87017 3.934446,6.16272 2.073311,3.29255 3.8397,6.06247 3.925308,6.15536 0.117166,0.12714 1.059036,-0.97949 3.809389,-4.47578 2.879679,-3.66068 3.688894,-4.60662 3.819681,-4.46506 0.09127,0.0988 2.330256,2.88936 4.975528,6.20128 2.645273,3.31193 4.856352,6.01861 4.913511,6.01485 0.05716,-0.004 1.870459,-2.3481 4.029556,-5.20966 2.442354,-3.23697 3.985803,-5.16578 4.08488,-5.10478 0.08759,0.0539 2.78315,2.05517 5.990141,4.44723 3.20699,2.39205 5.912014,4.38031 6.011164,4.41836 0.126692,0.0486 0.453135,-0.78188 1.098324,-2.79424 0.504928,-1.57487 1.8111,-5.64914 2.902604,-9.05392 1.0915,-3.40478 2.00404,-6.21001 2.02787,-6.23384 0.0238,-0.0238 1.6498,0.33813 3.61326,0.80435 2.76132,0.65568 3.59548,0.80743 3.68275,0.66995 0.062,-0.0977 0.12197,-2.87163 0.13316,-6.16418 0.0112,-3.29256 0.0605,-6.937256 0.10953,-8.099334 0.086,-2.037413 0.0936,-1.951896 0.21295,2.394585 0.13253,4.826839 0.0347,12.019819 -0.19636,14.437939 -0.33661,3.52254 -0.76377,5.24222 -1.56608,6.30489 -1.01665,1.34653 -2.46952,2.90613 -3.63994,3.90731 -4.68614,4.00853 -10.4572,6.259 -18.248114,7.116 -1.868828,0.20557 -9.105529,0.28945 -11.409492,0.13225 z"
       id="path2660"
       transform="scale(0.26458334)" />
    <path
       style="fill:#ffffff;stroke:#800080;stroke-width:0.140858;paint-order:stroke fill markers;stop-color:#000000"
       d="M 76.94563,80.077731 C 76.832587,79.80658 75.100712,74.847318 73.097018,69.057151 71.093324,63.266983 69.407576,58.576414 69.350911,58.633664 c -0.05667,0.05725 -1.792673,3.241702 -3.857794,7.076559 -2.065122,3.834857 -4.047699,7.499002 -4.405725,8.142547 l -0.650958,1.17008 -0.260829,-0.747506 C 59.501077,72.342228 57.68067,66.593419 56.370598,62.259203 L 54.92301,57.470034 h -0.553769 -0.553769 l -1.6197,7.7824 c -0.890835,4.280321 -1.655582,7.782401 -1.699439,7.782401 -0.07529,0 -6.45803,-15.034551 -6.578794,-15.496354 -0.0392,-0.149903 0.174203,-0.318339 0.690998,-0.545394 9.692341,-4.25834 15.761128,-5.456127 23.989273,-4.734724 8.212583,0.720038 15.069685,2.172349 20.706115,4.385485 2.154438,0.845936 6.158675,2.844795 6.050264,3.020206 -0.175199,0.283479 -2.363877,9.239514 -2.844715,11.640528 l -0.54207,2.706773 -0.857875,-1.439051 c -1.332248,-2.234797 -2.562415,-4.555151 -5.077078,-9.576439 -1.275458,-2.546835 -2.340231,-4.609391 -2.366163,-4.583458 -0.02593,0.02593 -1.448101,4.8637 -3.160374,10.750594 -1.712272,5.886894 -3.167567,10.861908 -3.233988,11.055588 l -0.120766,0.352145 z"
       id="path2699"
       transform="scale(0.26458334)" />
    <path
       style="fill:#ffffff;stroke:#800080;stroke-width:0.140858;paint-order:stroke fill markers;stop-color:#000000"
       d="m 102.40512,73.177971 c -0.16959,-0.274397 -5.417793,-12.451373 -5.381928,-12.487239 0.01887,-0.01887 0.7935,0.498533 1.721406,1.149778 1.833962,1.287154 2.569632,1.615986 3.615312,1.615986 0.7889,0 1.87943,-0.458716 2.10862,-0.886963 0.13348,-0.249405 0.25652,-0.01592 0.91197,1.730519 0.41673,1.110351 0.72918,2.047319 0.69435,2.08215 -0.0348,0.03483 -0.41001,-0.264545 -0.83372,-0.665281 -0.6468,-0.611717 -0.78227,-0.687649 -0.84439,-0.473297 -0.0407,0.140421 -0.46613,1.998429 -0.94542,4.128905 -0.4793,2.130476 -0.88889,3.893656 -0.91021,3.918179 -0.0213,0.02452 -0.0825,-0.02621 -0.13599,-0.112737 z"
       id="path2738"
       transform="scale(0.26458334)" />
  </g>
  <g
     inkscape:label="mostro4"
     inkscape:groupmode="layer"
     id="g927"
     style="display:inline">
    <g
       id="g891"
       inkscape:label="pedina1"
       style="display:inline"
       transform="translate(6.5171902,8.7794035)">
      <path
         style="display:inline;fill:#ff00ff;fill-opacity:1;stroke:#000000;stroke-width:0.79375;stroke-linecap:round;stroke-linejoin:miter;stroke-miterlimit:4;stroke-dasharray:none;stroke-opacity:1"
         d="m 1.9494767,-0.31273658 c 0,0 -11.2872101,17.60090958 -3.2567021,24.08222558 1.64513346,1.327765 10.8602923,4.472555 14.1546694,4.7625 5.475824,0.481938 12.476254,-0.901092 14.154669,-3.175 0.997045,-1.350791 1.724662,-14.201201 1.724662,-14.201201 C 28.033439,7.6982227 24.517295,3.2011366 24.528408,0.48101344"
         id="path889"
         sodipodi:nodetypes="cssscc"
         inkscape:label="border" />
    </g>
    <g
       id="g895"
       inkscape:label="pedina1"
       style="display:inline"
       transform="matrix(1.2129727,0,0,0.97884895,4.200483,0.18336782)">
      <path
         id="path893"
         style="display:inline;fill:#0080ff;fill-opacity:1;stroke:#000000;stroke-width:1.32292;stroke-linecap:round;stroke-linejoin:round;stroke-miterlimit:4;stroke-dasharray:none;stroke-dashoffset:80;paint-order:stroke fill markers;stop-color:#000000"
         d="M 22.448737,11.110066 C 22.171825,12.290043 21.32651,8.902527 12.853401,8.3402685 7.5245961,7.9866595 3.137111,12.321774 3.1089907,11.110066 3.0286687,7.6489976 7.4383412,5.7404851 12.778864,5.7404851 c 5.340523,0 10.312453,2.6314165 9.669873,5.3695809 z"
         inkscape:label="circle"
         sodipodi:nodetypes="sssss" />
    </g>
    <path
       style="fill:#000000;stroke:#000000;stroke-width:0.264583px;stroke-linecap:butt;stroke-linejoin:miter;stroke-opacity:1"
       d="m 4.6141501,14.497992 3.3914478,-2.012508 4.2930601,4.509508 0.55903,-6.522015 c 0,0 1.900702,6.931971 2.012508,6.782896 0.111806,-0.149074 1.93797,-6.186598 1.93797,-6.186598 l 2.497001,7.878498 1.341671,-7.878498 c 0,0 2.720613,6.633821 2.720613,5.85118 0,-0.782642 1.677089,-7.2673891 1.677089,-7.2673891 l 2.124314,4.9940001 2.124314,-3.577791 3.063194,2.534269 0.581245,20.512091 -5.135186,-4.52456 -2.087045,6.506962 -2.646075,-4.025014 -2.646074,4.3977 -2.385195,-5.031268 -2.198851,4.17409 -1.080791,-5.627567 -1.565284,4.323164 -2.765045,-6.037523 -3.9877463,4.17409 z"
       id="path897"
       sodipodi:nodetypes="ccccscccscccccccccccccccc"
       inkscape:label="bocca" />
    <g
       id="g923"
       inkscape:label="occhio"
       transform="matrix(0.57761654,-1.7868769,1.7088957,0.55240875,-23.485334,26.685326)"
       style="display:inline">
      <path
         style="fill:none;fill-opacity:1;stroke:#000000;stroke-width:1.03637;stroke-linecap:round;stroke-linejoin:miter;stroke-miterlimit:4;stroke-dasharray:none;stroke-opacity:1"
         d="m 14.781905,15.862243 c -0.09952,-1.0817 -0.904118,-2.375637 -2.47744,-2.737868"
         id="path899"
         inkscape:label="stelo" />
      <ellipse
         style="display:inline;fill:#ffffff;stroke:none;stroke-width:0.926042;stroke-linecap:round;stroke-linejoin:round;stroke-miterlimit:4;stroke-dasharray:none;stroke-dashoffset:119.167;paint-order:stroke fill markers;stop-color:#000000"
         id="ellipse901"
         cx="11.087426"
         cy="13.025397"
         rx="1.4721121"
         ry="1.5093808"
         inkscape:label="bulbo" />
      <ellipse
         style="fill:#ff0000;stroke:none;stroke-width:0.926042;stroke-linecap:round;stroke-linejoin:round;stroke-miterlimit:4;stroke-dasharray:none;stroke-dashoffset:119.167;paint-order:stroke fill markers;stop-color:#000000"
         id="ellipse903"
         cx="10.863814"
         cy="13.675685"
         rx="0.55902988"
         ry="0.54039556"
         inkscape:label="iride" />
      <path
         style="display:inline;fill:#ff00ff;fill-opacity:1;stroke:#000000;stroke-width:0.370417;stroke-linecap:round;stroke-linejoin:round;stroke-miterlimit:4;stroke-dasharray:none;stroke-dashoffset:119.167;stroke-opacity:1;paint-order:stroke fill markers;stop-color:#000000"
         id="path905"
         sodipodi:type="arc"
         sodipodi:cx="15.501239"
         sodipodi:cy="7.1725907"
         sodipodi:rx="1.4721121"
         sodipodi:ry="1.5093808"
         sodipodi:start="0"
         sodipodi:end="3.1935623"
         sodipodi:arc-type="slice"
         transform="matrix(0.27555094,0.96128647,0.96128647,-0.27555094,0,0)"
         inkscape:label="palpebra"
         d="M 16.973351,7.1725907 A 1.4721121,1.5093808 0 0 1 16.2151,8.4926297 1.4721121,1.5093808 0 0 1 14.721463,8.4528263 1.4721121,1.5093808 0 0 1 14.031114,7.0941841 l 1.470125,0.078407 z" />
      <g
         id="g921"
         inkscape:label="ciglia"
         transform="rotate(69.397467,11.019166,13.05246)">
        <path
           style="fill:none;stroke:#000000;stroke-width:0.264583px;stroke-linecap:round;stroke-linejoin:miter;stroke-opacity:1"
           d="M 10.119522,12.939285 10.014111,12.254109"
           id="path907" />
        <path
           style="fill:none;stroke:#000000;stroke-width:0.264583px;stroke-linecap:round;stroke-linejoin:miter;stroke-opacity:1"
           d="m 10.593875,12.912932 -0.05271,-0.711529"
           id="path909" />
        <path
           style="fill:none;stroke:#000000;stroke-width:0.264583px;stroke-linecap:round;stroke-linejoin:miter;stroke-opacity:1"
           d="m 10.989169,12.860226 0.02635,-0.764235"
           id="path911" />
        <path
           style="fill:none;stroke:#000000;stroke-width:0.264583px;stroke-linecap:round;stroke-linejoin:miter;stroke-opacity:1"
           d="m 11.516227,12.833873 0.02635,-0.711528"
           id="path913" />
        <path
           style="fill:none;stroke:#000000;stroke-width:0.264583px;stroke-linecap:round;stroke-linejoin:miter;stroke-opacity:1"
           d="m 12.043286,12.860226 0.02635,-0.63247"
           id="path915" />
        <path
           style="fill:none;stroke:#000000;stroke-width:0.264583px;stroke-linecap:round;stroke-linejoin:miter;stroke-opacity:1"
           d="m 12.570344,12.912932 0.368941,-0.711529"
           id="path917" />
        <path
           style="fill:none;stroke:#000000;stroke-width:0.264583px;stroke-linecap:round;stroke-linejoin:miter;stroke-opacity:1"
           d="M 9.4870521,12.965638 8.7228174,12.043286"
           id="path919" />
      </g>
    </g>
    <use
       x="0"
       y="0"
       xlink:href="#g923"
       id="use1686"
       width="100%"
       height="100%"
       transform="matrix(-1,0,0,1,40.151251,-0.3726866)" />
    <path
       style="fill:#ffffff;stroke:#800080;stroke-width:0.140858;paint-order:stroke fill markers;stop-color:#000000"
       d="m 75.851993,139.65489 c -4.06123,-0.26837 -7.022086,-0.76897 -12.465926,-2.10766 -11.877295,-2.92074 -27.759672,-8.34862 -37.287368,-12.74313 l -2.072887,-0.95609 1.016452,-1.08839 c 2.515047,-2.69303 14.118066,-14.79179 14.183798,-14.7898 0.04031,0.001 2.449282,5.1967 5.353262,11.54552 2.903979,6.34881 5.3246,11.49793 5.379157,11.44248 0.05456,-0.0554 1.312545,-3.4592 2.79553,-7.5639 1.482983,-4.1047 2.738755,-7.53815 2.790602,-7.6299 0.05185,-0.0918 0.979281,4.45512 2.060963,10.10417 1.081682,5.64905 2.00078,10.27014 2.04244,10.26909 0.04166,-9.9e-4 1.913941,-3.49594 4.160625,-7.76643 2.246683,-4.27048 4.151131,-7.85602 4.232103,-7.96785 0.112968,-0.15603 1.178138,1.97799 4.577882,9.17156 2.436864,5.1562 4.466885,9.37645 4.51116,9.37834 0.04428,0.002 2.257645,-3.62541 4.918602,-8.06067 2.660956,-4.43527 4.914129,-8.17723 5.007053,-8.31548 0.147088,-0.21884 0.822048,0.74299 5.216049,7.43297 3.099296,4.71875 5.084728,7.61533 5.1446,7.50555 0.05362,-0.0983 1.854411,-5.66169 4.00175,-12.363 2.14733,-6.70132 3.9194,-12.20101 3.93792,-12.22155 0.0185,-0.0205 4.26284,3.68756 9.4318,8.24019 l 9.39812,8.27752 -0.4675,0.39727 c -0.88583,0.75275 -2.99439,2.09623 -4.38603,2.79459 -6.76567,3.39517 -16.98734,5.82334 -28.690074,6.81534 -3.079556,0.26105 -12.030227,0.38163 -14.790083,0.19926 z"
       id="path1200"
       transform="scale(0.26458334)" />
    <path
       style="fill:#ffffff;stroke:#800080;stroke-width:0.140858;paint-order:stroke fill markers;stop-color:#000000"
       d="m 72.125404,67.048373 c -0.369016,-1.162078 -2.406576,-7.595764 -4.527913,-14.29708 -2.121336,-6.701315 -3.91195,-12.310982 -3.979141,-12.465926 -0.09651,-0.222554 -0.22727,0.05846 -0.622655,1.33815 -0.275271,0.890927 -1.579929,5.137793 -2.899243,9.437481 -3.123744,10.180393 -3.852345,12.423206 -3.990822,12.28473 -0.243509,-0.24351 -4.040222,-13.274847 -6.595575,-22.637787 -0.16915,-0.619775 -0.360047,-1.182346 -0.424214,-1.250157 -0.06417,-0.06781 -0.329343,-0.0834 -0.58928,-0.03463 l -0.47261,0.08866 -0.957313,11.373694 c -0.526523,6.255531 -1.002031,11.490685 -1.056685,11.633674 -0.08061,0.210897 -1.350177,-1.0531 -6.724684,-6.695187 l -6.625314,-6.955165 0.386112,-0.840712 c 0.481815,-1.049094 0.50057,-1.479069 0.08168,-1.872595 -0.582858,-0.547566 -1.19767,-0.339926 -1.656496,0.559447 l -0.293129,0.574581 -0.408973,-0.39182 c -0.38102,-0.365041 -0.435627,-0.378467 -0.798979,-0.196451 -0.214504,0.107453 -0.434143,0.217397 -0.488086,0.24432 -0.05394,0.02692 -0.235842,-0.224588 -0.404219,-0.558912 -0.168377,-0.334325 -0.519071,-0.907237 -0.77932,-1.27314 -0.658648,-0.926038 -0.519374,-1.196248 0.341192,-0.661958 1.33835,0.830926 3.169306,0.831525 5.641402,0.0018 0.668281,-0.224287 3.401876,-1.33815 6.074655,-2.475251 9.97072,-4.241919 15.675618,-6.071341 22.39641,-7.181983 3.69754,-0.611036 4.975467,-0.708719 9.226194,-0.705236 4.045612,0.0033 5.658911,0.09776 10.846061,0.63491 3.974812,0.411612 10.637268,1.426276 11.053242,1.683362 0.115367,0.0713 -0.344999,2.131033 -1.5935,7.129513 -2.02947,8.125158 -3.145966,12.863506 -3.895468,16.532154 l -0.531356,2.600869 -0.84313,-1.685293 C 85.551413,58.062444 82.130491,50.230118 79.008127,42.656133 78.395922,41.171092 77.8632,39.987605 77.824299,40.026162 c -0.0389,0.03856 -1.186104,6.609714 -2.549342,14.602569 l -2.478618,14.532466 z"
       id="path1239"
       transform="scale(0.26458334)" />
    <path
       style="fill:#ffffff;stroke:#800080;stroke-width:0.140858;paint-order:stroke fill markers;stop-color:#000000"
       d="m 102.55844,53.582854 c -0.11062,-0.263679 -1.76126,-4.148755 -3.668094,-8.633502 -1.906834,-4.484748 -3.444036,-8.177021 -3.416005,-8.205053 0.09681,-0.09681 5.006399,1.204195 7.021109,1.860545 2.86871,0.934568 7.58502,2.855425 7.58502,3.089224 0,0.06693 -7.14194,12.156768 -7.2728,12.31136 -0.0265,0.03126 -0.13862,-0.158895 -0.24923,-0.422574 z"
       id="path1278"
       transform="scale(0.26458334)" />
  </g>
</svg>
