<?xml version="1.0" encoding="UTF-8" standalone="no"?>
<!-- Created with Inkscape (http://www.inkscape.org/) -->

<svg
   version="1.1"
   id="svg3444"
   width="100"
   height="100"
   viewBox="0 0 100 100"
   sodipodi:docname="cielo.svg"
   inkscape:version="1.1 (c68e22c387, 2021-05-23)"
   inkscape:export-filename="C:\Users\taal\eclipse-workspace\checkersjavafx\src\resources\cielo.png"
   inkscape:export-xdpi="96"
   inkscape:export-ydpi="96"
   xmlns:inkscape="http://www.inkscape.org/namespaces/inkscape"
   xmlns:sodipodi="http://sodipodi.sourceforge.net/DTD/sodipodi-0.dtd"
   xmlns="http://www.w3.org/2000/svg"
   xmlns:svg="http://www.w3.org/2000/svg">
  <defs
     id="defs3448">
    <filter
       style="color-interpolation-filters:sRGB;"
       inkscape:label="Drop Shadow"
       id="filter14157"
       x="-0.061523112"
       y="-0.074902389"
       width="1.4181865"
       height="1.15756">
      <feFlood
         flood-opacity="0.498039"
         flood-color="rgb(0,0,0)"
         result="flood"
         id="feFlood14147" />
      <feComposite
         in="flood"
         in2="SourceGraphic"
         operator="in"
         result="composite1"
         id="feComposite14149" />
      <feGaussianBlur
         in="composite1"
         stdDeviation="1.82371"
         result="blur"
         id="feGaussianBlur14151" />
      <feOffset
         dx="20.997"
         dy="0.453172"
         result="offset"
         id="feOffset14153" />
      <feComposite
         in="SourceGraphic"
         in2="offset"
         operator="over"
         result="composite2"
         id="feComposite14155" />
    </filter>
  </defs>
  <sodipodi:namedview
     id="namedview3446"
     pagecolor="#505050"
     bordercolor="#eeeeee"
     borderopacity="1"
     inkscape:pageshadow="0"
     inkscape:pageopacity="0"
     inkscape:pagecheckerboard="0"
     showgrid="false"
     inkscape:snap-global="true"
     inkscape:zoom="7.41"
     inkscape:cx="49.932524"
     inkscape:cy="50"
     inkscape:window-width="1920"
     inkscape:window-height="1001"
     inkscape:window-x="-9"
     inkscape:window-y="-9"
     inkscape:window-maximized="1"
     inkscape:current-layer="layer1"
     showguides="false"
     inkscape:guide-bbox="true"
     inkscape:snap-nodes="false">
    <sodipodi:guide
       position="0,99.9795"
       inkscape:color="rgb(167,0,255)"
       inkscape:label="Misura"
       orientation="0.999998,-0.00221642"
       id="guide3382" />
    <sodipodi:guide
       position="0,99.9795"
       inkscape:color="rgb(167,0,255)"
       inkscape:label=""
       orientation="-0,1"
       id="guide3384" />
    <sodipodi:guide
       position="0,99.9795"
       inkscape:color="rgb(167,0,255)"
       inkscape:label="Inizio"
       orientation="1,0"
       id="guide3386" />
    <sodipodi:guide
       position="-0.0300915,86.4029"
       inkscape:color="rgb(167,0,255)"
       inkscape:label="Fine"
       orientation="-0,1"
       id="guide3388" />
    <sodipodi:guide
       position="-0.0300915,86.4029"
       inkscape:color="rgb(167,0,255)"
       inkscape:label=""
       orientation="1,0"
       id="guide3390" />
    <sodipodi:guide
       position="-0.0222133,89.9573"
       inkscape:color="rgb(167,0,255)"
       inkscape:label="Intersezione 1"
       orientation="-0.00221642,-0.999998"
       id="guide3392" />
    <sodipodi:guide
       position="3.29772e-11,100.031"
       inkscape:color="rgb(167,0,255)"
       inkscape:label="Misura"
       orientation="0.999979,0.0065465"
       id="guide3780" />
    <sodipodi:guide
       position="3.29772e-11,100.031"
       inkscape:color="rgb(167,0,255)"
       inkscape:label="Base"
       orientation="0.999979,0.0065465"
       id="guide3782" />
    <sodipodi:guide
       position="3.29772e-11,100.031"
       inkscape:color="rgb(167,0,255)"
       inkscape:label=""
       orientation="-0,1"
       id="guide3784" />
    <sodipodi:guide
       position="3.29772e-11,100.031"
       inkscape:color="rgb(167,0,255)"
       inkscape:label="Inizio"
       orientation="1,0"
       id="guide3786" />
    <sodipodi:guide
       position="0.125,80.9375"
       inkscape:color="rgb(167,0,255)"
       inkscape:label="Fine"
       orientation="-0,1"
       id="guide3788" />
    <sodipodi:guide
       position="0.125,80.9375"
       inkscape:color="rgb(167,0,255)"
       inkscape:label=""
       orientation="1,0"
       id="guide3790" />
    <sodipodi:guide
       position="0.0648569,90.1244"
       inkscape:color="rgb(167,0,255)"
       inkscape:label="Intersezione 1"
       orientation="1,0"
       id="guide3792" />
    <sodipodi:guide
       position="-4.4194174,115.02602"
       orientation="0,-1"
       id="guide9979" />
    <sodipodi:guide
       position="118.264,90.4541"
       inkscape:color="rgb(167,0,255)"
       inkscape:label="Misura"
       orientation="-0.00149703,-0.999999"
       id="guide11415" />
    <sodipodi:guide
       position="118.264,90.4541"
       inkscape:color="rgb(167,0,255)"
       inkscape:label=""
       orientation="-0,1"
       id="guide11417" />
    <sodipodi:guide
       position="118.264,90.4541"
       inkscape:color="rgb(167,0,255)"
       inkscape:label="Inizio"
       orientation="1,0"
       id="guide11419" />
    <sodipodi:guide
       position="0.176777,90.6308"
       inkscape:color="rgb(167,0,255)"
       inkscape:label="Fine"
       orientation="-0,1"
       id="guide11421" />
    <sodipodi:guide
       position="0.176777,90.6308"
       inkscape:color="rgb(167,0,255)"
       inkscape:label=""
       orientation="1,0"
       id="guide11423" />
    <sodipodi:guide
       position="100.247,90.481"
       inkscape:color="rgb(167,0,255)"
       inkscape:label="Intersezione 1"
       orientation="-0.999999,0.00149703"
       id="guide11425" />
    <sodipodi:guide
       position="99.8504,90.4816"
       inkscape:color="rgb(167,0,255)"
       inkscape:label="Intersezione 2"
       orientation="-0.999999,0.00149703"
       id="guide11427" />
    <sodipodi:guide
       position="85.8458,90.5026"
       inkscape:color="rgb(167,0,255)"
       inkscape:label="Intersezione 3"
       orientation="-0.999999,0.00149703"
       id="guide11429" />
    <sodipodi:guide
       position="85.1103,90.5037"
       inkscape:color="rgb(167,0,255)"
       inkscape:label="Intersezione 4"
       orientation="-0.999999,0.00149703"
       id="guide11431" />
    <sodipodi:guide
       position="80.5832,90.5105"
       inkscape:color="rgb(167,0,255)"
       inkscape:label="Intersezione 5"
       orientation="-0.999999,0.00149703"
       id="guide11433" />
    <sodipodi:guide
       position="79.8807,90.5115"
       inkscape:color="rgb(167,0,255)"
       inkscape:label="Intersezione 6"
       orientation="-0.999999,0.00149703"
       id="guide11435" />
    <sodipodi:guide
       position="71.0885,90.5247"
       inkscape:color="rgb(167,0,255)"
       inkscape:label="Intersezione 7"
       orientation="-0.999999,0.00149703"
       id="guide11437" />
    <sodipodi:guide
       position="70.4082,90.5257"
       inkscape:color="rgb(167,0,255)"
       inkscape:label="Intersezione 8"
       orientation="-0.999999,0.00149703"
       id="guide11439" />
    <sodipodi:guide
       position="59.879,90.5415"
       inkscape:color="rgb(167,0,255)"
       inkscape:label="Intersezione 9"
       orientation="-0.999999,0.00149703"
       id="guide11441" />
    <sodipodi:guide
       position="59.1976,90.5425"
       inkscape:color="rgb(167,0,255)"
       inkscape:label="Intersezione 10"
       orientation="-0.999999,0.00149703"
       id="guide11443" />
    <sodipodi:guide
       position="45.0449,90.5637"
       inkscape:color="rgb(167,0,255)"
       inkscape:label="Intersezione 11"
       orientation="-0.999999,0.00149703"
       id="guide11445" />
    <sodipodi:guide
       position="44.4931,90.5645"
       inkscape:color="rgb(167,0,255)"
       inkscape:label="Intersezione 12"
       orientation="-0.999999,0.00149703"
       id="guide11447" />
    <sodipodi:guide
       position="41.7512,90.5686"
       inkscape:color="rgb(167,0,255)"
       inkscape:label="Intersezione 13"
       orientation="-0.999999,0.00149703"
       id="guide11449" />
    <sodipodi:guide
       position="41.0496,90.5697"
       inkscape:color="rgb(167,0,255)"
       inkscape:label="Intersezione 14"
       orientation="-0.999999,0.00149703"
       id="guide11451" />
    <sodipodi:guide
       position="28.6317,90.5882"
       inkscape:color="rgb(167,0,255)"
       inkscape:label="Intersezione 15"
       orientation="-0.999999,0.00149703"
       id="guide11453" />
    <sodipodi:guide
       position="27.8328,90.5894"
       inkscape:color="rgb(167,0,255)"
       inkscape:label="Intersezione 16"
       orientation="-0.999999,0.00149703"
       id="guide11455" />
    <sodipodi:guide
       position="21.4553,90.599"
       inkscape:color="rgb(167,0,255)"
       inkscape:label="Intersezione 17"
       orientation="-0.999999,0.00149703"
       id="guide11457" />
    <sodipodi:guide
       position="20.7528,90.6"
       inkscape:color="rgb(167,0,255)"
       inkscape:label="Intersezione 18"
       orientation="-0.999999,0.00149703"
       id="guide11459" />
    <sodipodi:guide
       position="13.1756,90.6114"
       inkscape:color="rgb(167,0,255)"
       inkscape:label="Intersezione 19"
       orientation="-0.999999,0.00149703"
       id="guide11461" />
    <sodipodi:guide
       position="4.81153,90.6239"
       inkscape:color="rgb(167,0,255)"
       inkscape:label="Intersezione 20"
       orientation="-0.999999,0.00149703"
       id="guide11463" />
    <sodipodi:guide
       position="0.330622,90.6306"
       inkscape:color="rgb(167,0,255)"
       inkscape:label="Intersezione 21"
       orientation="-0.999999,0.00149703"
       id="guide11465" />
    <sodipodi:guide
       position="118.264,90.4541"
       inkscape:color="rgb(167,0,255)"
       inkscape:label="Misura"
       orientation="-0.00149703,-0.999999"
       id="guide11467" />
    <sodipodi:guide
       position="118.264,90.4541"
       inkscape:color="rgb(167,0,255)"
       inkscape:label=""
       orientation="-0,1"
       id="guide11469" />
    <sodipodi:guide
       position="118.264,90.4541"
       inkscape:color="rgb(167,0,255)"
       inkscape:label="Inizio"
       orientation="1,0"
       id="guide11471" />
    <sodipodi:guide
       position="0.176777,90.6308"
       inkscape:color="rgb(167,0,255)"
       inkscape:label="Fine"
       orientation="-0,1"
       id="guide11473" />
    <sodipodi:guide
       position="0.176777,90.6308"
       inkscape:color="rgb(167,0,255)"
       inkscape:label=""
       orientation="1,0"
       id="guide11475" />
    <sodipodi:guide
       position="100.247,90.481"
       inkscape:color="rgb(167,0,255)"
       inkscape:label="Intersezione 1"
       orientation="-0.999999,0.00149703"
       id="guide11477" />
    <sodipodi:guide
       position="99.8504,90.4816"
       inkscape:color="rgb(167,0,255)"
       inkscape:label="Intersezione 2"
       orientation="-0.999999,0.00149703"
       id="guide11479" />
    <sodipodi:guide
       position="85.8458,90.5026"
       inkscape:color="rgb(167,0,255)"
       inkscape:label="Intersezione 3"
       orientation="-0.999999,0.00149703"
       id="guide11481" />
    <sodipodi:guide
       position="85.1103,90.5037"
       inkscape:color="rgb(167,0,255)"
       inkscape:label="Intersezione 4"
       orientation="-0.999999,0.00149703"
       id="guide11483" />
    <sodipodi:guide
       position="80.5832,90.5105"
       inkscape:color="rgb(167,0,255)"
       inkscape:label="Intersezione 5"
       orientation="-0.999999,0.00149703"
       id="guide11485" />
    <sodipodi:guide
       position="79.8807,90.5115"
       inkscape:color="rgb(167,0,255)"
       inkscape:label="Intersezione 6"
       orientation="-0.999999,0.00149703"
       id="guide11487" />
    <sodipodi:guide
       position="71.0885,90.5247"
       inkscape:color="rgb(167,0,255)"
       inkscape:label="Intersezione 7"
       orientation="-0.999999,0.00149703"
       id="guide11489" />
    <sodipodi:guide
       position="70.4082,90.5257"
       inkscape:color="rgb(167,0,255)"
       inkscape:label="Intersezione 8"
       orientation="-0.999999,0.00149703"
       id="guide11491" />
    <sodipodi:guide
       position="59.879,90.5415"
       inkscape:color="rgb(167,0,255)"
       inkscape:label="Intersezione 9"
       orientation="-0.999999,0.00149703"
       id="guide11493" />
    <sodipodi:guide
       position="59.1976,90.5425"
       inkscape:color="rgb(167,0,255)"
       inkscape:label="Intersezione 10"
       orientation="-0.999999,0.00149703"
       id="guide11495" />
    <sodipodi:guide
       position="45.0449,90.5637"
       inkscape:color="rgb(167,0,255)"
       inkscape:label="Intersezione 11"
       orientation="-0.999999,0.00149703"
       id="guide11497" />
    <sodipodi:guide
       position="44.4931,90.5645"
       inkscape:color="rgb(167,0,255)"
       inkscape:label="Intersezione 12"
       orientation="-0.999999,0.00149703"
       id="guide11499" />
    <sodipodi:guide
       position="41.7512,90.5686"
       inkscape:color="rgb(167,0,255)"
       inkscape:label="Intersezione 13"
       orientation="-0.999999,0.00149703"
       id="guide11501" />
    <sodipodi:guide
       position="41.0496,90.5697"
       inkscape:color="rgb(167,0,255)"
       inkscape:label="Intersezione 14"
       orientation="-0.999999,0.00149703"
       id="guide11503" />
    <sodipodi:guide
       position="28.6317,90.5882"
       inkscape:color="rgb(167,0,255)"
       inkscape:label="Intersezione 15"
       orientation="-0.999999,0.00149703"
       id="guide11505" />
    <sodipodi:guide
       position="27.8328,90.5894"
       inkscape:color="rgb(167,0,255)"
       inkscape:label="Intersezione 16"
       orientation="-0.999999,0.00149703"
       id="guide11507" />
    <sodipodi:guide
       position="21.4553,90.599"
       inkscape:color="rgb(167,0,255)"
       inkscape:label="Intersezione 17"
       orientation="-0.999999,0.00149703"
       id="guide11509" />
    <sodipodi:guide
       position="20.7528,90.6"
       inkscape:color="rgb(167,0,255)"
       inkscape:label="Intersezione 18"
       orientation="-0.999999,0.00149703"
       id="guide11511" />
    <sodipodi:guide
       position="13.1756,90.6114"
       inkscape:color="rgb(167,0,255)"
       inkscape:label="Intersezione 19"
       orientation="-0.999999,0.00149703"
       id="guide11513" />
    <sodipodi:guide
       position="4.81153,90.6239"
       inkscape:color="rgb(167,0,255)"
       inkscape:label="Intersezione 20"
       orientation="-0.999999,0.00149703"
       id="guide11515" />
    <sodipodi:guide
       position="0.330622,90.6306"
       inkscape:color="rgb(167,0,255)"
       inkscape:label="Intersezione 21"
       orientation="-0.999999,0.00149703"
       id="guide11517" />
  </sodipodi:namedview>
  <g
     id="layer1"
     inkscape:label="Layer 1"
     style="display:inline">
    <rect
       style="fill:#0000ff;fill-opacity:1;stroke:none;stroke-width:0.47369;stroke-opacity:1;paint-order:stroke markers fill;stop-color:#000000"
       id="rect2294"
       height="101"
       x="0"
       y="0"
       width="101"
       inkscape:export-filename="C:\Users\taal\eclipse-workspace\checkersjavafx\src\resources\cielo.png"
       inkscape:export-xdpi="96"
       inkscape:export-ydpi="96" />
    <g
       id="g4975"
       inkscape:label="nuvola"
       style="display:inline"
       inkscape:export-filename="C:\Users\taal\eclipse-workspace\checkersjavafx\src\resources\cielo.png"
       inkscape:export-xdpi="96"
       inkscape:export-ydpi="96">
      <path
         style="display:inline;fill:#f2f2f2;fill-opacity:1;stroke:none;stroke-width:1px;stroke-linecap:butt;stroke-linejoin:miter;stroke-opacity:1"
         d="m 22.523745,18.181818 c -3.32598,0.191089 -11.863264,3.869841 -13.0257803,7.191316 -0.2301529,0.65758 -0.3314375,2.744807 -0.1356852,3.527816 0.1868252,0.747301 1.2772075,0.540532 0.4070556,1.628222 -2.7037025,3.379629 -6.3095966,3.491199 -5.834464,8.955224 0.2898519,3.333297 1.4348597,6.214962 3.1207598,9.090909 1.5181398,2.589768 3.1207601,-0.362887 3.1207601,3.527816 0,2.295824 -1.6342615,2.857441 -2.8493896,4.477612 -0.1975607,0.263414 -0.1697898,0.636589 -0.2713705,0.949796 -0.4412381,1.360484 -1.009966,2.683012 -1.3568521,4.070556 -2.2422665,8.969067 3.9523241,20.580602 11.1261872,25.644505 3.600482,2.541517 8.940908,4.274996 13.297151,4.477612 0.594244,0.02764 1.199548,-0.08325 1.763907,-0.27137 0.315442,-0.105148 0.227571,-1.039539 0.407056,-0.949797 1.377797,0.688899 1.714179,2.657339 2.985075,3.527816 6.290187,4.308347 9.216829,3.837488 16.960651,4.206241 1.446376,0.06888 2.923658,0.156312 4.341927,-0.135685 2.073084,-0.426811 5.025297,-1.607148 6.919945,-2.985075 0.80645,-0.586509 1.152138,-1.079944 1.356853,-2.035278 0.07581,-0.353795 -0.361828,-1.085481 0,-1.085481 1.217812,0 2.328534,0.738158 3.527815,0.949796 6.465032,1.140888 16.559913,2.297453 22.523745,-0.814111 1.547835,-0.807566 3.332443,-1.609326 4.206241,-3.12076 2.338504,-4.04498 0.204675,-9.700345 -2.713704,-12.618725 -0.478651,-0.478651 0.08552,-3.269307 0.135685,-3.6635 0.235856,-1.853154 0.586963,-3.697232 0.678426,-5.563094 0.13508,-2.755624 0.308054,-5.535117 0,-8.276798 -0.400077,-3.56069 -3.395137,-6.924457 -5.291723,-9.769335 -0.409394,-0.614092 0.113189,-4.28259 -0.135685,-5.427408 -0.243062,-1.118084 -0.649828,-2.19843 -1.085482,-3.256445 -0.132455,-0.321678 -0.614516,-0.644452 -0.678426,-0.949797 -0.387055,-1.849263 -0.430543,-3.790908 -1.085481,-5.563093 -0.897514,-2.428566 -2.286167,-4.647994 -3.527816,-6.919946 -2.392607,-4.377963 -3.323917,-6.678386 -8.683853,-8.412483 -2.552002,-0.825648 -5.323189,-0.814111 -8.005428,-0.814111 -2.053289,0 -4.092418,0.411428 -6.105834,0.814111 -0.408888,0.08178 -0.576834,1.000593 -0.949797,0.814111 C 57.187186,19.163471 56.906852,17.4943 56.580733,16.960651 55.994862,16.001954 54.595392,13.98718 53.867028,13.297151 48.643352,8.3484043 42.302432,7.94579 35.41384,8.6838535 31.864856,9.0641017 22.640323,14.556531 21.031208,17.774763 c -0.221769,0.443537 1.294308,0.539208 1.492537,0.407055 z"
         id="path1793-2" />
      <path
         id="path1793"
         style="display:inline;fill:#999999;fill-opacity:1;stroke:none;stroke-width:1px;stroke-linecap:butt;stroke-linejoin:miter;stroke-opacity:1"
         d="M 40.46875,8.3964844 C 38.823961,8.3852053 37.136211,8.4990779 35.414062,8.6835938 31.865078,9.063842 22.640365,14.557159 21.03125,17.775391 c -0.166133,0.332266 0.642808,0.468645 1.142578,0.460937 -3.51734,0.383731 -11.547904,3.914212 -12.6757811,7.136719 -0.1894201,0.5412 -0.2820357,2.014853 -0.203125,2.96875 1.9308871,-0.804444 3.7838341,-1.341377 5.0625001,-1.478516 -0.490399,0.0071 -1.281916,-0.125729 -1.119141,-0.445312 1.578498,-3.099124 10.627918,-8.387732 14.109375,-8.753907 6.757523,-0.710747 12.977278,-0.322231 18.101563,4.44336 0.714506,0.664491 2.087385,2.604128 2.662109,3.527344 0.319914,0.513898 0.59454,2.120913 1.064453,2.351562 0.365866,0.179581 0.530533,-0.704453 0.931641,-0.783203 1.975106,-0.387779 3.976013,-0.785156 5.990234,-0.785156 2.631203,0 5.350072,-0.0099 7.853516,0.785156 5.257953,1.669918 6.170495,3.883675 8.517578,8.099609 1.218024,2.187866 2.580501,4.32538 3.460938,6.664063 0.642477,1.706596 0.684763,3.5766 1.064453,5.357422 0.06269,0.294044 0.53608,0.60429 0.666015,0.914062 0.427365,1.018857 0.826015,2.060016 1.064453,3.136719 0.244137,1.102448 -0.268792,4.635197 0.132813,5.226562 1.860499,2.739588 4.798941,5.979297 5.191406,9.408204 0.302193,2.640211 0.13251,5.317065 0,7.970703 -0.08972,1.796806 -0.434647,3.572854 -0.666016,5.357422 -0.0492,0.379605 -0.602356,3.066408 -0.132812,3.527343 2.52571,2.479409 4.447505,7.00923 3.291016,10.716797 1.594138,-0.316997 3.079927,-0.779558 4.367187,-1.451172 1.547835,-0.807566 3.333233,-1.609659 4.207031,-3.121093 2.338504,-4.04498 0.205489,-9.700761 -2.71289,-12.619141 -0.478651,-0.478651 0.0846,-3.269869 0.134765,-3.664063 0.235856,-1.853154 0.586272,-3.696637 0.677735,-5.5625 0.13508,-2.755623 0.308054,-5.535662 0,-8.277343 -0.400077,-3.56069 -3.39443,-6.924654 -5.291016,-9.769531 -0.409394,-0.614092 0.114109,-4.280964 -0.134766,-5.425782 -0.243061,-1.118084 -0.650283,-2.199797 -1.085937,-3.257812 -0.132455,-0.321678 -0.613824,-0.643874 -0.677734,-0.949219 -0.387055,-1.849263 -0.431,-3.790315 -1.085938,-5.5625 -0.897514,-2.428566 -2.287648,-4.64797 -3.529297,-6.919922 -2.392607,-4.377963 -3.323657,-6.678012 -8.683594,-8.412109 -2.552002,-0.825648 -5.321667,-0.814453 -8.003906,-0.814453 -2.053289,0 -4.094006,0.41177 -6.107422,0.814453 -0.408888,0.08178 -0.576255,0.998982 -0.949218,0.8125 C 57.186988,19.16283 56.906197,17.494587 56.580078,16.960938 55.994207,16.002241 54.595552,13.986904 53.867188,13.296875 49.949431,9.585315 45.403118,8.4303216 40.46875,8.3964844 Z M 56.230469,97.890625 c -0.139897,0 -0.144048,0.123852 -0.119141,0.277344 0.156338,-0.02337 0.313706,-0.03644 0.46875,-0.06836 0.125811,-0.0259 0.278303,-0.07805 0.410156,-0.109375 -0.250299,-0.05411 -0.50159,-0.09961 -0.759765,-0.09961 z" />
    </g>
  </g>
</svg>
