<?xml version="1.0" encoding="UTF-8" standalone="no"?>
<!-- Created with Inkscape (http://www.inkscape.org/) -->

<svg
   version="1.1"
   id="svg3444"
   width="100"
   height="100"
   viewBox="0 0 100 100"
   sodipodi:docname="forestSilyzed.svg"
   inkscape:version="1.1 (c68e22c387, 2021-05-23)"
   inkscape:export-filename="C:\Users\taal\eclipse-workspace\checkersjavafx\src\resources\forestaBoxEmpty.png"
   inkscape:export-xdpi="96"
   inkscape:export-ydpi="96"
   xmlns:inkscape="http://www.inkscape.org/namespaces/inkscape"
   xmlns:sodipodi="http://sodipodi.sourceforge.net/DTD/sodipodi-0.dtd"
   xmlns:xlink="http://www.w3.org/1999/xlink"
   xmlns="http://www.w3.org/2000/svg"
   xmlns:svg="http://www.w3.org/2000/svg">
  <defs
     id="defs3448">
    <filter
       style="color-interpolation-filters:sRGB;"
       inkscape:label="Drop Shadow"
       id="filter14157"
       x="-0.061523112"
       y="-0.074902389"
       width="1.4181865"
       height="1.15756">
      <feFlood
         flood-opacity="0.498039"
         flood-color="rgb(0,0,0)"
         result="flood"
         id="feFlood14147" />
      <feComposite
         in="flood"
         in2="SourceGraphic"
         operator="in"
         result="composite1"
         id="feComposite14149" />
      <feGaussianBlur
         in="composite1"
         stdDeviation="1.82371"
         result="blur"
         id="feGaussianBlur14151" />
      <feOffset
         dx="20.997"
         dy="0.453172"
         result="offset"
         id="feOffset14153" />
      <feComposite
         in="SourceGraphic"
         in2="offset"
         operator="over"
         result="composite2"
         id="feComposite14155" />
    </filter>
    <filter
       style="color-interpolation-filters:sRGB;"
       inkscape:label="Drop Shadow"
       id="filter59598"
       x="-2.6421592"
       y="-1.9867727"
       width="5.989521"
       height="4.8984071">
      <feFlood
         flood-opacity="0.498039"
         flood-color="rgb(0,0,0)"
         result="flood"
         id="feFlood59588" />
      <feComposite
         in="flood"
         in2="SourceGraphic"
         operator="out"
         result="composite1"
         id="feComposite59590" />
      <feGaussianBlur
         in="composite1"
         stdDeviation="65.6535"
         result="blur"
         id="feGaussianBlur59592" />
      <feOffset
         dx="-19.7885"
         dy="-6.19335"
         result="offset"
         id="feOffset59594" />
      <feComposite
         in="offset"
         in2="SourceGraphic"
         operator="in"
         result="composite2"
         id="feComposite59596" />
    </filter>
  </defs>
  <sodipodi:namedview
     id="namedview3446"
     pagecolor="#505050"
     bordercolor="#eeeeee"
     borderopacity="1"
     inkscape:pageshadow="0"
     inkscape:pageopacity="0"
     inkscape:pagecheckerboard="0"
     showgrid="false"
     inkscape:snap-global="false"
     inkscape:zoom="3.0252921"
     inkscape:cx="139.16012"
     inkscape:cy="87.760121"
     inkscape:window-width="1920"
     inkscape:window-height="1001"
     inkscape:window-x="-9"
     inkscape:window-y="-9"
     inkscape:window-maximized="1"
     inkscape:current-layer="svg3444" />
  <rect
     style="display:inline;fill:#88aa00;fill-opacity:1;stroke:#88aa00;stroke-width:0.999959;stroke-miterlimit:4;stroke-dasharray:none;stroke-opacity:1;paint-order:stroke fill markers;stop-color:#000000"
     id="rect3667"
     width="100.00004"
     height="99.999985"
     x="0.50000018"
     y="0.4999795"
     inkscape:label="prato"
     inkscape:export-filename="C:\Users\taal\eclipse-workspace\checkersjavafx\src\resources\forestaBox.png"
     inkscape:export-xdpi="96"
     inkscape:export-ydpi="96"
     sodipodi:insensitive="true" />
  <g
     id="g19321"
     inkscape:label="foresta"
     style="display:none">
    <use
       x="0"
       y="0"
       xlink:href="#path2259"
       id="use61322"
       width="100%"
       height="100%"
       transform="translate(115.68092,-68.423145)" />
    <use
       x="0"
       y="0"
       xlink:href="#path2259"
       id="use61320"
       width="100%"
       height="100%"
       transform="translate(65.603114,-35.037939)" />
    <g
       id="use59196"
       inkscape:label="albero"
       style="display:inline;filter:url(#filter59598)"
       transform="rotate(15,36.98278,103.63271)"
       clip-path="none" />
    <g
       id="g18710"
       inkscape:label="albero"
       style="display:inline"
       transform="translate(-0.0478492,0.04177637)">
      <path
         id="path59698"
         style="display:inline;opacity:0.423875;fill:#000000;fill-opacity:1;stroke:none;stroke-width:1px;stroke-linecap:butt;stroke-linejoin:miter;stroke-opacity:1"
         inkscape:label="ombra"
         d="m 54.711013,14.110397 c -1.20008,-0.05735 -2.15857,0.05476 -2.735745,0.41454 -1.160719,0.723536 -1.116802,0.586181 -2.156981,1.418406 -7.982457,6.386595 -6.861302,4.635992 -7.982956,6.386536 -5.039028,7.864316 -4.324687,10.192818 -4.280228,11.827115 0.06113,2.247127 1.234129,7.53637 2.504207,9.395639 5.94905,8.708814 7.394521,9.496042 8.480112,11.899318 0.712469,1.577261 6.612019,2.743401 7.63318,3.871184 0.30336,0.335034 1.043676,0.735769 1.642079,1.175498 -0.08427,-0.0195 -0.1676,-0.04385 -0.25198,-0.06297 l 0.28055,0.0854 c 0.275484,0.205054 0.535015,0.413304 0.672911,0.635659 l -0.193486,-0.05909 -0.01988,0.78688 c -0.03591,1.376794 -1.758851,4.733772 -4.669711,9.101958 -1.427168,2.141673 -2.132872,3.398978 -4.144286,7.379964 -2.079631,4.115975 -3.007563,5.676807 -4.738286,7.974108 -1.406836,1.867362 -2.433907,3.94474 -2.19528,4.436349 0.02199,0.04534 0.553369,0.364309 1.368005,0.832355 0.004,0.03161 0.0034,0.06486 0.0086,0.09603 0.0061,0.03571 9.819537,6.477761 11.520172,6.431492 0.20027,-0.0055 1.324728,-1.897392 2.154983,-3.325745 0.159814,-0.242602 0.3168,-0.478299 0.468927,-0.713547 l 1.214474,-1.877252 1.585657,-5.392364 1.58559,-5.390418 1.383073,-2.430619 c 1.098107,-1.929423 1.615898,-3.088146 2.517601,-5.625656 0.94458,-2.65817 1.299608,-3.437495 2.107794,-4.628767 1.181139,-1.741022 2.188214,-2.982728 2.720672,-3.35411 L 71.588701,65.122106 71.054662,64.96 c 0.129495,-0.07901 0.245089,-0.168037 0.289758,-0.314901 1.487378,2.732063 3.919311,1.87063 6.793194,2.550002 4.025974,0.951722 7.982163,1.6895 11.977405,2.07889 0.975784,0.09511 4.706382,-3.65138 5.267764,-4.273145 1.208409,-1.338417 2.500378,-2.872696 3.275218,-4.53385 3.668399,-7.864544 3.480219,-24.48206 -0.391026,-31.72513 C 97.162,26.674436 92.434762,23.425362 90.416566,22.733508 84.370721,20.660956 78.526363,19.338699 72.258354,18.261476 69.624351,17.808796 59.911397,14.358934 54.711053,14.110404 Z" />
      <path
         style="display:inline;fill:#504416;fill-opacity:1;stroke:none;stroke-width:1.2px;stroke-linecap:butt;stroke-linejoin:miter;stroke-opacity:1"
         d="m 36.322004,56.572657 c 4.805945,-0.34269 9.654264,-0.198328 14.47794,-0.198328 1.104407,0 2.75959,-0.051 2.776593,0 0.247779,0.743339 -0.702344,0.95017 -0.991641,1.586623 -0.817715,1.798973 -1.345339,4.044851 -1.784952,5.949839 -0.548498,2.37683 -0.174693,5.094878 -0.396655,7.536462 -0.296159,3.257749 -1.388296,6.385427 -1.388296,9.71807 0,4.044617 0.660623,8.882877 -0.198327,12.891317 -0.136518,0.63708 -1.466213,6.43858 -1.784952,6.54482 -1.936743,0.64558 -15.450159,-3.33273 -15.469581,-3.37157 -1.156479,-2.31296 0.895662,-6.954229 1.388296,-8.92476 1.343348,-5.373393 1.59216,-10.932953 2.776591,-16.262893 0.475282,-2.138766 3.393972,-12.251538 2.181607,-14.676269 C 37.45728,56.463272 35.121761,56.249167 34.338725,55.779345 32.773212,54.840038 25.591617,55.557385 24.223999,53.994393 22.140156,51.612859 20.206371,51.212683 10.341042,43.284685 8.2348651,41.592113 5.0459151,35.927407 4.1928751,33.368285 3.5724741,31.507082 1.9395008,29.08157 4.9861871,18.295361 c 0.678171,-2.400937 0,0 6.9414779,-10.1147251 0.904531,-1.318031 0.902467,-1.14472 1.98328,-2.379935 2.866362,-3.275842 20.675895,-2.2869951 24.592666,-2.7765911 7.57295,-0.9466193 14.746476,-1.4637029 22.41106,-1.1899684 2.558563,0.09138 9.117253,2.1757755 11.106365,4.1648865 6.968711,6.9687111 12.975735,25.9850241 11.503021,36.2940161 -0.311066,2.177469 -1.260239,4.388587 -2.181607,6.346494 -0.428026,0.909555 -3.407902,6.512423 -4.561543,6.743151 -4.723464,0.944694 -9.523281,1.475286 -14.47794,1.784952 -3.553511,0.222094 -6.05249,2.078956 -8.72643,-0.594984"
         id="path1004"
         sodipodi:nodetypes="cscssssssssssssssssssssssssc"
         inkscape:label="chioma&amp;tronco"
         inkscape:export-filename="C:\Users\taal\eclipse-workspace\checkersjavafx\src\resources\forestaBox.png"
         inkscape:export-xdpi="96"
         inkscape:export-ydpi="96" />
      <path
         id="path1004-0"
         style="display:inline;opacity:0.254325;fill:#000000;fill-opacity:1;stroke:none;stroke-width:1.2px;stroke-linecap:butt;stroke-linejoin:miter;stroke-opacity:1"
         inkscape:label="ombrachioma"
         d="m 55.636891,1.7437134 c -0.41546,0.0043 -0.82831,0.01683 -1.24219,0.02539 a 41.648872,33.219933 0 0 1 6.80469,18.1874996 41.648872,33.219933 0 0 1 -37.943359,33.007813 c 0.349679,0.312028 0.683695,0.633207 1.009766,1.005859 1.367618,1.562992 8.549713,0.845849 10.115233,1.785156 0.46472,0.278831 1.45105,0.481256 2.29102,0.777344 -0.10272,0.0069 -0.20592,0.0083 -0.3086,0.01563 h 0.34766 c 0.54686,0.196404 1.03755,0.426445 1.22461,0.773437 l 14.58789,0.875001 c 0.0362,-0.08414 0.0661,-0.177422 0.10352,-0.259766 0.25697,-0.565386 1.03039,-0.792819 1.02734,-1.357422 2.66074,2.622894 5.15344,0.785576 8.6914,0.564453 4.95466,-0.309666 9.75311,-0.840462 14.47657,-1.785156 1.15364,-0.230728 4.13448,-5.832633 4.5625,-6.742188 0.92137,-1.957907 1.87057,-4.170187 2.18164,-6.347656 1.47271,-10.308992 -4.5352,-29.324258 -11.50391,-36.2929686 -1.98911,-1.989111 -8.5469,-4.074635 -11.10547,-4.166015 -0.95807,-0.03422 -1.90905,-0.0562 -2.85351,-0.06641 -0.82641,-0.0089 -1.6483,-0.0084 -2.4668,-10e-7 z" />
      <path
         style="display:inline;fill:#552200;fill-opacity:1;stroke:#552200;stroke-width:0.217457;stroke-opacity:1;paint-order:stroke fill markers;stop-color:#000000"
         d="M 43.796917,99.68115 C 40.569329,99.12858 29.8205,96.81891 29.65776,96.64297 c -0.445284,-0.48139 0.01214,-3.22432 0.977101,-5.858741 1.187096,-3.240976 1.708612,-5.357929 2.662782,-10.808874 0.922876,-5.272164 1.295263,-6.959889 2.187998,-9.916398 1.820837,-6.030141 2.628821,-10.485831 2.19044,-12.079346 l -0.250659,-0.911135 h 8.317521 8.317522 l -0.359868,0.456847 c -0.48205,0.61196 -1.205899,2.388118 -1.955703,4.798845 -0.513045,1.64951 -0.648955,2.667506 -0.807598,6.049002 -0.151441,3.228 -0.343553,4.739989 -0.932378,7.338134 l -0.741634,3.272412 0.05766,6.743151 0.05764,6.74315 -0.739935,2.578263 c -0.406967,1.41805 -0.919397,3.09144 -1.138734,3.71865 l -0.398799,1.14039 -1.115629,-0.0212 c -0.613597,-0.0116 -1.598455,-0.1039 -2.188573,-0.20493 z"
         id="path2187"
         inkscape:label="tronco"
         inkscape:export-filename="C:\Users\taal\eclipse-workspace\checkersjavafx\src\resources\forestaBox.png"
         inkscape:export-xdpi="96"
         inkscape:export-ydpi="96" />
    </g>
    <g
       id="g5571"
       inkscape:label="cespuglio">
      <path
         style="display:inline;opacity:0.544248;fill:#000000;stroke:#000000;stroke-width:0.398266;stroke-linecap:butt;stroke-linejoin:miter;stroke-miterlimit:4;stroke-dasharray:none;stroke-opacity:1"
         d="m -48.9763,97.566747 c 10.133518,-3.714838 7.741305,-2.825381 19.852122,-7.338425 0.624804,-0.232836 2.338655,-0.923654 1.840088,-0.698897 -0.633722,0.285682 -20.423338,8.544287 -20.416344,8.561497 0.257216,0.63152 18.079656,-5.5686 19.624671,-5.940632 4.468134,-1.075901 -13.43512,6.290078 -12.576888,6.290078 0.122425,0 5.690537,-1.932261 10.722838,-3.66921 1.505393,-0.5196 5.558465,-2.084174 4.405792,-1.57252 -0.479998,0.213067 -13.089943,5.006244 -10.243747,4.193384 11.214359,-3.202767 12.960138,-4.651108 4.903953,-0.349448 -2.039685,1.089106 13.482868,-3.441158 13.255518,-3.319762 -0.407121,0.217385 -10.799658,4.592487 -10.367014,4.542833 1.655857,-0.190042 7.926319,-2.374092 6.990566,-1.747244 -0.752336,0.503982 -4.200987,1.885076 -2.546638,1.572521 4.547089,-0.85908 5.222414,-1.122398 11.804292,-2.970316 1.032123,-0.289777 3.4726058,-1.138808 3.0968926,-0.873622 -0.7900564,0.557641 -4.9252486,2.292212 -5.0411726,2.620865 -0.04919,0.139478 11.2551573,-3.107622 10.8130717,-2.795589 -0.555442,0.392046 -14.6624157,6.21078 -15.2328127,6.29007 -1.463293,0.20344 -1.574033,-0.14091 -2.461548,-0.17471 -4.91619,-0.18729 -9.966494,-0.32786 -14.821145,-0.52418 -2.035949,-0.08237 -4.895659,-0.300221 -7.967819,0 -3.51676,0.34366 -7.44164,1.24965 -9.665585,1.04835 -1.50584,-0.1363 -1.224642,-3.145043 4.030909,-3.145043 z"
         id="path2259-6"
         inkscape:label="ombra" />
      <path
         style="fill:#445500;stroke:#000000;stroke-width:0.528;stroke-linecap:butt;stroke-linejoin:miter;stroke-miterlimit:4;stroke-dasharray:none;stroke-opacity:1"
         d="m -57.507835,95.727346 c 0.379503,-6.072012 0.325295,-4.618169 0.571186,-11.994874 0.01267,-0.380577 -0.1002,-1.509741 0,-1.142368 0.127353,0.466956 2.228493,13.965893 2.284736,13.994023 2.064472,1.03224 3.675789,-9.102043 4.283884,-9.71014 1.758595,-1.758594 3.361031,10.28132 4.283885,10.28132 0.131644,0 0.648613,-3.158338 1.142368,-5.997435 0.147711,-0.849301 0.07652,-3.406643 0.285592,-2.57033 0.08707,0.348264 0.09755,8.182855 0.856777,6.854212 2.991442,-5.235019 0.768291,-7.602375 4.283885,-0.571183 0.890089,1.780176 4.755857,-5.624676 4.855069,-5.426252 0.177661,0.355323 1.388905,7.506558 1.713553,7.425398 1.24251,-0.31063 1.801878,-3.880524 2.570328,-2.855923 0.617832,0.823774 0.81951,3.081213 1.713555,2.570333 2.457336,-1.404193 2.438035,-1.834593 4.283883,-4.855072 0.289455,-0.473648 0.510015,-1.861415 0.856778,-1.42796 0.729187,0.911481 1.193354,3.746689 1.999146,4.283882 0.341972,0.227982 3.304678,-5.079501 3.712698,-4.569474 0.512652,0.640811 1.816819,10.151707 1.427964,10.281317 -0.997532,0.33252 -2.091478,-0.23033 -3.141515,-0.28558 -5.816613,-0.306133 -11.645143,-0.535893 -17.42113,-0.856783 -2.422452,-0.13464 -6.114237,-0.49072 -8.567768,0 -2.808615,0.56173 -4.464101,2.042583 -7.425397,1.713553 -2.005091,-0.22278 -10.220753,-5.140664 -4.569477,-5.140664 z"
         id="path2259"
         inkscape:label="cespuglio0" />
    </g>
  </g>
  <g
     id="g21306"
     inkscape:label="prato"
     style="display:inline"
     inkscape:export-filename="C:\Users\taal\eclipse-workspace\checkersjavafx\src\resources\forestaBox1.png"
     inkscape:export-xdpi="96"
     inkscape:export-ydpi="96">
    <use
       x="0"
       y="0"
       inkscape:tiled-clone-of="#use5573"
       xlink:href="#use5573"
       transform="translate(-2.3051721,-73.050797)"
       id="use5581"
       width="100%"
       height="100%" />
    <use
       x="0"
       y="0"
       inkscape:tiled-clone-of="#use5573"
       xlink:href="#use5573"
       transform="matrix(0.63473759,0,0,0.7576411,60.153399,-27.803542)"
       id="use5579"
       width="100%"
       height="100%" />
    <use
       x="0"
       y="0"
       inkscape:tiled-clone-of="#use5573"
       xlink:href="#use5573"
       transform="translate(6.1730875,-31.07138)"
       id="use5577"
       width="100%"
       height="100%" />
    <use
       x="0"
       y="0"
       inkscape:tiled-clone-of="#use5573"
       xlink:href="#use5573"
       id="use5575"
       width="100%"
       height="100%"
       transform="matrix(0.84298086,0,0,1.002159,47.751358,-12.415396)" />
    <use
       x="0"
       y="0"
       xlink:href="#g5571"
       id="use5573"
       width="100%"
       height="100%"
       transform="translate(64.787132,-5.9498392)"
       inkscape:tile-cx="-29.500106"
       inkscape:tile-cy="121.46558"
       inkscape:tile-w="57.077263"
       inkscape:tile-h="18.920448"
       inkscape:tile-x0="-58.071267"
       inkscape:tile-y0="112.00751" />
  </g>
  <g
     id="g2529"
     inkscape:label="pino"
     style="display:none">
    <path
       id="path2910-4"
       style="opacity:0.449827;fill:#000000;stroke-width:0.221417;stroke-miterlimit:3;paint-order:fill markers stroke;stop-color:#000000"
       d="m 85.920016,17.407455 c -0.155336,0.327406 -1.420223,2.891172 -1.847204,3.766032 l -8.45e-4,-0.251854 -1.65471,1.550088 c -2.810375,2.630623 -3.710769,2.909321 -6.787312,2.102172 -1.800635,-0.472409 -14.007894,0.184949 -17.59718,0.948024 -3.172016,0.674364 -6.210124,1.703657 -6.10789,2.068091 0.03752,0.133736 0.579134,0.350318 1.202843,0.483096 1.405834,0.299277 12.202443,5.757673 14.983398,7.574667 1.975862,1.290967 2.582941,1.985273 2.293014,2.625591 -0.366573,0.809375 -0.966078,0.781557 -3.768516,-0.177273 -3.469553,-1.187077 -5.385128,-1.566995 -8.017277,-1.59026 -3.575126,-0.03159 -8.319014,0.956211 -12.441162,2.589923 -2.286914,0.906358 -5.168495,2.560223 -5.06735,2.908731 0.02993,0.103153 1.138313,0.137176 2.462214,0.0757 2.285604,-0.106123 2.517156,-0.05549 4.575094,0.98946 4.100592,2.082142 13.097817,7.861955 14.88805,9.564969 0.904256,0.860201 0.94256,1.167538 0.231917,1.855974 -0.576167,0.558168 -1.523224,0.436849 -3.212252,-0.413339 -1.311932,-0.660423 -3.621372,-0.734668 -8.830853,-0.284794 -5.527225,0.477313 -9.215468,1.147932 -12.479672,2.269864 -2.464254,0.846981 -5.873399,2.636367 -6.127954,3.216711 -0.08691,0.19813 0.850493,0.01932 2.083728,-0.397339 3.853916,-1.3021 3.699843,-1.335935 12.178733,2.715369 4.786735,2.287155 7.428555,3.665501 7.539522,3.936335 0.257095,0.6275 -0.03514,1.066362 -1.104593,1.652649 -1.2626,0.692162 -4.231225,0.784238 -8.640482,0.267538 -5.310086,-0.62227 -8.018186,-0.06407 -10.605653,2.188317 -1.62062,1.410745 -2.619713,2.831189 -4.260172,6.058484 l -1.230896,2.423268 2.044585,-0.957338 c 2.503819,-1.170035 4.50019,-1.294286 10.283096,-0.641387 4.892307,0.552345 7.063909,1.0479 8.124029,1.854623 0.420905,0.320302 2.752283,1.46136 5.182255,2.535132 0.08388,0.03706 0.230982,0.10714 0.319161,0.146343 -2.326735,4.705239 -11.819558,15.214332 -11.819558,15.214332 l 7.554552,4.018606 c 0,0 7.863244,-9.150438 10.618116,-16.295769 0.992147,0.469437 2.049775,0.963846 2.873434,1.364755 l 5.128259,2.49593 2.094978,0.992982 c -0.206945,0.783481 -1.56451,-0.842137 0.918843,1.731268 4.478684,4.641077 3.139898,3.906451 4.023509,6.691655 l 0.779245,2.45602 0.670551,-1.32899 c 0.368382,-0.73101 0.92464,-2.21803 1.236584,-3.306168 1.764635,-6.155212 2.427991,-5.46991 -2.943129,-11.267158 -4.617711,-4.984066 -5.832153,-7.070937 -5.000068,-8.59806 l 0.44078,-0.809294 6.781434,3.567116 c 8.718235,4.584537 9.107567,4.932488 10.714246,9.604181 1.167451,3.394584 1.12209,0.622133 -0.05633,-3.438246 -1.39132,-4.79396 -3.127973,-8.217641 -7.771099,-15.327761 -2.738358,-4.193307 -3.98598,-5.58524 -5.877046,-6.552901 -1.404605,-0.71874 -1.563193,-0.921535 -1.598322,-2.041089 -0.0206,-0.656564 0.06281,-0.766362 0.668952,-0.880024 1.376169,-0.258052 10.360361,3.020495 16.157605,5.896478 l 3.253113,1.6145 1.524914,2.166834 c 0.839137,1.191433 1.557516,2.096643 1.594752,2.011779 0.201885,-0.460288 -0.55588,-4.00623 -1.413614,-6.619852 C 93.369492,59.196621 90.456606,53.98179 87.516985,50.873178 86.155951,49.4339 84.581546,48.171583 82.194149,46.610943 c -0.837466,-0.547451 -1.634479,-1.126204 -1.769991,-1.28763 -0.324007,-0.38597 0.169501,-1.483465 0.751915,-1.672633 1.442639,-0.468565 15.860832,6.693421 18.496431,9.187584 0.777426,0.7357 -0.669829,-3.482507 -2.297733,-6.697569 -1.959527,-3.869952 -9.021954,-13.955264 -10.712566,-15.297199 -2.036386,-1.616389 -2.478367,-2.318302 -2.564289,-5.436453 1.067777,-2.640662 2.995562,-7.40375 2.995562,-7.40375 z"
       sodipodi:nodetypes="ccccssssscsssssssscssscssssscccssscccccccsccccscccssssssccccsssssscsccc" />
    <path
       style="opacity:1;fill:#552200;fill-opacity:1;stroke:none;stroke-width:1.12873px;stroke-linecap:butt;stroke-linejoin:miter;stroke-opacity:1"
       d="M 45.150149,2.6410917 C 44.958445,8.8131371 40.54925,100.30463 40.54925,100.30463 l 9.968614,0.18154 c 0,0 -2.683857,-55.548414 -2.683857,-58.089844 0,-2.541431 -1.150225,-39.7552343 -1.150225,-39.7552343 z"
       id="path1040" />
    <path
       style="fill:#5aa02c;fill-opacity:1;stroke-width:0.246294;stroke-miterlimit:3;paint-order:fill markers stroke;stop-color:#000000"
       d="M 73.380241,97.306884 C 71.336941,94.870685 69.557981,93.82786 63.235369,91.359967 59.729577,89.991561 59.52028,89.859552 59.387597,88.9331 l -0.14031,-0.979747 -6.038779,0.112366 c -3.32133,0.06181 -8.342421,0.248936 -11.157978,0.415842 -2.815559,0.166911 -5.565005,0.212547 -6.109876,0.101416 -1.372346,-0.279874 -3.690046,0.352559 -8.673474,2.366738 -5.890614,2.380841 -7.775092,3.5676 -9.707101,6.113099 l -1.578539,2.07979 0.163889,-3.178735 c 0.218263,-4.233414 0.582678,-6.241976 1.555018,-8.570872 1.552428,-3.718287 3.943448,-5.735326 9.362124,-7.897783 4.499425,-1.795609 7.341032,-3.462695 8.271799,-4.852821 0.788392,-1.177483 0.88637,-1.788896 0.369707,-2.307042 -0.222997,-0.223637 -3.374521,-0.263623 -8.994018,-0.114123 -9.953982,0.264816 -9.789956,0.219095 -12.976097,3.617062 -1.019551,1.087333 -1.853729,1.770303 -1.853729,1.517715 0,-0.739861 2.546706,-4.410564 4.577847,-6.598288 2.690489,-2.897909 5.984836,-5.550315 11.14615,-8.974204 4.864606,-3.227058 7.13763,-4.371894 8.692092,-4.37788 2.001244,-0.0077 2.973159,-0.382064 3.294747,-1.269069 0.396643,-1.094025 0.228825,-1.393569 -1.015011,-1.811721 -2.462529,-0.827856 -13.656748,-2.092342 -18.523022,-2.092342 -2.442206,0 -2.687524,0.07021 -4.860666,1.390897 -1.258759,0.764993 -2.348354,1.31587 -2.421319,1.22417 -0.246532,-0.309821 1.845609,-3.559746 3.679351,-5.715494 3.305307,-3.885725 7.489516,-7.426999 10.972846,-9.286794 2.564567,-1.369254 4.585031,-1.987066 8.457803,-2.586214 3.128127,-0.483945 3.721028,-0.771373 3.732247,-1.809334 0.0088,-0.821118 -0.876065,-1.224663 -3.343343,-1.524624 -3.472607,-0.422184 -16.274422,-0.396261 -17.766276,0.03598 -0.661873,0.191763 -1.279783,0.250824 -1.373131,0.131246 -0.254367,-0.32585 2.256624,-3.006187 5.048176,-5.388637 3.158774,-2.695853 14.725573,-9.844471 16.674311,-10.305208 3.329591,-0.787212 4.085395,-1.555345 5.693146,-5.786017 l 0.946593,-2.49089 1.280698,3.114578 c 1.896904,4.613165 2.411104,5.165339 5.45631,5.859303 2.212125,0.504116 13.360743,7.280051 16.91006,10.27764 2.948688,2.490323 6.148318,6.121795 5.08059,5.766298 -3.619797,-1.205195 -20.662672,-1.038628 -21.863369,0.213679 -0.484739,0.505576 -0.49608,1.909722 -0.01729,2.140618 0.200244,0.09657 1.219794,0.279838 2.265667,0.407265 2.981501,0.363259 5.048487,0.844075 6.982175,1.624173 4.17646,1.684887 9.223603,5.580546 13.112593,10.121013 1.945135,2.27098 4.18887,5.567466 4.18887,6.154268 0,0.108192 -1.08134,-0.456202 -2.40298,-1.254192 l -2.402967,-1.450894 -3.84477,0.03959 c -6.850928,0.07055 -16.967045,1.408437 -18.192848,2.406065 -0.539912,0.439413 -0.574129,0.597827 -0.274626,1.271484 0.510703,1.148702 0.751405,1.276172 2.420639,1.281943 2.247342,0.0077 4.051711,0.798034 8.494608,3.720426 7.533316,4.95517 10.675045,7.605837 14.066255,11.867641 2.872285,3.609661 4.097003,6.476548 1.518795,3.555272 -3.548179,-4.020312 -4.073262,-4.177697 -14.486545,-4.342141 l -8.10148,-0.127946 -0.08331,1.075487 c -0.157475,2.032767 1.909426,3.566944 8.512984,6.31885 7.680973,3.200897 10.037891,6.096835 10.945564,13.448772 0.160466,1.299683 0.253833,3.14623 0.207495,4.10345 l -0.08426,1.74039 z"
       id="path2910-5-7" />
    <path
       style="opacity:1;fill:#5aa02c;stroke-width:0.252544;stroke-miterlimit:3;paint-order:fill markers stroke;stop-color:#000000"
       d="M 76.176877,91.091453 C 73.924385,88.767937 71.963294,87.773345 64.993371,85.419597 61.128655,84.114482 60.89793,83.98858 60.751663,83.104977 l -0.154675,-0.934431 -6.657031,0.107168 c -3.661369,0.05895 -9.19652,0.237423 -12.300335,0.396609 -3.103817,0.159191 -6.134751,0.202717 -6.735406,0.09673 -1.512847,-0.26693 -4.067834,0.336252 -9.561467,2.257272 -6.493697,2.270721 -8.571108,3.40259 -10.700917,5.830356 l -1.74015,1.983596 0.180668,-3.031713 c 0.240609,-4.037611 0.642333,-5.953273 1.714221,-8.174453 1.711367,-3.546308 4.34718,-5.470055 10.320621,-7.532494 4.960077,-1.712558 8.092608,-3.302538 9.118668,-4.628368 0.869107,-1.123022 0.977116,-1.706156 0.407558,-2.200337 -0.245828,-0.213294 -3.720006,-0.251429 -9.914828,-0.108845 -10.973073,0.252567 -10.792255,0.208961 -14.304593,3.449765 -1.1239339,1.037042 -2.0435154,1.688423 -2.0435154,1.447518 0,-0.705641 2.8074394,-4.206566 5.0465284,-6.293104 2.965942,-2.763875 6.597566,-5.293602 12.287297,-8.559129 5.362645,-3.0778 7.868382,-4.169685 9.58199,-4.175394 2.206131,-0.0074 3.277552,-0.364393 3.632064,-1.210373 0.437252,-1.043423 0.252253,-1.329113 -1.118928,-1.727924 -2.714643,-0.789566 -15.054929,-1.995567 -20.419414,-1.995567 -2.692239,0 -2.962674,0.06696 -5.358303,1.326565 -1.387631,0.72961 -2.5887784,1.255008 -2.6692143,1.16755 -0.2717709,-0.295492 2.0345643,-3.395102 4.0560453,-5.451141 3.643705,-3.706003 8.256293,-7.083485 12.096249,-8.857261 2.827127,-1.305923 5.054447,-1.895161 9.323714,-2.466597 3.448385,-0.461561 4.101988,-0.735695 4.114356,-1.725649 0.0097,-0.783139 -0.965756,-1.16802 -3.685635,-1.454106 -3.828134,-0.402658 -17.940602,-0.377934 -19.585193,0.03431 -0.729636,0.182893 -1.410808,0.239222 -1.513712,0.125175 -0.280409,-0.310779 2.487657,-2.867145 5.56501,-5.139401 3.48217,-2.571165 16.233181,-9.389145 18.381431,-9.828572 3.670475,-0.750801 4.503659,-1.483406 6.276012,-5.518401 L 45.434285,7.9386489 46.8461,10.909172 c 2.09111,4.399796 2.657954,4.926432 6.014929,5.588298 2.438602,0.4808 14.728619,6.943334 18.641317,9.802278 3.250575,2.375141 6.777783,5.83865 5.600742,5.499596 -3.990393,-1.149453 -22.778122,-0.99059 -24.101747,0.203795 -0.534366,0.482192 -0.546869,1.821394 -0.01907,2.041611 0.220745,0.0921 1.344678,0.266894 2.497627,0.388427 3.286748,0.346458 5.565353,0.805035 7.697012,1.549052 4.604047,1.606958 10.167918,5.322435 14.455064,9.652896 2.144278,2.165943 4.617728,5.30996 4.617728,5.869621 0,0.103187 -1.192048,-0.435102 -2.648998,-1.196183 l -2.648984,-1.383787 -4.238398,0.03776 c -7.552329,0.06728 -18.704136,1.343294 -20.055437,2.294779 -0.595189,0.41909 -0.632908,0.570177 -0.302742,1.212676 0.562989,1.095572 0.828334,1.217146 2.668465,1.222651 2.477425,0.0074 4.466525,0.761123 9.364288,3.548348 8.304578,4.725984 11.767959,7.254051 15.506362,11.318739 3.166351,3.442707 4.516455,6.176995 1.674289,3.390833 -3.911443,-3.834364 -4.490284,-3.98447 -15.969681,-4.141308 l -8.930911,-0.122028 -0.09184,1.025743 c -0.173596,1.938748 2.104914,3.401966 9.384546,6.026591 8.467354,3.052849 11.065573,5.814844 12.066174,12.826739 0.176895,1.23957 0.27982,3.000715 0.228739,3.913657 l -0.09288,1.659896 z"
       id="path2910-5" />
    <path
       style="opacity:1;fill:#447821;stroke-width:0.254496;stroke-miterlimit:3;paint-order:fill markers stroke;stop-color:#000000"
       d="M 74.572604,90.685432 C 72.320112,88.325858 70.35902,87.315832 63.389098,84.925557 59.524382,83.600189 59.293657,83.472334 59.14739,82.575018 l -0.154675,-0.948932 -6.657031,0.108831 c -3.661369,0.05987 -9.19652,0.241108 -12.300336,0.402764 -3.103816,0.161662 -6.134751,0.205863 -6.735406,0.09823 -1.512847,-0.271073 -4.067833,0.341469 -9.561466,2.2923 -6.493697,2.305959 -8.571108,3.455393 -10.700917,5.920834 l -1.740151,2.014375 0.180668,-3.078757 c 0.24061,-4.100268 0.642334,-6.045658 1.714222,-8.301306 1.711366,-3.601342 4.34718,-5.554943 10.320621,-7.649388 4.960076,-1.739134 8.092608,-3.353788 9.118668,-4.700192 0.869106,-1.14045 0.977116,-1.732632 0.407557,-2.234483 -0.245828,-0.216604 -3.720005,-0.255331 -9.914827,-0.110534 -10.973073,0.256486 -10.792255,0.212205 -14.3045936,3.5033 -1.1239331,1.053135 -2.0435146,1.714624 -2.0435146,1.469981 0,-0.716592 2.8074394,-4.271845 5.0465282,-6.390763 2.965942,-2.806766 6.597566,-5.37575 12.287297,-8.691952 5.362645,-3.125564 7.868381,-4.234393 9.58199,-4.24019 2.206131,-0.0075 3.277552,-0.370048 3.632063,-1.229157 0.437253,-1.059615 0.252253,-1.349738 -1.118928,-1.754738 -2.714643,-0.801819 -15.054928,-2.026535 -20.419413,-2.026535 -2.692239,0 -2.962674,0.068 -5.358304,1.347152 -1.3876308,0.740931 -2.5887772,1.274484 -2.6692131,1.185667 -0.2717709,-0.300077 2.0345633,-3.447788 4.0560451,-5.535733 3.643704,-3.763515 8.256293,-7.19341 12.096248,-8.994712 2.827128,-1.326189 5.054447,-1.92457 9.323714,-2.504874 3.448386,-0.468724 4.101989,-0.747113 4.114357,-1.752428 0.0097,-0.795293 -0.965757,-1.186147 -3.685636,-1.476672 -3.828133,-0.408907 -17.940601,-0.383799 -19.585192,0.03484 -0.729636,0.185731 -1.410808,0.242935 -1.513713,0.127118 -0.280409,-0.315602 2.487658,-2.911639 5.565011,-5.219157 3.482169,-2.611065 16.233181,-9.534849 18.381431,-9.981095 3.670474,-0.762453 4.503659,-1.506427 6.276012,-5.6040385 l 1.043506,-2.4125459 1.411814,3.0166207 c 2.091111,4.4680747 2.657954,5.0028827 6.01493,5.6750197 2.438601,0.488261 14.728618,7.051084 18.641317,9.954394 3.250575,2.411999 6.777783,5.929256 5.600741,5.584941 -3.990392,-1.16729 -22.778122,-1.005963 -24.101746,0.206957 -0.534367,0.489675 -0.546869,1.849661 -0.01907,2.073294 0.220745,0.09353 1.344678,0.271036 2.497626,0.394455 3.286748,0.351834 5.565354,0.817528 7.697013,1.573091 4.604047,1.631895 10.167918,5.405031 14.455064,9.802694 2.144278,2.199554 4.617728,5.392361 4.617728,5.960707 0,0.104788 -1.192048,-0.441854 -2.648999,-1.214746 l -2.648983,-1.405261 -4.238398,0.03835 c -7.55233,0.06832 -18.704136,1.364139 -20.055437,2.330389 -0.59519,0.425594 -0.632908,0.579026 -0.302742,1.231495 0.562989,1.112574 0.828334,1.236034 2.668464,1.241625 2.477425,0.0075 4.466526,0.772934 9.364288,3.603412 8.304579,4.799324 11.76796,7.366623 15.506363,11.494389 3.166351,3.496132 4.516455,6.272851 1.674289,3.443454 -3.911444,-3.89387 -4.490284,-4.046305 -15.969682,-4.205577 l -8.930911,-0.123922 -0.09184,1.041661 c -0.173596,1.968835 2.104914,3.454759 9.384546,6.120114 8.467354,3.100225 11.065573,5.905081 12.066174,13.02579 0.176895,1.258806 0.27982,3.047281 0.228739,3.97439 l -0.09288,1.685652 z"
       id="path2910" />
  </g>
  <g
     id="g3163"
     inkscape:label="pino2"
     style="display:none">
    <path
       id="path2892-8"
       style="opacity:0.534602;fill:#000000;stroke:none;stroke-width:1.04878px;stroke-linecap:butt;stroke-linejoin:miter;stroke-opacity:1"
       d="m 92.755339,18.337506 c -0.602995,-0.470325 -2.892713,1.02597 -3.446764,1.129316 -1.834792,0.34224 -3.145381,1.30025 -4.386623,2.358235 -0.08158,0.03236 -0.209396,0.09903 -0.262311,0.108895 -2.692652,0.502254 -4.268106,2.317627 -6.13525,3.849652 -9.819845,3.877567 -20.894743,6.966299 -29.437102,12.030407 -3.304059,1.580498 -6.379215,3.342984 -9.03382,5.429064 -0.01754,0.01379 2.699814,-0.526396 2.962766,-0.553248 0.268808,-0.02745 0.236172,-0.02002 0.484489,-0.04505 -0.365697,0.265582 -0.737849,0.525287 -1.08953,0.80165 -0.01754,0.01379 2.700542,-0.523731 2.963494,-0.550583 4.758223,-0.485921 6.231152,-0.583772 6.468199,-0.556106 0.160131,-0.02775 0.01327,-0.0091 0.237873,-0.04638 3.718626,-0.6167 7.543122,-1.122943 11.253388,-1.764781 -1.203499,0.521649 -2.396566,1.053755 -3.511203,1.648015 -1.113315,0.593554 -2.212725,1.198221 -3.3166,1.799576 -0.452743,0.21598 -0.896817,0.437234 -1.330638,0.668523 -3.632902,1.936848 -7.20676,3.922118 -10.78171,5.906642 -0.268347,0.148963 -5.068676,2.922269 -4.217864,3.709455 0.338736,0.313403 1.295249,0.230165 2.269228,0.04715 0.01349,0.0575 0.03862,0.112653 0.08753,0.157909 0.06882,0.06367 0.170721,0.104357 0.285439,0.138198 -1.159425,0.328123 -2.319852,0.659077 -3.476635,0.972833 -2.067984,0.560904 -8.920042,1.302038 -6.358011,1.509569 1.340033,0.108547 2.695769,0.203272 4.04484,0.30504 -0.778939,0.217426 -1.558462,0.441692 -2.335762,0.652521 -2.067985,0.560902 -8.920038,1.302032 -6.358009,1.509565 0.700824,0.05677 1.411498,0.104463 2.115206,0.159381 0.08649,0.01462 0.09993,0.0342 0.241551,0.04567 2.983228,0.24165 5.995144,0.462984 9.003978,0.670939 -1.984803,0.474908 -3.958357,0.969478 -5.72468,1.668677 -1.015133,0.40184 -1.251377,0.979156 -1.334171,1.399651 -1.149259,0.311724 -2.268378,0.653268 -3.314763,1.067479 -1.497135,0.592643 -1.336541,1.609826 -1.420202,1.849802 0.27728,-0.03784 1.278295,-0.02041 2.400027,0.0071 -0.0094,0.08106 -0.02895,0.15687 -0.04327,0.197945 0.427463,-0.05896 2.273229,-0.01326 4.269534,0.05323 2.031009,0.06765 4.103703,0.198109 6.183486,0.340617 -5.383813,0.244262 -11.351302,0.936113 -13.814348,3.662843 -2.813362,0.781328 -4.989278,2.048548 -5.620312,4.157074 -0.06185,0.206672 0.628281,-3.12e-4 0.935827,-0.01231 1.025648,-0.04001 1.323855,-0.03598 1.51045,-0.02615 -0.0087,0.02349 -0.01838,0.04652 -0.02662,0.07027 -0.283918,0.0435 -0.421511,0.07247 -0.02274,0.06349 -0.01227,0.03723 -0.02886,0.072 -0.04016,0.10976 -0.06185,0.206682 0.628279,-3.02e-4 0.935825,-0.0123 4.806669,-0.187528 -2.210057,0.33894 3.416291,0.01148 2.840415,-0.165321 6.312157,-0.152474 9.359963,-0.122129 3.044789,0.03031 5.854683,-0.05259 8.979732,0.110615 3.029043,0.158193 6.064273,0.32228 9.058117,0.402738 l -13.721248,20.330934 7.94461,4.323441 13.620752,-23.350119 c 0.331546,0.479154 0.612922,0.901689 0.685337,1.025388 2.53373,4.328018 4.292515,8.957596 7.444322,13.548513 1.314171,1.91421 2.657053,5.998578 4.854273,5.588735 0.17955,-0.0335 0.116379,-0.544856 -0.03909,-1.211989 0.688213,0.936825 1.462616,1.591111 2.39584,1.417039 0.566369,-0.105637 -1.148751,-4.769593 -1.263577,-5.122377 -0.190557,-0.585451 -0.349949,-1.175027 -0.494063,-1.766296 1.08586,2.011445 2.29421,4.54396 4.049822,4.216492 0.56636,-0.105643 -1.14876,-4.769599 -1.263586,-5.122383 -1.424307,-4.375966 -1.451742,-8.938745 -1.575338,-13.310951 2.805714,4.018739 5.943389,8.408928 6.57515,8.460106 0.03182,0.0026 -0.113078,-1.327844 -0.250808,-2.736157 1.267153,1.682782 2.286094,2.913397 2.608535,2.939516 0.0481,0.0039 -0.342743,-3.089064 -0.431525,-4.791366 -0.01955,-0.374803 -0.0573,-0.74785 -0.109782,-1.119653 1.370013,1.835422 2.491174,3.210277 2.831786,3.237866 0.04811,0.0039 -0.34104,-3.088092 -0.429831,-4.790399 -0.256568,-4.919333 -3.556072,-9.557933 -4.272927,-14.522413 2.315429,2.79106 5.072931,6.12691 6.804612,7.534098 0.534156,0.434061 -0.101536,-0.944622 -0.196166,-1.425337 -0.08262,-0.419695 -0.192261,-0.847025 -0.318927,-1.277265 1.081645,1.215009 2.090841,2.270515 2.872819,2.90596 0.534157,0.434061 -0.101535,-0.944622 -0.196174,-1.425342 -0.300004,-1.523959 -0.906881,-3.132313 -1.69533,-4.71664 -0.340463,-0.684133 -0.646503,-1.383688 -0.960555,-2.079799 1.878606,2.23927 3.82706,4.479242 5.144232,5.549595 0.534157,0.434061 -0.101536,-0.944621 -0.196166,-1.425337 -0.300003,-1.523959 -0.906881,-3.132312 -1.695339,-4.716645 -1.512095,-3.038443 -2.771616,-6.221549 -3.678161,-9.296033 2.819227,2.617384 5.839791,5.410879 5.652542,3.102817 2.0374,1.598158 3.26804,1.855169 1.608638,-2.459645 -0.144567,-0.375903 -0.28936,-0.751107 -0.433926,-1.127012 2.662117,2.331878 4.676225,3.525603 2.726099,-1.545174 C 99.514242,49.059686 99.04835,47.849648 98.582262,46.637714 95.692044,39.122466 94.483622,31.88745 93.555366,24.744786 l 0.155685,-0.268711 -0.206934,-0.102378 c -0.06808,-0.529297 -0.14855,-1.062441 -0.214173,-1.590791 -0.18426,-1.483498 1.178549,-3.109177 -0.534563,-4.445378 z M 30.258426,66.620227 c -0.09511,0.01311 -0.143952,0.02755 -0.08161,0.05237 0.04533,0.01804 0.06599,-0.0075 0.08161,-0.05237 z M 27.90167,66.415173 c -0.09623,0.01313 -0.145207,0.02913 -0.08258,0.05406 0.04533,0.01804 0.06696,-0.0092 0.08258,-0.05406 z m 23.941217,-24.07543 c -2.003586,0.347172 0.372949,0.04353 0,0 z" />
    <path
       style="fill:#803300;stroke:none;stroke-width:1.04878px;stroke-linecap:butt;stroke-linejoin:miter;stroke-opacity:1"
       d="M 40.682551,99.470296 47.25959,11.943043 50.54811,11.760315 49.725981,99.287567 Z"
       id="path2892" />
    <path
       style="fill:#2d5016;fill-opacity:1;stroke:none;stroke-width:1.39877px;stroke-linecap:butt;stroke-linejoin:miter;stroke-opacity:1"
       d="m 48.844459,71.35046 c -4.425956,2.844226 -9.43907,5.309755 -14.389891,7.802836 -2.794936,1.407445 -5.194466,2.872185 -7.853819,4.355255 -2.661989,1.48454 -5.683832,3.19495 -8.068709,4.74661 -4.724014,3.07355 1.109467,-0.86354 -2.972045,1.68214 -0.261149,0.16288 -0.758133,0.68481 -0.806869,0.47466 -1.264904,-5.45424 8.780681,-11.148024 14.624909,-14.697174 2.758023,-1.674923 4.100666,-4.219004 7.192873,-5.887282 1.339944,-0.722913 4.817751,-2.618846 5.903537,-3.539132 0.134634,-0.114111 0.581657,-0.127831 0.551433,-0.258156 -0.214935,-0.926798 -5.198881,2.799464 -5.433209,2.931268 -5.51647,3.102943 -11.831803,5.783027 -17.524133,8.785563 -2.159812,1.139234 -4.143942,2.208166 -3.778918,2.1568 0.306967,-0.04319 -0.833584,-0.906442 0.360815,-2.398048 1.335238,-1.667492 3.013401,-3.246445 4.691162,-4.813007 5.182871,-4.839361 12.524314,-7.977481 18.906709,-12.049629 2.013492,-1.284663 3.775579,-2.75834 5.781887,-4.063692 0.300466,-0.195493 -0.462679,0.45578 -0.766321,0.649514 -1.489264,0.950192 -2.913573,1.945661 -4.545235,2.806315 -4.12611,2.176399 -8.31844,4.368757 -12.561259,6.462156 -4.885953,2.410719 -9.896937,4.827159 -14.848081,7.145071 -2.327941,1.089843 3.254323,-2.951001 4.77226,-4.463297 4.750274,-4.732619 9.460066,-9.71432 13.736937,-14.57222 2.479053,-2.815839 4.358977,-5.192013 7.338799,-7.893972 0.908182,-0.823495 2.460177,-3.58966 2.13676,-2.647957 -2.075547,6.043415 -10.010803,11.358917 -16.412991,16.212707 -0.199436,0.151199 -2.908993,3.130651 -3.912703,2.897866 -1.129143,-0.261878 1.665284,-5.050013 1.824491,-5.312412 2.120967,-3.495726 4.239617,-6.99207 6.434548,-10.47512 1.957208,-3.105822 4.706312,-6.084125 6.422413,-9.209498 0.679496,-1.237504 2.253894,-2.207354 3.199068,-3.339123 0.477181,-0.571387 0.63008,-1.212561 1.115,-1.781938 0.199825,-0.23463 1.184916,-0.708418 0.76632,-0.649514 -1.479955,0.208258 -1.411115,1.660318 -2.17731,2.473104 -4.343962,4.608098 -10.082812,8.723724 -15.326407,12.99029 -3.790972,3.084609 4.976941,-3.658352 -5.526444,3.847188 -0.215056,0.153674 -2.307362,1.969211 -2.298963,1.948545 4.474995,-11.00927 15.306916,-21.146526 23.27318,-31.442278 2.25644,-2.916265 1.916767,-6.645958 4.901909,-9.176093 0.429948,-0.364414 1.675908,-2.799151 2.432749,-2.689609 2.150193,0.311214 1.772616,2.399827 2.668058,3.596867 4.694982,6.276336 9.616022,12.53254 16.421846,18.092379 1.005577,0.821481 2.011157,1.642962 3.016734,2.464441 6.76082,5.523076 -3.377113,2.071928 -7.951198,1.299444 -1.091348,-0.18431 -5.679164,-2.653814 -4.468275,-0.815707 0.772191,1.172169 1.649383,2.316212 2.627507,3.422013 2.765965,3.127008 6.397759,6.225215 10.303133,8.842055 1.470153,0.985091 2.795449,2.080608 3.811473,3.255408 0.320493,0.370579 1.554913,1.252845 0.875832,1.140671 -3.801963,-0.628033 -13.440548,-4.866481 -14.901055,-4.944969 -0.195748,-0.01052 0.05406,0.233139 0.0811,0.349707 0.243303,1.049121 0.302029,2.130167 0.72991,3.147361 2.423979,5.762484 9.320701,8.205551 12.541413,13.221639 0.920993,1.434396 2.792895,3.926097 2.749159,3.946573 -1.045347,0.489386 -16.770938,-7.544564 -16.989268,-7.359513 -0.33749,0.286045 1.250454,3.078149 1.820637,3.896675 3.251996,4.668429 5.809937,10.418994 10.416788,14.603971 0.274611,0.249461 4.076633,3.449109 3.63713,3.821619 -1.705059,1.44517 -4.896009,-1.43656 -6.986266,-2.447535 -5.013128,-2.42465 -8.835915,-5.573107 -13.181939,-8.075835 -0.378919,-0.218206 -3.508427,-1.838474 -3.997944,-1.42357 -0.32423,0.274809 -0.216722,0.643399 -0.389229,0.957569 z"
       id="path2724-1"
       inkscape:transform-center-x="-7.6025717" />
    <path
       style="fill:#5aa02c;fill-opacity:1;stroke:none;stroke-width:1.39877px;stroke-linecap:butt;stroke-linejoin:miter;stroke-opacity:1"
       d="m 46.695907,72.342104 c -4.425956,2.84423 -9.43907,5.30975 -14.389891,7.80283 -2.794936,1.40745 -5.194466,2.87219 -7.853819,4.35526 -2.661989,1.48454 -5.683832,3.19495 -8.068709,4.74661 -4.724014,3.07355 1.109467,-0.86354 -2.972045,1.68214 -0.261149,0.16288 -0.758133,0.68481 -0.806869,0.47466 -1.264904,-5.45424 8.780681,-11.14802 14.624909,-14.69717 2.758023,-1.67493 4.100666,-4.21901 7.192873,-5.88729 1.339944,-0.72291 4.817751,-2.61884 5.903537,-3.53913 0.134634,-0.11411 0.581657,-0.12783 0.551433,-0.258153 -0.214935,-0.926802 -5.198881,2.799463 -5.433209,2.931263 -5.51647,3.10295 -11.831803,5.78303 -17.524133,8.78557 -2.159812,1.13923 -4.143942,2.20816 -3.778918,2.1568 0.306967,-0.0432 -0.833584,-0.90644 0.360815,-2.39805 1.335238,-1.66749 3.013401,-3.24645 4.691162,-4.81301 5.182871,-4.83936 12.524314,-7.977482 18.906709,-12.04963 2.013492,-1.284663 3.775579,-2.75834 5.781887,-4.063692 0.300466,-0.195493 -0.462679,0.45578 -0.766321,0.649514 -1.489264,0.950192 -2.913573,1.945661 -4.545235,2.806315 -4.12611,2.176399 -8.31844,4.368757 -12.561259,6.462163 -4.885953,2.41072 -9.896937,4.82716 -14.848081,7.14507 -2.3279414,1.08984 3.254323,-2.951 4.77226,-4.4633 4.750274,-4.732622 9.460066,-9.714323 13.736937,-14.572223 2.479053,-2.815839 4.358977,-5.192013 7.338799,-7.893972 0.908182,-0.823495 2.460177,-3.58966 2.13676,-2.647957 -2.075547,6.043415 -10.010803,11.358917 -16.412991,16.212707 -0.199436,0.151199 -2.908993,3.130651 -3.912703,2.897866 -1.129143,-0.261878 1.665284,-5.050013 1.824491,-5.312412 2.120967,-3.495726 4.239617,-6.99207 6.434548,-10.47512 1.957208,-3.105822 4.706312,-6.084125 6.422413,-9.209498 0.679496,-1.237504 2.253894,-2.207354 3.199068,-3.339123 0.477181,-0.571387 0.63008,-1.212561 1.115,-1.781938 0.199825,-0.23463 1.184916,-0.708418 0.76632,-0.649514 -1.479955,0.208258 -1.411115,1.660318 -2.17731,2.473104 -4.343962,4.608098 -10.082812,8.723724 -15.326407,12.99029 -3.790972,3.084609 4.976941,-3.658352 -5.526444,3.847188 -0.215056,0.153674 -2.307362,1.969211 -2.298963,1.948545 4.474995,-11.00927 15.306916,-21.146526 23.27318,-31.442278 2.25644,-2.916265 1.916767,-6.645958 4.901909,-9.176093 0.429948,-0.364414 1.675908,-2.799151 2.432749,-2.689609 2.150193,0.311214 1.772616,2.399827 2.668058,3.596867 4.694982,6.276336 9.616022,12.53254 16.421846,18.092379 1.005577,0.821481 2.011157,1.642962 3.016734,2.464441 6.76082,5.523076 -3.377113,2.071928 -7.951198,1.299444 -1.091348,-0.18431 -5.679164,-2.653814 -4.468275,-0.815707 0.772191,1.172169 1.649383,2.316212 2.627507,3.422013 2.765965,3.127008 6.397759,6.225215 10.303133,8.842055 1.470153,0.985091 2.795453,2.080608 3.811473,3.255408 0.32049,0.370579 1.55491,1.252845 0.87583,1.140671 -3.801961,-0.628033 -13.440546,-4.866481 -14.901053,-4.944969 -0.195748,-0.01052 0.05406,0.233139 0.0811,0.349707 0.243303,1.049121 0.302029,2.130167 0.72991,3.147361 2.423979,5.762484 9.320701,8.205551 12.541413,13.221639 0.92099,1.434396 2.7929,3.926098 2.74916,3.946578 -1.04535,0.48938 -16.770939,-7.544569 -16.989269,-7.359518 -0.33749,0.286045 1.250454,3.078149 1.820637,3.896675 3.251996,4.668433 5.809937,10.418993 10.416788,14.603973 0.274611,0.24946 4.076634,3.44911 3.637134,3.82162 -1.70506,1.44517 -4.896013,-1.43656 -6.98627,-2.44753 -5.013128,-2.42465 -8.835915,-5.57311 -13.181939,-8.07584 -0.378919,-0.21821 -3.508427,-1.83847 -3.997944,-1.42357 -0.32423,0.27481 -0.216722,0.6434 -0.389229,0.95757 z"
       id="path2724-1-3"
       inkscape:transform-center-x="-7.6025717" />
    <path
       style="fill:#447821;fill-opacity:1;stroke:none;stroke-width:1.39877px;stroke-linecap:butt;stroke-linejoin:miter;stroke-opacity:1"
       d="m 49.510218,67.893653 c -4.425956,2.844226 -9.43907,5.309755 -14.389891,7.802836 -2.794936,1.407444 -5.194466,2.87218 -7.853819,4.355252 -2.661989,1.484546 -5.683832,3.194953 -8.068709,4.746613 -4.724014,3.07355 1.109467,-0.863539 -2.972045,1.68214 -0.261149,0.16288 -0.758133,0.68481 -0.806869,0.47466 -1.264904,-5.454242 8.780681,-11.148024 14.624909,-14.697174 2.758023,-1.674923 4.100666,-4.219004 7.192873,-5.887282 1.339944,-0.722913 4.817751,-2.618846 5.903537,-3.539132 0.134634,-0.114111 0.581657,-0.127831 0.551433,-0.258156 -0.214935,-0.926798 -5.198881,2.799464 -5.433209,2.931268 -5.51647,3.102943 -11.831803,5.783027 -17.524133,8.785563 -2.159812,1.139234 -4.143942,2.208166 -3.778918,2.1568 0.306967,-0.04319 -0.833584,-0.906442 0.360815,-2.398048 1.335238,-1.667492 3.013401,-3.246445 4.691162,-4.813007 5.182871,-4.839361 12.524314,-7.977481 18.906709,-12.049629 2.013492,-1.284663 3.775579,-2.75834 5.781887,-4.063692 0.300466,-0.195493 -0.462679,0.45578 -0.766321,0.649514 -1.489264,0.950192 -2.913573,1.945661 -4.545235,2.806315 -4.12611,2.176399 -8.31844,4.368757 -12.561259,6.462156 -4.885953,2.410719 -9.896937,4.827159 -14.848081,7.145071 -2.327942,1.089843 3.254323,-2.951001 4.77226,-4.463297 4.750274,-4.732619 9.460066,-9.71432 13.736937,-14.57222 2.479053,-2.815839 4.358977,-5.192013 7.338799,-7.893972 0.908182,-0.823495 2.460177,-3.58966 2.13676,-2.647957 -2.075547,6.043415 -10.010803,11.358917 -16.412991,16.212707 -0.199436,0.151199 -2.908993,3.130651 -3.912703,2.897866 -1.129143,-0.261878 1.665284,-5.050013 1.824491,-5.312412 2.120967,-3.495726 4.239617,-6.99207 6.434548,-10.47512 1.957208,-3.105822 4.706312,-6.084125 6.422413,-9.209498 0.679496,-1.237504 2.253894,-2.207354 3.199068,-3.339123 0.477181,-0.571387 0.63008,-1.212561 1.115,-1.781938 0.199825,-0.23463 1.184916,-0.708418 0.76632,-0.649514 -1.479955,0.208258 -1.411115,1.660318 -2.17731,2.473104 -4.343962,4.608098 -10.082812,8.723724 -15.326407,12.99029 -3.790972,3.084609 4.976941,-3.658352 -5.526444,3.847188 -0.215056,0.153674 -2.307362,1.969211 -2.298963,1.948545 4.474995,-11.00927 15.306916,-21.146526 23.27318,-31.442278 2.25644,-2.916265 1.916767,-6.645958 4.901909,-9.1760928 0.429948,-0.364414 1.675908,-2.7991508 2.432749,-2.6896088 2.150193,0.311214 1.772616,2.3998268 2.668058,3.5968666 4.694982,6.276336 9.616022,12.53254 16.421846,18.092379 1.005577,0.821481 2.011157,1.642962 3.016734,2.464441 6.76082,5.523076 -3.377113,2.071928 -7.951198,1.299444 -1.091348,-0.18431 -5.679164,-2.653814 -4.468275,-0.815707 0.772191,1.172169 1.649383,2.316212 2.627507,3.422013 2.765965,3.127008 6.397759,6.225215 10.303133,8.842055 1.470153,0.985091 2.795449,2.080608 3.811473,3.255408 0.320493,0.370579 1.554913,1.252845 0.875832,1.140671 -3.801963,-0.628033 -13.440548,-4.866481 -14.901055,-4.944969 -0.195748,-0.01052 0.05406,0.233139 0.0811,0.349707 0.243303,1.049121 0.302029,2.130167 0.72991,3.147361 2.423979,5.762484 9.320701,8.205551 12.541413,13.221639 0.920993,1.434396 2.792895,3.926097 2.749159,3.946573 -1.045347,0.489386 -16.770938,-7.544564 -16.989268,-7.359513 -0.33749,0.286045 1.250454,3.078149 1.820637,3.896675 3.251996,4.668429 5.809937,10.418994 10.416788,14.603971 0.274611,0.249461 4.076633,3.449107 3.63713,3.821618 -1.705059,1.44517 -4.896009,-1.43656 -6.986266,-2.447534 -5.013128,-2.42465 -8.835915,-5.573107 -13.181939,-8.075835 -0.378919,-0.218206 -3.508427,-1.838474 -3.997944,-1.42357 -0.32423,0.274809 -0.216722,0.643399 -0.389229,0.957569 z"
       id="path2724" />
  </g>
</svg>
