<?xml version="1.0" encoding="UTF-8" standalone="no"?>
<!-- Created with Inkscape (http://www.inkscape.org/) -->

<svg
   width="100"
   height="100"
   viewBox="0 0 26.458333 26.458334"
   version="1.1"
   id="svg5"
   inkscape:version="1.1 (c68e22c387, 2021-05-23)"
   sodipodi:docname="pedina.svg"
   xmlns:inkscape="http://www.inkscape.org/namespaces/inkscape"
   xmlns:sodipodi="http://sodipodi.sourceforge.net/DTD/sodipodi-0.dtd"
   xmlns="http://www.w3.org/2000/svg"
   xmlns:svg="http://www.w3.org/2000/svg">
  <sodipodi:namedview
     id="namedview7"
     pagecolor="#505050"
     bordercolor="#eeeeee"
     borderopacity="1"
     inkscape:pageshadow="0"
     inkscape:pageopacity="0"
     inkscape:pagecheckerboard="0"
     inkscape:document-units="px"
     showgrid="false"
     units="px"
     inkscape:zoom="5.7869809"
     inkscape:cx="45.619642"
     inkscape:cy="66.096641"
     inkscape:window-width="1920"
     inkscape:window-height="1001"
     inkscape:window-x="-9"
     inkscape:window-y="-9"
     inkscape:window-maximized="1"
     inkscape:current-layer="layer1" />
  <defs
     id="defs2" />
  <g
     inkscape:label="Livello 1"
     inkscape:groupmode="layer"
     id="layer1">
    <path
       id="path880"
       style="fill:none;stroke:#000000;stroke-width:0.79375;stroke-linecap:round;stroke-linejoin:round;stroke-dashoffset:80;paint-order:stroke fill markers;stop-color:#000000"
       d="M 22.448737,11.110066 A 9.6698732,2.1945813 0 0 1 12.778864,13.304648 9.6698732,2.1945813 0 0 1 3.1089907,11.110066 9.6698732,2.1945813 0 0 1 12.778864,8.9154851 9.6698732,2.1945813 0 0 1 22.448737,11.110066 Z" />
    <path
       style="fill:none;stroke:#000000;stroke-width:0.79375;stroke-linecap:round;stroke-linejoin:miter;stroke-miterlimit:4;stroke-dasharray:none;stroke-opacity:1"
       d="m 2.7432267,11.064347 c 0,0 -1.0295012,5.153536 0.1828813,6.355142 2.3488973,2.328019 6.6142241,1.058333 9.921336,1.058333 3.307112,0 7.520017,1.215575 9.921336,-1.058333 1.219068,-1.154386 0.137162,-6.263701 0.137162,-6.263701 v 0 0"
       id="path1013"
       sodipodi:nodetypes="csssccc" />
  </g>
</svg>
