<?xml version="1.0" encoding="UTF-8" standalone="no"?>
<!-- Created with Inkscape (http://www.inkscape.org/) -->

<svg
   version="1.1"
   id="svg1"
   width="510"
   height="512"
   viewBox="0 0 510 512"
   sodipodi:docname="desert_bck.svg"
   inkscape:version="1.4 (86a8ad7, 2024-10-11)"
   inkscape:export-filename="city_bck.png"
   inkscape:export-xdpi="96.188232"
   inkscape:export-ydpi="96.188232"
   xml:space="preserve"
   xmlns:inkscape="http://www.inkscape.org/namespaces/inkscape"
   xmlns:sodipodi="http://sodipodi.sourceforge.net/DTD/sodipodi-0.dtd"
   xmlns:xlink="http://www.w3.org/1999/xlink"
   xmlns="http://www.w3.org/2000/svg"
   xmlns:svg="http://www.w3.org/2000/svg"><defs
     id="defs1"><inkscape:path-effect
       effect="bspline"
       id="path-effect4"
       is_visible="true"
       lpeversion="1.3"
       weight="33.333333"
       steps="2"
       helper_size="0"
       apply_no_weight="true"
       apply_with_weight="true"
       only_selected="false"
       uniform="false" /><inkscape:path-effect
       effect="bspline"
       id="path-effect3"
       is_visible="true"
       lpeversion="1.3"
       weight="33.333333"
       steps="2"
       helper_size="0"
       apply_no_weight="true"
       apply_with_weight="true"
       only_selected="false"
       uniform="false" /><inkscape:path-effect
       effect="bspline"
       id="path-effect2"
       is_visible="true"
       lpeversion="1.3"
       weight="33.333333"
       steps="2"
       helper_size="0"
       apply_no_weight="true"
       apply_with_weight="true"
       only_selected="false"
       uniform="false" /><inkscape:path-effect
       effect="bspline"
       id="path-effect1"
       is_visible="true"
       lpeversion="1.3"
       weight="33.333333"
       steps="2"
       helper_size="0"
       apply_no_weight="true"
       apply_with_weight="true"
       only_selected="false"
       uniform="false" /><inkscape:path-effect
       effect="bspline"
       id="path-effect2192"
       is_visible="true"
       lpeversion="1.3"
       weight="33.333333"
       steps="2"
       helper_size="0"
       apply_no_weight="true"
       apply_with_weight="true"
       only_selected="false"
       uniform="false" /><inkscape:path-effect
       effect="bspline"
       id="path-effect2144"
       is_visible="true"
       lpeversion="1.3"
       weight="33.333333"
       steps="2"
       helper_size="0"
       apply_no_weight="true"
       apply_with_weight="true"
       only_selected="false"
       uniform="false" /><inkscape:path-effect
       effect="bspline"
       id="path-effect2142"
       is_visible="true"
       lpeversion="1.3"
       weight="33.333333"
       steps="2"
       helper_size="0"
       apply_no_weight="true"
       apply_with_weight="true"
       only_selected="false"
       uniform="false" /><mask
       maskUnits="userSpaceOnUse"
       id="mask4"><ellipse
         style="fill:#ececec;stroke-width:1.01814"
         id="ellipse4"
         cx="254.42943"
         cy="254.74355"
         rx="255.68588"
         ry="256.62823" /></mask><mask
       maskUnits="userSpaceOnUse"
       id="mask5"><ellipse
         style="fill:#ececec;stroke-width:1.01814"
         id="ellipse5"
         cx="254.42943"
         cy="254.74355"
         rx="255.68588"
         ry="256.62823" /></mask><filter
       style="color-interpolation-filters:sRGB;"
       inkscape:label="Feather"
       id="filter48"
       x="-0.078728789"
       y="-0.086815015"
       width="1.1574576"
       height="1.17363"><feGaussianBlur
         stdDeviation="5.83764"
         result="blur"
         id="feGaussianBlur46" /><feComposite
         in="SourceGraphic"
         in2="blur"
         operator="atop"
         result="composite1"
         id="feComposite46" /><feComposite
         in2="composite1"
         operator="in"
         result="composite2"
         id="feComposite47" /><feComposite
         in2="composite2"
         operator="in"
         result="composite3"
         id="feComposite48" /></filter><filter
       style="color-interpolation-filters:sRGB;"
       inkscape:label="Drop Shadow"
       id="filter14157"
       x="-0.061523112"
       y="-0.074902389"
       width="1.4181865"
       height="1.15756"><feFlood
         flood-opacity="0.498039"
         flood-color="rgb(0,0,0)"
         result="flood"
         id="feFlood14147" /><feComposite
         in="flood"
         in2="SourceGraphic"
         operator="in"
         result="composite1"
         id="feComposite14149" /><feGaussianBlur
         in="composite1"
         stdDeviation="1.82371"
         result="blur"
         id="feGaussianBlur14151" /><feOffset
         dx="20.997"
         dy="0.453172"
         result="offset"
         id="feOffset14153" /><feComposite
         in="SourceGraphic"
         in2="offset"
         operator="over"
         result="composite2"
         id="feComposite14155" /></filter><filter
       style="color-interpolation-filters:sRGB;"
       inkscape:label="Drop Shadow"
       id="filter14157-0"
       x="-0.061523112"
       y="-0.074902389"
       width="1.4181865"
       height="1.15756"><feFlood
         flood-opacity="0.498039"
         flood-color="rgb(0,0,0)"
         result="flood"
         id="feFlood14147-9" /><feComposite
         in="flood"
         in2="SourceGraphic"
         operator="in"
         result="composite1"
         id="feComposite14149-4" /><feGaussianBlur
         in="composite1"
         stdDeviation="1.82371"
         result="blur"
         id="feGaussianBlur14151-8" /><feOffset
         dx="20.997"
         dy="0.453172"
         result="offset"
         id="feOffset14153-8" /><feComposite
         in="SourceGraphic"
         in2="offset"
         operator="over"
         result="composite2"
         id="feComposite14155-2" /></filter><inkscape:path-effect
       effect="bspline"
       id="path-effect2144-6"
       is_visible="true"
       lpeversion="1.3"
       weight="33.333333"
       steps="2"
       helper_size="0"
       apply_no_weight="true"
       apply_with_weight="true"
       only_selected="false"
       uniform="false" /><inkscape:path-effect
       effect="bspline"
       id="path-effect2144-9"
       is_visible="true"
       lpeversion="1.3"
       weight="33.333333"
       steps="2"
       helper_size="0"
       apply_no_weight="true"
       apply_with_weight="true"
       only_selected="false"
       uniform="false" /><inkscape:path-effect
       effect="bspline"
       id="path-effect2144-3"
       is_visible="true"
       lpeversion="1.3"
       weight="33.333333"
       steps="2"
       helper_size="0"
       apply_no_weight="true"
       apply_with_weight="true"
       only_selected="false"
       uniform="false" /><inkscape:path-effect
       effect="bspline"
       id="path-effect2144-8"
       is_visible="true"
       lpeversion="1.3"
       weight="33.333333"
       steps="2"
       helper_size="0"
       apply_no_weight="true"
       apply_with_weight="true"
       only_selected="false"
       uniform="false" /><inkscape:path-effect
       effect="bspline"
       id="path-effect2192-0"
       is_visible="true"
       lpeversion="1.3"
       weight="33.333333"
       steps="2"
       helper_size="0"
       apply_no_weight="true"
       apply_with_weight="true"
       only_selected="false"
       uniform="false" /><inkscape:path-effect
       effect="bspline"
       id="path-effect2192-6"
       is_visible="true"
       lpeversion="1.3"
       weight="33.333333"
       steps="2"
       helper_size="0"
       apply_no_weight="true"
       apply_with_weight="true"
       only_selected="false"
       uniform="false" /><inkscape:path-effect
       effect="bspline"
       id="path-effect2192-0-1"
       is_visible="true"
       lpeversion="1.3"
       weight="33.333333"
       steps="2"
       helper_size="0"
       apply_no_weight="true"
       apply_with_weight="true"
       only_selected="false"
       uniform="false" /><inkscape:path-effect
       effect="bspline"
       id="path-effect2192-8"
       is_visible="true"
       lpeversion="1.3"
       weight="33.333333"
       steps="2"
       helper_size="0"
       apply_no_weight="true"
       apply_with_weight="true"
       only_selected="false"
       uniform="false" /><inkscape:path-effect
       effect="bspline"
       id="path-effect2192-0-6"
       is_visible="true"
       lpeversion="1.3"
       weight="33.333333"
       steps="2"
       helper_size="0"
       apply_no_weight="true"
       apply_with_weight="true"
       only_selected="false"
       uniform="false" /><inkscape:path-effect
       effect="bspline"
       id="path-effect2192-6-5"
       is_visible="true"
       lpeversion="1.3"
       weight="33.333333"
       steps="2"
       helper_size="0"
       apply_no_weight="true"
       apply_with_weight="true"
       only_selected="false"
       uniform="false" /><inkscape:path-effect
       effect="bspline"
       id="path-effect2192-0-1-0"
       is_visible="true"
       lpeversion="1.3"
       weight="33.333333"
       steps="2"
       helper_size="0"
       apply_no_weight="true"
       apply_with_weight="true"
       only_selected="false"
       uniform="false" /><mask
       maskUnits="userSpaceOnUse"
       id="mask7"><ellipse
         style="display:inline;fill:#ffffff;stroke-width:1.03165;stroke-linecap:round;stroke-linejoin:bevel"
         id="ellipse7"
         cx="230.9919"
         cy="262.62183"
         rx="235"
         ry="235.41086" /></mask></defs><sodipodi:namedview
     id="namedview1"
     pagecolor="#cdcdcd"
     bordercolor="#000000"
     borderopacity="0"
     inkscape:showpageshadow="2"
     inkscape:pageopacity="0.0"
     inkscape:pagecheckerboard="false"
     inkscape:deskcolor="#d1d1d1"
     inkscape:zoom="1.4142136"
     inkscape:cx="135.7645"
     inkscape:cy="199.75766"
     inkscape:window-width="1920"
     inkscape:window-height="1017"
     inkscape:window-x="-8"
     inkscape:window-y="-8"
     inkscape:window-maximized="1"
     inkscape:current-layer="g1"
     inkscape:export-bgcolor="#00000000"
     inkscape:clip-to-page="false"
     showgrid="true"><inkscape:grid
       id="grid4"
       units="px"
       originx="0"
       originy="0"
       spacingx="1"
       spacingy="1"
       empcolor="#0099e5"
       empopacity="0.30196078"
       color="#0099e5"
       opacity="0.14901961"
       empspacing="5"
       enabled="true"
       visible="true" /></sodipodi:namedview><g
     inkscape:groupmode="layer"
     inkscape:label="Image"
     id="g1"
     style="display:inline;opacity:0.976;mix-blend-mode:normal"><g
       id="g2"
       inkscape:label="city"
       mask="url(#mask7)"
       style="display:inline"
       transform="translate(19.999999,-4.9999997)"><rect
         style="fill:#00ffff;fill-opacity:1;stroke-width:0.98;stroke-linecap:square"
         id="rect4"
         width="720.54175"
         height="371.23105"
         x="-181.22034"
         y="-50.861431" /><path
         style="fill:#ffb380;fill-opacity:1;stroke-width:0.98;stroke-linecap:square"
         d="m -28.499999,335.49998 c 40.83333,-18.66666 81.666664,-37.33333 115.250257,-38.24983 33.583592,-0.91649 59.916402,15.9165 86.583342,18.74972 26.66693,2.83322 53.66639,-8.33322 75.91657,-13.0832 22.25017,-4.74998 39.74981,-3.08335 55.74995,3.00009 16.00015,6.08343 30.49986,16.58322 46.08336,20.5832 15.5835,3.99997 32.24983,1.50002 45.99994,-4.50007 13.75011,-6.0001 24.58323,-15.4999 37.75005,-18.83321 13.16682,-3.3333 28.66651,-0.50003 42.8333,5.58339 14.16679,6.08343 26.99987,15.41658 34.49989,23.99999 7.50002,8.58341 9.66664,16.41659 11.83331,24.24992"
         id="path4"
         inkscape:path-effect="#path-effect4"
         inkscape:original-d="m -28.499999,335.49998 c 40.833332,-18.66666 81.666663,-37.33333 122.49999,-55.99999 26.333859,16.83367 52.666669,33.66666 78.999999,50.49999 27.00054,-11.16689 54,-22.33333 81,-33.49999 17.50035,1.6667 34.99999,3.33333 52.49999,5 14.50029,10.5002 29,20.99999 43.5,31.49999 16.667,-2.50005 33.33333,-5 50,-7.5 10.83355,-9.50019 21.66666,-19 32.5,-28.49999 15.50031,2.83339 31,5.66666 46.5,8.49999 12.83358,9.33352 25.66666,18.66667 38.49999,28 2.16671,7.83349 4.33334,15.66667 6.5,23.5"
         transform="matrix(1,0,0,1.1338108,-18.091882,-158.63442)" /><path
         style="display:inline;opacity:0.976;mix-blend-mode:normal;fill:#ff9955;stroke-width:0.98;stroke-linecap:square"
         d="m -5.9999997,261.99999 c 56.9999967,-37.5 113.9999897,-75 165.0837697,-76.16631 51.08379,-1.16632 96.24955,33.99964 131.08312,51.33297 34.83358,17.33333 59.33309,16.83334 92.41684,3.74975 33.08375,-13.08359 74.74958,-38.74974 102.49972,-39.66617 27.75013,-0.91643 41.58319,22.91643 55.41652,46.74976"
         id="path2"
         inkscape:original-d="m -5.9999997,261.99999 c 56.9999967,-37.5 113.9999897,-75 170.9999897,-112.5 45.16757,35.16737 90.33333,70.33333 135.49999,105.5 24.50049,-0.50001 49,-1 73.5,-1.5 41.6675,-25.66718 83.33333,-51.33333 125,-77 13.8336,23.83381 27.66666,47.66667 41.49999,71.5"
         inkscape:path-effect="#path-effect2"
         transform="matrix(1.0585545,0,0,1.010979,-67.462378,4.4600504)" /><path
         style="fill:#ff7f2a;stroke-width:0.98;stroke-linecap:square"
         d="m 409.49998,304.49999 c -1.66667,-1.66667 -3.33333,-3.33333 -37.00066,-26.08377 C 338.832,255.66578 273.16665,211.83332 209.49937,210.41707 145.83209,209.00081 84.166662,249.99999 43.666471,269.58331 3.16628,289.16662 -16.166666,287.33332 -35.499998,285.49999"
         id="path3"
         inkscape:path-effect="#path-effect3"
         inkscape:original-d="m 409.49998,304.49999 c -1.66667,-1.66667 -3.33333,-3.33334 -5,-5 -65.66798,-43.83421 -131.33333,-87.66667 -196.99999,-131.5 -61.6679,41.00082 -123.333329,82 -184.999991,123 -19.333719,-1.83337 -38.666665,-3.66667 -57.999997,-5.5"
         transform="translate(84.378681,-3.2132033)" /><rect
         style="fill:#ff7f2a;fill-opacity:1;stroke-width:0.98;stroke-linecap:square"
         id="rect3"
         width="564.5"
         height="257"
         x="-36.757355"
         y="255.72183" /><path
         style="fill:#ffffff;fill-opacity:1;stroke-width:0.98;stroke-linecap:square"
         id="path5"
         d="m 103.44021,103.75603 c 0.49458,-0.003 4.76341,-0.0268 4.53231,-0.0205 -3.22714,0.0884 -6.5165,-0.43062 -9.683029,0.19815 -2.04778,0.40662 4.166139,0.28665 6.244479,0.48464 4.31999,0.41152 11.1824,1.27571 15.41138,1.78959 7.40503,0.97608 14.80515,2.01475 22.17521,3.23083 1.95501,0.32258 6.35167,1.04092 8.53501,1.69608 0.52844,0.15857 1.00396,0.45785 1.50594,0.68677 -0.20356,-0.0822 -0.39239,-0.26971 -0.61069,-0.24657 -0.79839,0.0846 -1.56129,0.37519 -2.34267,0.55967 -1.35406,0.3197 -2.70512,0.65272 -4.06365,0.95288 -5.0498,1.1157 -10.13695,1.98192 -15.23164,2.86038 -0.93237,0.22036 -1.9244,0.2658 -2.79711,0.66107 -1.78829,0.80995 0.79598,2.63379 1.24697,2.80888 1.20164,0.46652 2.56837,0.23183 3.85591,0.29386 2.93333,0.14133 8.41225,0.19051 11.24641,0.2301 8.3143,0.0573 4.22878,0.0349 12.25654,0.0684 0,0 14.22517,-2.24849 14.22517,-2.24849 v 0 c -8.05583,-0.0167 -3.97211,7.6e-4 -12.25116,-0.0539 -4.82301,-0.0642 -6.30495,-0.0611 -10.97667,-0.20593 -3.74853,-0.1162 -2.95632,-0.9116 -5.21913,1.1293 -0.068,0.0614 0.18015,-0.0334 0.27023,-0.0501 0.85033,-0.20285 1.70065,-0.40571 2.55098,-0.60857 5.10603,-0.92314 10.24328,-1.75804 15.29432,-2.95753 1.44543,-0.34325 5.61236,-1.13399 6.90319,-2.67329 0.46735,-0.55731 0.30006,-1.42338 0.45009,-2.13507 -0.58886,-0.34514 -1.12214,-0.81052 -1.76657,-1.03543 -1.8282,-0.63805 -7.46526,-1.52716 -8.90077,-1.7574 -7.43588,-1.1926 -14.89973,-2.21659 -22.35925,-3.24661 -2.2175,-0.2789 -12.70901,-1.61067 -15.19512,-1.87769 -2.02536,-0.21754 -4.05,-0.4849 -6.08582,-0.55423 -6.42068,-0.21867 -12.846979,-0.21686 -19.270719,-0.30934 -1.59694,-0.023 -3.19429,-7.3e-4 -4.79129,-0.0205 z" /><path
         style="fill:#ffffff;fill-opacity:1;stroke-width:0.98;stroke-linecap:square"
         id="path6"
         d="m 286.5022,103.08178 c 13.17931,0.50577 26.31882,1.7196 39.44971,2.9126 15.98044,1.84177 32.05665,3.03513 47.94658,5.58629 -7.34536,-1.7551 6.16551,0.97845 4.6025,1.28549 -0.58262,0.11445 -1.13787,-0.47454 -1.72962,-0.42581 -1.7523,0.14432 -3.44528,0.70839 -5.18002,0.99486 -8.93089,1.47483 -10.09013,1.43762 -19.80077,2.46579 -10.36446,1.05962 -20.78071,1.45972 -31.1612,2.30515 -1.5738,0.12817 -3.1611,0.19069 -4.71179,0.48845 -0.58582,0.11248 -1.53076,0.14249 -1.63389,0.73003 -0.14719,0.83865 0.73416,1.53655 1.10123,2.30483 1.1148,0.30636 2.21089,0.69147 3.3444,0.91908 5.6197,1.12842 11.42255,1.45988 17.103,2.14511 4.17438,0.50355 8.1843,1.08972 12.34356,1.67675 7.21017,1.0483 14.438,1.97553 21.70326,2.53839 6.85101,0.39251 13.77705,0.48004 20.60944,0.10104 0.10949,-0.006 2.00092,-1.56631 2.11091,-1.6559 1.96386,-2.05461 4.33867,-3.62364 6.55126,-5.38487 0.59854,-0.47644 1.2563,-0.8919 1.77717,-1.4522 0.37451,-0.40285 0.58267,-0.9331 0.87401,-1.39965 -0.19591,-0.60195 -0.11974,-1.37957 -0.58773,-1.80585 -1.6562,-1.50857 -5.3694,-1.44086 -7.1288,-1.4623 -10.67927,-0.13015 -21.2254,0.0289 -31.87008,0.35762 -7.24754,0.23939 -14.49372,0.51658 -21.74467,0.62551 -8.37923,0.079 -16.75904,0.0755 -25.13857,0.0859 2.57805,0.001 5.1561,-0.002 7.73414,0.004 2.15223,0.005 -4.30446,-2e-4 -6.45669,-0.001 -5.99085,-0.003 -5.63997,-0.004 -11.32143,-0.0134 0,0 -14.30206,2.26491 -14.30206,2.26491 v 0 c 12.85691,-0.0159 25.71382,-0.004 38.57074,-0.002 8.50562,0.01 17.01188,0.0498 25.51709,-0.0512 7.12887,-0.13367 14.25116,-0.46519 21.377,-0.7027 1.96227,-0.0585 3.92428,-0.12616 5.8868,-0.17539 2.02572,-0.0508 8.09987,0.006 6.07777,-0.12473 -2.91163,-0.1889 -5.83541,-0.0625 -8.75313,-0.0488 -0.14879,6.9e-4 5.7123,0.0896 6.59276,0.11516 0.21003,0.006 0.41929,0.0281 0.62893,0.0421 -1.29909,1.71125 -2.82811,2.66029 -4.5313,3.96766 -3.34114,2.56467 -0.71852,0.50524 -3.55625,2.85425 -0.36187,0.29954 -0.73312,0.58758 -1.09968,0.88138 -0.32835,0.19807 -0.6307,0.44766 -0.98507,0.59421 -0.3273,0.13536 -0.6899,0.16076 -1.03485,0.24114 4.55405,0.014 9.10811,0.028 13.66216,0.042 0.44613,10e-4 -0.89227,-0.006 -1.33834,-0.0133 -1.59638,-0.0271 -1.75223,-0.043 -3.42549,-0.10811 -7.41788,-0.44872 -14.79875,-1.32149 -22.15509,-2.36666 -1.82204,-0.25547 -10.70807,-1.50793 -12.3809,-1.71495 -6.59542,-0.81621 -13.24676,-1.29319 -19.77711,-2.5768 -0.38414,0.36054 -1.20636,0.55754 -1.15242,1.0816 0.0438,0.42588 0.80082,-0.32281 1.22352,-0.39079 1.42488,-0.22917 2.86371,-0.36582 4.30085,-0.49774 10.23747,-0.93973 20.51683,-1.38263 30.74737,-2.41126 6.71205,-0.69945 13.85113,-1.27951 20.52651,-2.52478 1.91678,-0.35757 7.06423,-0.52618 7.46406,-3.94756 0.21232,-1.8169 -6.34943,-1.308 -5.15145,-1.8917 -16.04982,-2.54473 -32.28645,-3.68863 -48.41638,-5.61258 -12.82196,-1.21128 -25.65294,-2.44609 -38.51736,-3.09677 z" /><path
         style="fill:#ffffff;fill-opacity:1;stroke-width:0.98;stroke-linecap:square"
         id="path7"
         d="m 404.66278,177.07294 c -14.45439,-1.64447 -29.06192,-1.47684 -43.58883,-1.67094 -17.69914,-0.31073 -35.40524,-0.13639 -53.10403,-0.44801 -2.94949,3.46286 6.06287,2.31649 4.40642,2.29805 -2.64589,-0.0294 -10.57476,0.19995 -7.93812,-0.0231 2.78833,-0.23591 5.59658,-0.0116 8.39488,-0.0155 9.34033,-0.0131 10.14545,-0.01 19.54617,-0.0102 11.92976,0.01 6.13411,0.004 17.38696,0.0185 0,0 13.94929,-2.20911 13.94929,-2.20911 v 0 c -11.39594,0.011 -5.53611,0.007 -17.57947,0.0121 -9.17579,-0.004 -18.35145,-0.0249 -27.52721,-0.0398 -6.9047,-0.0112 -13.80941,-0.0121 -20.71409,-0.0264 -1.32082,-0.003 -2.78423,-0.62194 -3.96238,-0.0248 -0.71475,0.36224 -0.39191,1.55394 -0.58787,2.33091 18.09933,-0.13988 36.20066,0.0975 54.29901,0.24486 8.76304,0.1353 14.56798,0.18992 23.17507,0.44733 5.68196,0.16993 11.43266,0.33505 17.09109,0.97069 0.62949,0.0707 1.24961,0.20854 1.87441,0.31281 z" /></g><g
       id="g2192"
       inkscape:label="mirino"
       style="display:inline;opacity:0.976;mix-blend-mode:normal;stroke:#000000;stroke-opacity:1"
       transform="matrix(0.98530407,0,0,1.0090766,1.9385718,-4.5792893)"><ellipse
         style="opacity:1;fill:none;fill-opacity:1;stroke:#000000;stroke-width:5;stroke-linecap:square;stroke-linejoin:bevel;stroke-dasharray:none;stroke-opacity:1"
         id="path2142-6"
         cx="253.73013"
         cy="263.422"
         rx="188.49214"
         ry="198.15842" /><ellipse
         style="display:inline;opacity:1;mix-blend-mode:normal;fill:none;fill-opacity:1;stroke:#000000;stroke-width:5;stroke-linecap:square;stroke-linejoin:bevel;stroke-dasharray:none;stroke-opacity:1"
         id="path2142-4-0"
         cx="252.90221"
         cy="257.52457"
         rx="235.91907"
         ry="233.11052" /><path
         id="path2142-4-2"
         style="display:none;fill:none;stroke-width:5;stroke-linecap:square;stroke-linejoin:bevel"
         d="M 568.13077,38.046474 A 235.91907,233.11052 0 0 1 332.2117,271.15699 235.91907,233.11052 0 0 1 96.292633,38.046474 235.91907,233.11052 0 0 1 332.2117,-195.06404 235.91907,233.11052 0 0 1 568.13077,38.046474 Z" /><ellipse
         style="display:inline;opacity:1;mix-blend-mode:normal;fill:none;fill-opacity:1;stroke:#000000;stroke-width:5;stroke-linecap:square;stroke-linejoin:bevel;stroke-dasharray:none;stroke-opacity:1"
         id="path2142-8-2"
         cx="249.78149"
         cy="257.21872"
         rx="125.92069"
         ry="132.37817" /><ellipse
         style="display:inline;opacity:1;mix-blend-mode:normal;fill:none;fill-opacity:1;stroke:#000000;stroke-width:5;stroke-linecap:square;stroke-linejoin:bevel;stroke-dasharray:none;stroke-opacity:1"
         id="path2142-8-7-4"
         cx="251.84853"
         cy="254.85768"
         rx="78.020599"
         ry="82.021667" /><path
         style="opacity:1;fill:none;fill-opacity:1;stroke:#000000;stroke-width:8.01533;stroke-linecap:square;stroke-linejoin:bevel;stroke-dasharray:none;stroke-opacity:1"
         d="m 319.51749,252.20759 165.04006,0.84607"
         id="path2143-8"
         sodipodi:nodetypes="cc" /><path
         style="display:inline;mix-blend-mode:normal;fill:none;fill-opacity:1;stroke:#000000;stroke-width:8;stroke-linecap:square;stroke-linejoin:bevel;stroke-dasharray:none;stroke-opacity:1"
         d="m 20.942915,250.61708 157.092995,0.22778"
         id="path2143-9-6"
         sodipodi:nodetypes="cc" /><path
         style="display:inline;opacity:1;mix-blend-mode:normal;fill:none;fill-opacity:1;stroke:#000000;stroke-width:8;stroke-linecap:square;stroke-linejoin:bevel;stroke-dasharray:none;stroke-opacity:1"
         d="m 252.68901,331.63031 2.12836,154.9646"
         id="path2143-0-5"
         sodipodi:nodetypes="cc" /><path
         style="display:inline;mix-blend-mode:normal;fill:none;fill-opacity:1;stroke:#000000;stroke-width:8;stroke-linecap:square;stroke-linejoin:bevel;stroke-dasharray:none;stroke-opacity:1"
         d="M 254.75113,27.116595 251.96552,179.29025"
         id="path2143-0-2-0"
         sodipodi:nodetypes="cc" /><path
         style="opacity:1;fill:none;fill-opacity:1;stroke:#000000;stroke-width:4;stroke-linecap:square;stroke-linejoin:bevel;stroke-dasharray:none;stroke-opacity:1"
         d="m 187.83803,250.66011 c 0,0 39.57791,-0.62822 39.57791,-0.62822"
         id="path2192-9"
         transform="translate(8.1668709,1.2564417)"
         inkscape:original-d="m 187.83803,250.66011 39.57791,-0.62822"
         inkscape:path-effect="#path-effect2192-8" /><path
         style="display:inline;mix-blend-mode:normal;fill:none;fill-opacity:1;stroke:#000000;stroke-width:4;stroke-linecap:square;stroke-linejoin:bevel;stroke-dasharray:none;stroke-opacity:1"
         d="m 187.83803,250.66011 c 0,0 39.57791,-0.62822 39.57791,-0.62822"
         id="path2192-1-0"
         transform="translate(78.421885,1.3298724)"
         inkscape:original-d="m 187.83803,250.66011 39.57791,-0.62822"
         inkscape:path-effect="#path-effect2192-0-6"
         inkscape:label="path2192-1-0" /><path
         style="display:inline;mix-blend-mode:normal;fill:none;fill-opacity:1;stroke:#000000;stroke-width:4;stroke-linecap:square;stroke-linejoin:bevel;stroke-dasharray:none;stroke-opacity:1"
         d="m 187.83803,250.66011 c 0,0 39.57791,-0.62822 39.57791,-0.62822"
         id="path2192-2-0"
         transform="rotate(90,244.62299,258.5496)"
         inkscape:original-d="m 187.83803,250.66011 39.57791,-0.62822"
         inkscape:path-effect="#path-effect2192-6-5" /><path
         style="display:inline;opacity:0.976;mix-blend-mode:normal;fill:none;fill-opacity:1;stroke:#000000;stroke-width:4;stroke-linecap:square;stroke-linejoin:bevel;stroke-dasharray:none;stroke-opacity:1"
         d="m 187.83803,250.66011 c 0,0 39.57791,-0.62822 39.57791,-0.62822"
         id="path2192-1-5-6"
         transform="rotate(90,210.44978,292.64938)"
         inkscape:original-d="m 187.83803,250.66011 39.57791,-0.62822"
         inkscape:path-effect="#path-effect2192-0-1-0" /><text
         xml:space="preserve"
         style="font-style:normal;font-variant:normal;font-weight:normal;font-stretch:normal;font-size:22.1531px;font-family:'Yu Gothic';-inkscape-font-specification:'Yu Gothic';text-align:start;writing-mode:lr-tb;direction:ltr;text-anchor:start;fill:#165016;stroke-width:2.1987;stroke-linecap:square;stroke-linejoin:bevel"
         id="text4"
         transform="matrix(0.93117383,0,0,0.92884145,-58.389794,223.54336)"><textPath
           xlink:href="#path2142-4-2"
           id="textPath4"><tspan
             id="tspan4"
             style="font-style:normal;font-variant:normal;font-weight:normal;font-stretch:normal;font-size:22.1531px;font-family:'Yu Gothic';-inkscape-font-specification:'Yu Gothic';stroke-width:2.1987">llllllllllllllllllllllllllllllllllllllllllllllllllllllllllllllllllllllllllllllllllllllllllllllllllllllllllllllllllllllllllllllllllllllllllllllllllllllllllllllllllllllllllllllllllllllllllllllllllllllllllllllllllllllllllllllllllllllllllllllllllllllllllllllllllllll</tspan></textPath></text><text
         xml:space="preserve"
         style="font-style:normal;font-variant:normal;font-weight:normal;font-stretch:normal;font-size:48px;font-family:'MS PGothic';-inkscape-font-specification:'MS PGothic';text-align:start;writing-mode:lr-tb;direction:ltr;text-anchor:start;display:inline;opacity:0.976;mix-blend-mode:normal;fill:#00ff00;stroke:none;stroke-width:2.382;stroke-linecap:square;stroke-linejoin:bevel"
         id="text1"
         transform="matrix(-0.21756264,-0.79129739,0.75854611,-0.2238735,298.19371,534.25829)"><textPath
           xlink:href="#path2142-4-2"
           id="textPath2">    <tspan
   style="font-size:15.8186px;fill:#00ff00"
   id="tspan5">0                                      45                               90                                135                                      180                                      225                              270                          315</tspan></textPath></text></g></g></svg>
