<?xml version="1.0" encoding="UTF-8" standalone="no"?>
<!-- Created with Inkscape (http://www.inkscape.org/) -->

<svg
   version="1.1"
   id="svg1"
   width="510"
   height="512"
   viewBox="0 0 510 512"
   sodipodi:docname="jungle_bck.svg"
   inkscape:version="1.4 (86a8ad7, 2024-10-11)"
   inkscape:export-filename="..\..\src\resources\jungle_bck.png"
   inkscape:export-xdpi="95.742477"
   inkscape:export-ydpi="95.742477"
   xmlns:inkscape="http://www.inkscape.org/namespaces/inkscape"
   xmlns:sodipodi="http://sodipodi.sourceforge.net/DTD/sodipodi-0.dtd"
   xmlns:xlink="http://www.w3.org/1999/xlink"
   xmlns="http://www.w3.org/2000/svg"
   xmlns:svg="http://www.w3.org/2000/svg">
  <defs
     id="defs1">
    <color-profile
       name="ASUS_N752VX_8086_E430046C"
       xlink:href="file:///C:/Windows/system32/spool/drivers/color/N752VX_8086_E430046C.icm"
       id="color-profile2" />
    <mask
       maskUnits="userSpaceOnUse"
       id="mask4">
      <ellipse
         style="fill:#ececec;stroke-width:1.01814"
         id="ellipse4"
         cx="254.42943"
         cy="254.74355"
         rx="255.68588"
         ry="256.62823" />
    </mask>
    <mask
       maskUnits="userSpaceOnUse"
       id="mask5">
      <ellipse
         style="fill:#ececec;stroke-width:1.01814"
         id="ellipse5"
         cx="254.42943"
         cy="254.74355"
         rx="255.68588"
         ry="256.62823" />
    </mask>
    <filter
       style="color-interpolation-filters:sRGB;"
       inkscape:label="Feather"
       id="filter48"
       x="-0.078728789"
       y="-0.086815015"
       width="1.1574576"
       height="1.17363">
      <feGaussianBlur
         stdDeviation="5.83764"
         result="blur"
         id="feGaussianBlur46" />
      <feComposite
         in="SourceGraphic"
         in2="blur"
         operator="atop"
         result="composite1"
         id="feComposite46" />
      <feComposite
         in2="composite1"
         operator="in"
         result="composite2"
         id="feComposite47" />
      <feComposite
         in2="composite2"
         operator="in"
         result="composite3"
         id="feComposite48" />
    </filter>
  </defs>
  <sodipodi:namedview
     id="namedview1"
     pagecolor="#ffffff"
     bordercolor="#000000"
     borderopacity="0"
     inkscape:showpageshadow="2"
     inkscape:pageopacity="0.0"
     inkscape:pagecheckerboard="false"
     inkscape:deskcolor="#d1d1d1"
     inkscape:zoom="1.1255704"
     inkscape:cx="156.80938"
     inkscape:cy="200.34287"
     inkscape:window-width="1920"
     inkscape:window-height="1017"
     inkscape:window-x="-8"
     inkscape:window-y="-8"
     inkscape:window-maximized="1"
     inkscape:current-layer="g1"
     inkscape:export-bgcolor="#00000000" />
  <g
     inkscape:groupmode="layer"
     inkscape:label="Image"
     id="g1"
     style="display:inline;opacity:1">
    <g
       id="g4"
       mask="url(#mask4)"
       style="display:none">
      <rect
         style="display:inline;fill:#3bcdff;fill-opacity:1;stroke-width:1.476"
         id="rect5"
         width="603.72028"
         height="804.75092"
         x="-46.488342"
         y="-125.01595"
         ry="0" />
      <g
         id="g17"
         inkscape:label="sole"
         transform="translate(55.971623,18.657208)"
         style="opacity:1;filter:url(#filter48)">
        <ellipse
           style="fill:#ffff00"
           id="path10"
           cx="242.80736"
           cy="127.52883"
           rx="56.853989"
           ry="54.026993" />
        <path
           style="opacity:1;fill:none;stroke:#ffff00;stroke-width:9.2;stroke-linecap:round;stroke-linejoin:bevel;stroke-dasharray:none;stroke-opacity:1"
           d="m 190.35091,141.2053 -55.91165,38.94969 v 0"
           id="path13" />
        <path
           style="fill:none;stroke:#ffff00;stroke-width:9.2;stroke-linecap:round;stroke-linejoin:bevel;stroke-dasharray:none;stroke-opacity:1"
           d="m 289.45255,144.56853 53.87079,41.72682 v 0"
           id="path17" />
        <path
           style="fill:none;stroke:#ffff00;stroke-width:9.2;stroke-linecap:round;stroke-linejoin:bevel;stroke-dasharray:none;stroke-opacity:1"
           d="m 214.15516,158.03991 -36.89191,57.29029 v 0"
           id="path14"
           inkscape:transform-center-x="8.795092"
           inkscape:transform-center-y="21.359509" />
        <path
           style="fill:none;stroke:#ffff00;stroke-width:9.2;stroke-linecap:round;stroke-linejoin:bevel;stroke-dasharray:none;stroke-opacity:1"
           d="m 355.48474,126.08649 -68.13995,-0.37115 v 0"
           id="path12-6-1" />
        <path
           style="fill:none;stroke:#ffff00;stroke-width:9.2;stroke-linecap:round;stroke-linejoin:bevel;stroke-dasharray:none;stroke-opacity:1"
           d="m 235.31542,161.17359 -1.37818,68.12702 v 0"
           id="path15"
           inkscape:transform-center-x="-3.709213"
           inkscape:transform-center-y="22.79965" />
        <path
           style="fill:none;stroke:#ffff00;stroke-width:9.2;stroke-linecap:round;stroke-linejoin:bevel;stroke-dasharray:none;stroke-opacity:1"
           d="m 269.52493,162.71414 29.16607,61.58354 v 0"
           id="path16" />
        <path
           style="opacity:1;fill:none;stroke:#ffff00;stroke-width:9.2;stroke-linecap:round;stroke-linejoin:bevel;stroke-dasharray:none;stroke-opacity:1"
           d="M 195.37668,103.02822 139.46503,64.078528 v 0"
           id="path12" />
        <path
           style="fill:none;stroke:#ffff00;stroke-width:9.2;stroke-linecap:round;stroke-linejoin:bevel;stroke-dasharray:none;stroke-opacity:1"
           d="m 187.2393,122.65797 -68.13995,-0.37115 v 0"
           id="path12-6" />
        <path
           style="fill:none;stroke:#ffff00;stroke-width:9.2;stroke-linecap:round;stroke-linejoin:bevel;stroke-dasharray:none;stroke-opacity:1"
           d="M 219.18093,86.193611 182.28902,28.903319 v 0"
           id="path12-8"
           inkscape:transform-center-x="8.795092"
           inkscape:transform-center-y="-21.359509" />
        <path
           style="fill:none;stroke:#ffff00;stroke-width:9.2;stroke-linecap:round;stroke-linejoin:bevel;stroke-dasharray:none;stroke-opacity:1"
           d="m 240.34119,83.059926 -1.37818,-68.127021 v 0"
           id="path12-8-2"
           inkscape:transform-center-x="-3.709213"
           inkscape:transform-center-y="-22.79965" />
        <path
           style="fill:none;stroke:#ffff00;stroke-width:9.2;stroke-linecap:round;stroke-linejoin:bevel;stroke-dasharray:none;stroke-opacity:1"
           d="m 274.5507,81.519373 29.16607,-61.583534 v 0"
           id="path12-1" />
        <path
           style="fill:none;stroke:#ffff00;stroke-width:9.2;stroke-linecap:round;stroke-linejoin:bevel;stroke-dasharray:none;stroke-opacity:1"
           d="m 294.47832,99.664988 53.87079,-41.726819 v 0"
           id="path12-1-2" />
      </g>
      <g
         id="g26">
        <path
           style="fill:#ffffff"
           d="m 334.07957,173.36729 c -14.60086,0.65872 -29.37976,-1.52791 -43.82511,0.84632 -11.22785,-1.32287 -15.24903,24.32931 -12.19164,21.67729 -15.0927,-2.2282 -23.93364,24.17917 -5.0636,26.32722 11.01091,6.19406 25.63559,-3.42229 33.35282,-0.83771 7.59845,10.46839 23.59823,11.15044 35.73455,13.3549 17.12001,1.87776 35.16469,-1.21366 50.41752,-9.22568 9.50178,-12.12352 8.11091,9.19792 21.27273,7.05434 18.36651,5.89522 35.01534,-10.34476 36.49001,-28.06402 5.24499,-17.73151 -10.86068,-37.22398 -29.4928,-33.01732 -9.34364,9.64666 -12.66393,-9.08659 -24.34154,-10.62267 -12.90805,-4.63394 -27.95769,-4.85825 -41.09653,-1.22187 -7.08398,8.77776 -21.69349,-9.61823 -25.32253,7.26242 -1.83763,4.25649 -2.56943,8.86265 -3.47253,13.37721"
           id="path7" />
        <path
           style="opacity:1;fill:#e6e6e6;fill-opacity:1;stroke:none;stroke-width:1;stroke-linecap:round;stroke-linejoin:bevel;stroke-dasharray:none;stroke-opacity:1"
           d="m 421.56405,171.46862 c -6.94621,1.13486 -3.50358,19.62625 -10.23077,21.41017 -8.72994,4.52678 -17.89391,10.93673 -25.75099,16.79269 -5.17617,3.36171 -18.22055,0.18159 -23.0994,3.99797 -4.73686,3.14813 -9.78313,5.80582 -14.57808,8.95203 -5.53946,2.34513 -10.74503,5.04373 -16.78051,5.75986 -5.36229,0.6739 -10.7822,0.29823 -16.17287,0.39156 4.30536,2.82177 9.26629,3.08368 14.01528,5.0809 6.2257,1.31613 12.61872,1.63584 18.85695,2.91505 6.35913,0.31776 12.74564,-0.0383 19.10142,0 5.81108,-1.00753 10.55848,-4.95971 16.5318,-5.26646 6.61726,-0.83981 13.53684,-1.36338 19.89477,1.08951 5.38064,1.03763 10.91146,1.48891 16.13289,3.17042 8.53356,0.67922 17.10726,-0.0956 25.65531,0.17494 7.28908,0.40427 12.18236,-5.54709 14.24559,-11.89122 3.41946,-6.85088 3.64694,-22.1849 -1.74987,-27.79294 -2.51858,-4.85758 -6.80217,-8.40169 -9.41837,-13.23478 -4.30004,-3.51957 -5.69915,-9.04974 -11.10548,-10.66127 -3.74588,-1.42672 -11.15498,-2.36646 -15.54767,-0.88843 z"
           id="path18"
           sodipodi:nodetypes="ccccccccccccccccccc" />
      </g>
      <g
         id="g25">
        <path
           style="fill:#ffffff"
           d="m 164.59386,243.12147 c -12.16275,-4.93666 -28.32038,-8.30829 -40.00892,-2.59282 -3.8437,7.96166 12.36774,13.60474 -1.45791,13.28518 -10.60016,4.90022 -25.318385,22.92354 -10.04728,31.39844 7.61336,-2.43753 -2.05907,15.89233 10.78169,16.45918 9.77578,3.85699 32.42897,5.85714 31.93733,-6.40765 0.0563,19.64703 26.77503,20.30292 41.3246,19.55569 10.89172,1.41917 18.84941,-9.77129 22.90818,-14.14495 14.5917,7.69442 33.34098,-9.67324 26.44215,-25.02443 -0.86096,-6.66408 -20.96861,-16.54467 -15.40861,-8.1765 8.48632,-12.98847 -7.60807,-24.04669 -18.30089,-28.30985 -11.41757,-2.7773 -27.45155,-8.02934 -36.90318,0.15896 l 0.0408,0.65764 -1.25645,0.62822"
           id="path6" />
        <path
           style="opacity:1;fill:#e6e6e6;fill-opacity:1;stroke:none;stroke-width:1;stroke-linecap:round;stroke-linejoin:bevel;stroke-dasharray:none;stroke-opacity:1"
           d="m 234.32565,264.97677 c 3.85328,1.76533 7.95757,4.68218 11.18904,7.24348 1.64973,2.35505 2.46069,6.41291 3.24808,8.97053 0.8055,4.12835 3.31231,8.97261 0.89019,12.92133 -1.12086,4.50323 -6.12545,6.01162 -10.03038,7.29635 -5.36741,1.42176 -10.94803,2.47461 -16.51002,1.54436 -4.33951,-1.39836 -4.67332,2.18132 -6.47711,4.65829 -2.29642,2.11355 -3.74521,4.8904 -6.51975,6.45189 -2.77725,0.79669 -5.40901,2.52906 -8.43526,2.94802 -5.18264,0.21968 -10.53368,1.54601 -15.59206,-0.1982 -1.7621,-0.23913 -7.64894,-0.0378 -10.32065,-1.48974 -3.83211,-1.81397 -7.37678,-3.02469 -11.40661,-4.36961 -3.30689,-0.86071 -2.52425,-4.09649 -5.77518,-5.03507 -3.43361,0.41701 -3.7877,-8.31204 0.0236,-6.76046 3.35678,0.0937 4.23568,2.87334 7.5857,2.81952 3.35624,-0.56617 5.11658,-0.16957 8.4163,-0.85097 4.54723,-0.89012 9.16848,-0.99739 13.76618,-1.27982 3.72629,-0.63288 7.51072,-0.31673 11.22671,-0.88836 3.80191,-0.78189 7.29123,-2.69931 10.56027,-4.82868 5.79173,-3.76898 10.32174,-9.02789 15.13795,-13.88968 2.53657,-1.98356 4.53581,-4.47492 6.35765,-7.04512 0.94056,-2.20266 1.90821,-5.93466 2.66532,-8.21806 z"
           id="path19"
           sodipodi:nodetypes="ccccccccccccccccccccccc" />
      </g>
      <g
         id="g24">
        <path
           style="fill:#ffffff"
           d="m 366.25276,274.53252 c -5.74362,-0.30005 -22.01359,-2.05879 -27.0135,0 -1.93634,0.79731 -3.54503,2.28859 -5.02576,3.76932 -5.97782,5.97781 -10.20273,13.07274 -8.7951,21.98773 0.62982,3.98887 8.92764,7.71861 12.56442,6.91043 0.9142,-0.20315 1.85068,-0.59424 2.51288,-1.25644 0.9366,-0.93659 0.62822,-4.50089 0.62822,-2.51288 0,7.93146 -0.37941,10.29807 3.76933,18.2184 4.02656,7.68707 26.53644,14.36091 35.18037,15.70552 4.5569,0.70885 9.20915,0.62822 13.82086,0.62822 5.17404,0 11.10202,0.55612 15.70552,-2.51288 0.62822,-0.41881 0.72256,-1.35078 1.25644,-1.88466 0.46809,-0.46809 11.06361,0.90109 12.56442,0.62822 2.99983,-0.54543 6.1235,-1.04351 8.79509,-2.51289 2.6161,-1.43885 7.73156,-9.74483 9.42331,-12.56441 0.48183,-0.80304 0.33813,-2.32922 1.25644,-2.51289 0.87119,-0.17423 1.13127,1.41379 1.88467,1.88467 2.62189,1.63868 5.29615,3.24926 8.16687,4.39754 6.6206,2.64824 16.88203,2.67274 20.73129,-5.02576 1.5245,-3.04902 1.77818,-6.6443 1.88466,-10.05154 0.34844,-11.15021 -7.8669,-27.25261 -19.47485,-30.1546 -1.42208,-0.35552 -2.9317,0 -4.39754,0 -1.25645,0 -2.56588,-0.36104 -3.76933,0 -2.51985,0.75596 -2.84938,3.1411 -2.51288,3.1411 0.62822,0 0,-1.25644 0,-1.88466 0,-1.04703 0.50848,-2.22583 0,-3.1411 -0.65118,-1.17212 -1.96622,-1.8667 -3.14111,-2.51289 -8.25009,-4.53755 -8.48471,-4.78356 -16.96196,-5.02576 -10.00535,-0.28587 -13.18892,-1.12556 -21.35951,1.88466 -1.75751,0.6475 -3.29685,1.7925 -5.02577,2.51288 -0.79699,0.33208 -1.74062,0.2421 -2.51288,0.62822 -0.1873,0.0937 0.20941,0.62823 0,0.62823 -0.90929,0 -2.52968,-4.21054 -3.1411,-5.02577 -4.17721,-5.56962 -7.89017,-7.86542 -15.0773,-5.65399 -2.96479,0.91224 -7.53035,3.28778 -9.42332,5.65399 -1.28838,1.61048 -1.10951,4.14266 -2.51288,5.65399 -6.38555,6.87674 -5.65399,-0.0934 -5.65399,6.2822"
           id="path9" />
        <path
           style="opacity:1;fill:#e6e6e6;fill-opacity:1;stroke:none;stroke-width:1;stroke-linecap:round;stroke-linejoin:bevel;stroke-dasharray:none;stroke-opacity:1"
           d="m 451.37669,277.67362 c 3.9923,-0.35681 7.93027,0.0956 11.44865,2.14517 3.83434,1.99433 6.4464,6.07193 7.87191,10.06449 3.27532,4.83754 3.71576,9.71554 4.70889,14.80384 0.0458,5.44203 0.23676,10.89664 0.15705,16.33374 -1.13198,3.91785 -4.28286,7.08263 -8.6558,6.51008 -3.40529,0.40858 -6.79425,-1.96955 -9.8589,-1.90788 -4.92605,-0.76615 -9.0367,-2.10928 -11.79696,-6.17276 -0.98145,-2.37099 -1.77725,-3.49522 -2.74897,-0.39309 -0.0309,5.22945 0.62101,8.968 -6.36023,12.17224 -4.61443,1.71222 -9.7815,3.03092 -14.54837,4.27283 -4.11935,1.76265 -12.8828,1.69306 -17.23231,2.67378 -2.17377,0.62384 -18.35849,0.90082 -23.50276,0.59204 -2.39061,-0.79893 -6.25952,-1.71303 -9.26625,-3.14111 -5.32125,-1.01834 5.65616,-2.06851 7.14236,-3.61099 4.74588,-1.28577 9.07379,-3.58892 13.61942,-5.39497 4.9003,-2.1166 9.64454,-4.64869 14.84942,-5.98127 2.89365,-0.95869 7.84568,-2.6588 11.72504,-2.76295 5.94756,-0.97881 11.36128,-3.92979 16.57864,-6.77953 3.3361,-2.97405 7.87962,-4.37175 10.60381,-8.04039 2.91711,-2.42132 4.28788,-6.24159 5.46096,-9.67389 0.64434,-0.71496 2.02863,-6.0623 2.00317,-9.11306 -0.14793,-2.1177 -0.43372,-5.15885 -2.19877,-6.59632 z"
           id="path20"
           sodipodi:nodetypes="ccccccccccccccccccccccc" />
      </g>
      <g
         id="g23">
        <path
           style="fill:#ffffff"
           d="m 270.76319,370.65031 c -13.25003,-9.00932 -36.24412,-5.14443 -35.38369,14.16563 -1.33831,17.28495 22.0214,16.8539 28.65395,19.78237 8.34383,7.70769 24.27412,12.82954 37.29633,13.97389 11.64804,1.99184 36.07807,0.18648 30.88656,-17.33694 -0.43856,9.80782 15.59085,14.93992 24.78045,16.06812 14.80859,2.51918 33.37598,-2.44312 38.19122,-18.33818 0.53183,-7.73989 -2.51705,-5.6962 4.56495,-4.60091 12.50969,-12.01151 1.50236,-26.80506 -10.66701,-33.08031 -17.94327,-11.80524 -39.38262,-17.59885 -60.84345,-16.45472 -6.38266,0.0331 -3.12723,8.87665 -12.65722,4.92086 -14.34123,-0.26367 -33.83097,-5.05051 -41.27967,11.47484 -1.94435,2.81718 -2.97902,6.07935 -3.54242,9.42535 z"
           id="path8" />
        <path
           style="opacity:1;fill:#e6e6e6;fill-opacity:1;stroke:none;stroke-width:1;stroke-linecap:round;stroke-linejoin:bevel;stroke-dasharray:none;stroke-opacity:1"
           d="m 378.919,355.59749 c 4.68031,3.01264 9.72869,2.92326 14.0551,8.98723 7.88626,1.30889 13.80378,12.70532 13.64558,16.80597 -0.47835,3.95813 -0.42459,10.03094 -4.68672,11.9664 -1.93091,2.52587 -8.84642,-1.24749 -4.94776,4.26778 2.04108,5.0095 -4.44149,7.875 -6.96072,11.72315 -3.75291,4.85474 -9.4375,7.85666 -15.21871,9.53949 -5.95538,2.92048 -12.90977,2.88389 -19.20676,1.21896 -5.04925,-0.48769 -11.16729,-1.74663 -14.68775,-5.50326 -2.97688,-2.3853 -3.08147,-1.56743 -6.40123,-5.70383 -3.67587,3.492 -6.20562,7.93704 -11.51253,8.58786 -3.99819,1.29019 -9.92495,1.53345 -13.82091,2.52204 -5.27795,0.15243 -12.66018,-0.86131 -17.88269,-1.54216 -4.65154,-1.616 -4.644,-2.32515 -9.53435,-4.1137 -1.95242,-0.50481 -7.44499,-1.57797 -2.43614,-2.34169 7.71051,-2.69321 15.0204,-6.56713 22.96778,-8.66067 5.21052,-1.95165 10.43356,-4.07316 16.09574,-4.19848 6.99551,-1.24241 14.1463,-1.85417 20.99656,-3.79747 5.2577,-1.41026 10.50549,-3.85354 15.43435,-6.22331 4.27914,-2.73904 8.46121,-6.05744 11.66302,-9.99069 1.68976,-1.48867 4.35543,-8.36527 4.31072,-7.08801 -0.0951,-0.0442 3.29694,-5.57832 4.41615,-7.8483"
           id="path21"
           sodipodi:nodetypes="cccccccccccccccccccccc" />
      </g>
      <g
         id="g22">
        <path
           style="fill:#ffffff;stroke-width:1.07534"
           d="m 2.5411135,219.24908 c -7.024109,-6.68134 4.825804,5.77671 -3.16559901,-4.03264 -12.27342149,-13.88914 6.73490601,-20.5734 16.24174451,-30.5195 16.819598,0.3268 36.751011,-17.09867 53.03103,-3.76933 4.572501,-9.75819 34.118091,-2.18308 29.058111,9.42331 2.46818,-0.0538 34.3381,19.11659 14.05207,22.32213 -9.86595,-1.16831 -11.31472,-1.93493 -6.14388,5.76594 5.65351,19.57021 -32.0255,5.35357 -32.55795,13.51266 4.18472,16.12117 -31.6131,8.53415 -29.834185,6.77228 -10.135756,8.39511 -33.6661045,7.51785 -46.4929605,1.88466 -10.8277185,-7.65032 5.607473,-13.26743 5.811619,-21.35951 z"
           id="path5" />
        <path
           style="opacity:1;fill:#e6e6e6;fill-opacity:1;stroke:none;stroke-width:1;stroke-linecap:round;stroke-linejoin:bevel;stroke-dasharray:none;stroke-opacity:1"
           d="m 7.3296173,191.45849 c -4.1915172,0.33332 -8.5830302,3.08893 -9.981717,7.18723 -0.5832569,3.40668 -0.5522405,6.92318 -0.4574349,10.35943 0.7200988,2.94996 2.92441476,5.32965 3.77586344,8.21805 1.50805406,1.78463 4.08683006,2.90457 0.77921216,4.12184 -2.08796115,2.50027 -3.5642083,5.39995 -6.1098429,7.42786 -3.1285033,1.94999 -3.2916731,6.15995 -1.8987288,9.2255 2.4610213,3.67976 6.60476288,5.72059 9.8946749,8.54327 3.3544924,0.97767 6.9551008,0.27658 10.4021278,0.14152 5.034222,-0.56489 10.149774,0.4482 15.151555,-0.41491 3.878905,-0.60864 7.531807,-1.26784 10.872294,-3.28036 1.8854,-2.12197 5.969689,-3.52333 7.885074,0.35382 10.411813,-5.34792 18.830657,7.8019 27.178645,-7.47185 0.613498,-2.80661 4.610028,-5.96303 2.708472,-7.8165 -3.727018,-0.0576 -6.938834,2.08363 -10.340197,3.16697 -3.677003,1.20258 -7.354485,2.58954 -11.158801,3.4513 -3.746827,0.32913 -7.423804,1.09363 -11.164672,1.43086 -3.714767,0.30099 -7.437961,-0.1302 -11.105481,-0.66633 -3.250397,-1.52144 -5.768139,-4.03297 -7.939999,-6.83083 -2.635932,-2.66842 -4.132899,-6.2467 -6.497126,-9.16106 -1.861869,-3.36956 -2.863872,-7.10804 -4.882031,-10.4001 -0.896719,-2.7777 -2.244581,-5.11113 -3.336024,-7.59078 -1.3082336,-3.58153 -2.3832315,-7.25511 -4.0776519,-10.68514 2.1938886,4.20393 -1.181355,-2.51109 -0.3645407,-1.97511"
           id="path22"
           sodipodi:nodetypes="cccccccccccccccccccccccc" />
      </g>
    </g>
    <g
       id="g130">
      <g
         id="g123"
         inkscape:label="mirino"
         style="display:inline">
        <path
           style="fill:none;stroke:#000000;stroke-width:10;stroke-linecap:square;stroke-linejoin:miter;stroke-dasharray:none"
           d="M 0.88843843,243.43213 H 230.99399 v 0"
           id="path11" />
        <path
           style="fill:none;stroke:#000000;stroke-width:10;stroke-linecap:square;stroke-linejoin:miter;stroke-dasharray:none"
           d="M 40.708838,191.87559 39.250621,288.7696"
           id="path23" />
        <path
           style="fill:none;stroke:#000000;stroke-width:10;stroke-linecap:square;stroke-linejoin:miter;stroke-dasharray:none"
           d="m 77.294143,207.00615 -0.888438,74.62883"
           id="path24" />
        <path
           style="fill:none;stroke:#000000;stroke-width:10;stroke-linecap:square;stroke-linejoin:miter;stroke-dasharray:none"
           d="m 107.79095,211.43717 -0.5798,63.10149"
           id="path25" />
        <path
           style="fill:none;stroke:#000000;stroke-width:10;stroke-linecap:square;stroke-linejoin:miter;stroke-dasharray:none"
           d="m 137.5237,220.31639 0.36852,46.23148"
           id="path26" />
        <path
           style="fill:none;stroke:#000000;stroke-width:10;stroke-linecap:square;stroke-linejoin:miter;stroke-dasharray:none"
           d="m 167.23642,222.98021 -0.41999,41.79228"
           id="path27" />
        <path
           style="fill:none;stroke:#000000;stroke-width:10;stroke-linecap:square;stroke-linejoin:miter;stroke-dasharray:none"
           d="m 193.67958,227.44024 -0.88844,31.98378"
           id="path28" />
        <path
           style="display:inline;fill:none;stroke:#000000;stroke-width:10;stroke-linecap:square;stroke-linejoin:bevel;stroke-dasharray:none"
           d="m 246.6613,511.78773 -0.24752,-230.10542 v 0"
           id="path11-1" />
        <path
           style="display:inline;fill:none;stroke:#000000;stroke-width:10;stroke-linecap:square;stroke-linejoin:bevel;stroke-dasharray:none"
           d="m 195.08794,470.97501 96.84356,3.44959"
           id="path23-7" />
        <path
           style="display:inline;fill:none;stroke:#000000;stroke-width:10;stroke-linecap:square;stroke-linejoin:bevel;stroke-dasharray:none"
           d="m 210.15315,435.42126 74.62974,0.80816"
           id="path24-1" />
        <path
           style="display:inline;fill:none;stroke:#000000;stroke-width:10;stroke-linecap:square;stroke-linejoin:bevel;stroke-dasharray:none"
           d="m 214.56381,406.09802 63.07718,-1.84473"
           id="path25-1" />
        <path
           style="display:inline;fill:none;stroke:#000000;stroke-width:10;stroke-linecap:square;stroke-linejoin:bevel;stroke-dasharray:none"
           d="m 223.3986,375.17741 46.23105,-0.41825"
           id="path26-5" />
        <path
           style="display:inline;fill:none;stroke:#000000;stroke-width:10;stroke-linecap:round;stroke-linejoin:bevel;stroke-dasharray:none"
           d="M 501.42011,247.37327 H 271.31456 v 0"
           id="path11-7" />
        <path
           style="display:inline;fill:none;stroke:#000000;stroke-width:10;stroke-linecap:square;stroke-linejoin:bevel;stroke-dasharray:none"
           d="m 460.55194,195.84384 3.55376,96.83979"
           id="path23-9" />
        <path
           style="display:inline;fill:none;stroke:#000000;stroke-width:10;stroke-linecap:square;stroke-linejoin:bevel;stroke-dasharray:none"
           d="m 425.01441,210.94729 0.88843,74.62883"
           id="path24-5" />
        <path
           style="display:inline;fill:none;stroke:#000000;stroke-width:10;stroke-linecap:square;stroke-linejoin:bevel;stroke-dasharray:none"
           d="m 394.95489,215.37732 -0.29478,63.10347"
           id="path25-4" />
        <path
           style="display:inline;fill:none;stroke:#000000;stroke-width:10;stroke-linecap:square;stroke-linejoin:bevel;stroke-dasharray:none"
           d="m 364.78485,224.25753 -0.36852,46.23148"
           id="path26-3" />
        <path
           style="display:inline;fill:none;stroke:#000000;stroke-width:10;stroke-linecap:square;stroke-linejoin:bevel;stroke-dasharray:none"
           d="m 334.39369,226.93919 1.77687,41.7566"
           id="path27-1" />
        <path
           style="display:inline;fill:none;stroke:#000000;stroke-width:10;stroke-linecap:square;stroke-linejoin:bevel;stroke-dasharray:none"
           d="m 308.62897,231.38138 0.88844,31.98378"
           id="path28-2" />
        <path
           style="display:inline;fill:none;stroke:#000000;stroke-width:10;stroke-linecap:square;stroke-linejoin:bevel;stroke-dasharray:none"
           d="m 226.04756,344.78339 41.75849,1.73195"
           id="path27-2" />
        <path
           style="display:inline;fill:none;stroke:#000000;stroke-width:10;stroke-linecap:square;stroke-linejoin:bevel;stroke-dasharray:none"
           d="m 230.46203,319.0139 31.98472,0.85404"
           id="path28-7" />
        <path
           style="display:inline;fill:none;stroke:#000000;stroke-width:9.24883;stroke-linecap:square;stroke-linejoin:bevel;stroke-dasharray:none"
           d="M 249.02169,8.1455882 248.77225,203.46464 v 0"
           id="path11-1-1" />
        <path
           style="display:inline;fill:none;stroke:#000000;stroke-width:9.24883;stroke-linecap:square;stroke-linejoin:bevel;stroke-dasharray:none"
           d="m 197.04829,42.788413 97.59474,-2.928095"
           id="path23-7-3" />
        <path
           style="display:inline;fill:none;stroke:#000000;stroke-width:9.24883;stroke-linecap:square;stroke-linejoin:bevel;stroke-dasharray:none"
           d="m 212.23036,72.967298 75.20861,-0.685986"
           id="path24-1-8" />
        <path
           style="display:inline;fill:none;stroke:#000000;stroke-width:9.24883;stroke-linecap:square;stroke-linejoin:bevel;stroke-dasharray:none"
           d="m 216.67523,97.857571 63.56644,1.565851"
           id="path25-1-7" />
        <path
           style="display:inline;fill:none;stroke:#000000;stroke-width:9.24883;stroke-linecap:square;stroke-linejoin:bevel;stroke-dasharray:none"
           d="m 225.57855,124.10373 46.58964,0.35502"
           id="path26-5-4" />
        <path
           style="display:inline;fill:none;stroke:#000000;stroke-width:9.24883;stroke-linecap:square;stroke-linejoin:bevel;stroke-dasharray:none"
           d="m 228.24805,149.90291 42.0824,-1.47012"
           id="path27-2-2" />
        <path
           style="display:inline;fill:none;stroke:#000000;stroke-width:9.24883;stroke-linecap:square;stroke-linejoin:bevel;stroke-dasharray:none"
           d="m 232.69676,171.77668 32.23282,-0.72493"
           id="path28-7-7" />
        <ellipse
           style="display:inline;opacity:1;fill:none;stroke:#000000;stroke-width:10;stroke-linecap:round;stroke-linejoin:bevel;stroke-dasharray:none"
           id="path4"
           cx="254.53761"
           cy="260.31247"
           rx="253.64917"
           ry="258.53558" />
      </g>
      <g
         id="g129">
        <path
           style="fill:#806600;stroke:#554400;stroke-width:10;stroke-linecap:square;stroke-linejoin:miter;stroke-dasharray:none;stroke-opacity:1"
           d="m 180.353,109.27792 c 1.71236,2.9706 4.00457,34.13238 2.66532,48.86412 -1.07235,11.79589 -2.00947,9.24357 -4.44219,20.43408 -0.76534,3.52055 -0.71735,7.21781 -1.77688,10.66126 -1.32655,4.3113 -3.55375,8.29209 -5.33063,12.43814 -1.25644,2.9317 -1.94661,6.12928 -3.55375,8.88438 -2.6901,4.61159 -6.32787,8.63963 -8.88439,13.32658 -0.76367,1.40007 -0.78061,3.19687 -1.77687,4.44219 -1.44491,1.80613 -3.69512,2.80667 -5.33064,4.4422 -5.93214,5.93214 -10.25291,13.42407 -15.99189,19.54564 -2.86444,3.0554 -5.82898,6.01994 -8.88438,8.88439 -2.46335,2.30938 -5.60834,3.83146 -7.99595,6.21906 -5.88249,5.8825 0.47191,1.38362 -5.33063,6.21907 -6.72453,5.60378 0.72729,-1.61572 -4.44219,3.55376 -1.2326,1.23259 -3.76755,3.12616 -2.66532,5.33063 1.29203,2.58405 11.99046,5.38486 14.21502,6.21907 5.82491,2.18434 11.81843,4.43397 17.76877,6.21907 4.5614,1.36842 9.73079,1.17057 14.21501,2.66531 1.01298,0.33766 1.67392,1.38032 2.66532,1.77688 1.67254,0.66902 3.56422,0.53516 5.33063,0.88844 0.59188,0.11837 6.82052,0.38265 7.10751,0 0.79464,-1.05953 1.00708,-2.47604 1.77687,-3.55376 0.73029,-1.02241 1.77688,-1.77687 2.66532,-2.66531 1.48073,-2.96146 2.83422,-5.99004 4.44219,-8.88439 3.33834,-6.00902 4.60135,-7.00678 7.99595,-12.43814 1.75483,-2.80773 2.87244,-5.96913 4.44219,-8.88438 0.81868,-1.52041 2.02399,-2.83889 2.66531,-4.44219 2.03711,-5.09277 0.89002,-11.5592 1.77688,-16.88033 0.40148,-2.40886 1.34002,-4.70482 1.77688,-7.10751 0.99994,-5.49967 1.22144,-11.32598 1.77687,-16.88033 0.63162,-6.31616 1.44396,-3.33309 2.66532,-10.66126 1.51894,-9.11366 -0.76612,-19.52955 1.77688,-28.43003 0.43812,-1.53343 1.41827,-2.88824 1.77687,-4.44219 3.72774,-16.15351 -0.75851,-0.021 0.88844,-11.5497 0.0936,-0.65555 0.8063,-1.11979 0.88844,-1.77688 0.40572,-3.24578 0.52721,-6.52179 0.88844,-9.77282 0.13081,-1.17734 -0.28731,-2.40454 0,-3.55376 0.32121,-1.28486 1.48957,-2.26088 1.77688,-3.55375 0.32121,-1.44547 -0.16352,-2.97052 0,-4.44219 0.23808,-2.14279 1.53878,-4.07628 1.77687,-6.21907 0.26163,-2.35468 -0.33505,-4.76215 0,-7.10751 0.40706,-2.84939 0.88844,-4.45565 0.88844,-7.10751 0,-1.92662 0.78027,-9.88099 0,-10.66126 -0.8836,-0.88359 -2.98308,1.20621 -3.55375,1.77688"
           id="path128" />
        <path
           style="fill:#00ff00;stroke:#00d200;stroke-width:10;stroke-linecap:square;stroke-linejoin:miter;stroke-dasharray:none;stroke-opacity:1"
           d="m 179.46456,101.28198 c -10.6383,-6.472713 -22.88457,-8.281775 -34.6491,-11.549698 -1.80466,-0.501295 -3.48312,-1.468959 -5.33063,-1.776877 -10.78072,-1.796788 -21.99807,-0.888439 -32.87222,-0.888439 -6.1119,0 -18.470483,-1.10347 -23.987836,0 -2.211584,0.442317 -4.050465,2.045714 -6.219069,2.665316 -16.646131,4.756037 8.577396,-7.158237 -18.657207,7.107507 -9.156372,4.796191 -17.531917,9.588601 -25.764714,15.991891 -2.205158,1.71512 -7.522932,4.78256 -5.330631,5.33063 1.149216,0.28731 2.385287,-0.19474 3.553754,0 2.670509,0.44509 4.665845,2.57709 7.107507,3.55376 0.54993,0.21997 1.196087,-0.11616 1.776877,0 2.795183,0.55903 6.196127,1.76922 8.884384,2.66531 5.010655,1.67022 10.13945,3.55777 15.103454,5.33063 2.123987,0.75857 4.050465,2.04572 6.219069,2.66532 13.134297,1.87632 0.210646,-0.46987 10.661261,2.66531 7.391163,2.21735 16.345401,0.88844 23.987841,0.88844 6.84282,0 14.5921,0.74782 21.32252,0 6.51569,-0.72397 13.40783,-4.17313 19.54564,-6.21907 7.30639,-2.43546 14.87087,-4.01704 22.21097,-6.21907 3.74852,-1.12456 9.01324,-3.2757 12.43813,-5.33063 0.71826,-0.43095 1.02768,-1.40228 1.77688,-1.77688 1.09213,-0.54606 2.42004,-0.43495 3.55375,-0.88843 0.77772,-0.31109 1.512,-0.98224 1.77688,-1.77688 0.78913,-2.3674 0,-6.32474 0,-8.88439 0,-0.59229 0.41881,-1.35806 0,-1.77687 -0.20941,-0.20941 -0.60113,0.0718 -0.88844,0 -2.0916,-0.5229 -4.14604,-1.18459 -6.21907,-1.77688 z"
           id="path123" />
        <path
           style="fill:#00ff00;stroke:#00d200;stroke-width:10;stroke-linecap:square;stroke-linejoin:miter;stroke-dasharray:none;stroke-opacity:1"
           d="m 190.12582,103.05886 c 3.5199,-1.00482 6.21862,-4.264371 9.77283,-5.330633 17.91585,-5.374755 37.45717,-3.924042 55.97162,-3.553753 18.87675,0.377535 39.94129,0.936364 58.63693,3.553753 4.837,0.67718 9.47668,2.369173 14.21502,3.553753 18.97508,4.74377 3.2313,-0.0113 17.76877,6.21907 1.72155,0.73781 3.68634,0.87999 5.33063,1.77688 7.34609,4.00696 15.43994,16.48088 18.65721,23.98783 1.91569,4.46995 5.24859,10.25106 6.21906,15.10346 0.2904,1.45197 -0.2094,2.97634 0,4.44219 0.13245,0.92708 1.82494,2.66532 0.88844,2.66532 -3.52985,0 -19.62718,-13.93791 -21.32252,-15.10346 -6.76559,-4.65134 -24.02519,-11.68996 -31.09534,-14.21501 -3.44972,-1.23205 -7.14467,-1.63964 -10.66127,-2.66532 -8.74384,-2.55029 -17.03381,-6.31647 -25.76471,-8.88438 -8.24413,-2.42475 -16.79262,-4.12932 -24.87628,-7.10751 -7.32347,-2.69812 -14.59346,-6.09157 -22.21096,-7.995946 -4.34769,-1.086924 -8.9321,-0.897981 -13.32657,-1.776877 -9.23679,-1.847356 -5.19909,-2.144032 -15.10346,-2.665315 -2.95736,-0.155651 -5.93045,0.210995 -8.88438,0 -3.34459,-0.238899 -8.29451,-1.776877 -11.5497,-1.776877"
           id="path124" />
        <path
           style="fill:#00ff00;stroke:#00d200;stroke-width:10;stroke-linecap:square;stroke-linejoin:miter;stroke-dasharray:none;stroke-opacity:1"
           d="m 208.78303,106.61261 c 18.27006,2.78734 27.42573,19.38765 37.31442,32.87222 6.31146,8.60655 10.71411,17.09176 13.32657,27.5416 2.33894,9.35573 4.44219,18.78737 4.44219,28.43002 0,2.47343 0.56266,25.20206 0,25.76472 -1.22104,1.22104 -1.80857,-2.9429 -2.66531,-4.44219 -5.17032,-9.04806 3.26371,13.81994 -3.55376,-7.99595 -2.89616,-9.26774 -7.18868,-14.37738 -11.54969,-23.0994 -1.30439,-2.60877 -2.24937,-5.38717 -3.55376,-7.99594 -5.02332,-10.04664 -11.00439,-19.77008 -16.88033,-29.31847 -1.25134,-2.03343 -2.48598,-4.08353 -3.55375,-6.21907 -0.41882,-0.83763 -0.34411,-1.90326 -0.88844,-2.66532 -0.97372,-1.36321 -2.5486,-2.21355 -3.55375,-3.55375 -3.23199,-4.30932 -0.15701,-2.61323 -3.55376,-5.33063 -4.15576,-3.32461 -7.8731,-5.59059 -10.66126,-9.77282 -0.48168,-0.72253 0,-3.58587 0,-4.4422 0,-0.88843 -0.49282,-1.92609 0,-2.66531 1.64272,-2.46409 3.55375,-4.73834 5.33063,-7.10751 z"
           id="path125" />
        <path
           style="fill:#00ff00;stroke:#00d200;stroke-width:10;stroke-linecap:square;stroke-linejoin:miter;stroke-dasharray:none;stroke-opacity:1"
           d="m 192.79114,113.72012 c -5.57752,2.07976 -8.49901,6.72214 -12.43814,10.66126 -9.39183,9.39183 -19.90123,17.8936 -25.76471,30.20691 -1.49028,3.12958 -2.29741,6.54221 -3.55376,9.77282 -0.81745,2.10203 -2.15817,4.02144 -2.66531,6.21907 -0.39955,1.73137 0.13628,3.55899 0,5.33063 -0.37522,4.87785 -0.88844,9.31742 -0.88844,14.21501 0,1.88675 -0.50945,13.70556 0,14.21502 0.16371,0.1637 2.50161,0.72473 2.66531,0.88844 0.20941,0.2094 -0.26488,0.756 0,0.88844 0.79465,0.39732 1.92609,-0.49282 2.66532,0 3.2057,2.13713 4.50018,6.27705 7.10751,8.88438 0.75503,0.75503 1.91029,1.02185 2.66531,1.77688 1.12769,1.12769 0.64919,3.3145 1.77688,4.44219 0.41881,0.41881 -0.11616,-1.19609 0,-1.77688 0.47893,-2.39466 1.00462,-4.79074 1.77688,-7.10751 3.57688,-10.73065 8.78515,-20.92558 11.5497,-31.98378 1.4083,-5.63322 1.72969,-10.5197 3.55375,-15.99189 2.7429,-8.22871 6.6735,-15.92959 9.77282,-23.98784 0.77395,-2.01227 1.05175,-4.18869 1.77688,-6.21907 0.2117,-4.32188 3.90433,-6.95287 5.33063,-10.66126 0.49274,-1.28112 4.37902,-19.60882 2.66532,-21.32252 -1.55346,-1.55346 -3.21026,2.15007 -3.55376,2.66531 -3.40375,5.10564 2.43574,-14.500561 -4.44219,8.88439 -0.6737,2.29059 -0.59229,4.73834 -0.88844,7.10751"
           id="path126" />
        <path
           style="fill:#00ff00;stroke:#00d200;stroke-width:10;stroke-linecap:square;stroke-linejoin:miter;stroke-dasharray:none;stroke-opacity:1"
           d="m 181.24144,95.062912 c 0,-5.33063 0,-10.661261 0,-15.991892 0,-5.626776 0,-11.253553 0,-16.88033 0,-0.888438 -0.79464,-2.267993 0,-2.665315 0.84494,-0.42247 6.23359,-0.713656 7.10751,-0.888439 0.64934,-0.129868 1.12753,-0.758569 1.77687,-0.888438 1.45198,-0.290395 3.03745,0.468248 4.4422,0 0.39732,-0.132441 0.51384,-0.701139 0.88843,-0.888438 2.19506,-1.097528 15.75718,0.02633 17.76877,0.888438 0.98144,0.420615 1.65234,1.439218 2.66532,1.776877 0.84285,0.280949 1.8034,-0.215478 2.66531,0 1.11876,0.279689 2.48141,2.129142 3.55376,2.665315 0.26488,0.132441 0.67903,-0.209407 0.88844,0 0.91688,0.916884 1.29097,2.581957 1.77687,3.553754 1.28583,2.571661 5.08939,5.089388 7.10751,7.107507 0.93471,0.934712 8.58447,15.253412 7.10751,15.991892 -2.10428,1.052139 -12.7238,-0.326809 -15.99189,0 -8.13655,0.813655 -16.19137,1.604637 -23.98784,3.553754 -1.14269,0.285671 -5.09804,0.655847 -5.33063,0.888438 -0.46825,0.468248 -0.33745,1.409553 -0.88844,1.776877 -0.49282,0.328545 -1.21498,-0.187299 -1.77688,0 -0.39732,0.132441 -0.51384,0.701139 -0.88844,0.888439 -3.71142,1.855712 -4.06525,0.488456 -8.88438,-0.888439 z"
           id="path127" />
        <path
           style="display:inline;fill:#806600;stroke:#554400;stroke-width:10;stroke-linecap:square;stroke-linejoin:miter;stroke-dasharray:none;stroke-opacity:1"
           d="m 374.77782,194.27168 c -1.71236,2.9706 -4.00457,34.13238 -2.66532,48.86412 1.07235,11.79589 2.00947,9.24357 4.44219,20.43408 0.76534,3.52055 0.71735,7.21781 1.77688,10.66126 1.32655,4.3113 3.55375,8.29209 5.33063,12.43814 1.25644,2.9317 1.94661,6.12928 3.55375,8.88438 2.6901,4.61159 6.32787,8.63963 8.88439,13.32658 0.76367,1.40007 0.78061,3.19687 1.77687,4.44219 1.44491,1.80613 3.69512,2.80667 5.33064,4.4422 5.93214,5.93214 10.25291,13.42407 15.99189,19.54564 2.86444,3.0554 5.82898,6.01994 8.88438,8.88439 2.46335,2.30938 5.60834,3.83146 7.99595,6.21906 5.88249,5.8825 -0.47191,1.38362 5.33063,6.21907 6.72453,5.60378 -0.72729,-1.61572 4.44219,3.55376 1.2326,1.23259 3.76755,3.12616 2.66532,5.33063 -1.29203,2.58405 -11.99046,5.38486 -14.21502,6.21907 -5.82491,2.18434 -11.81843,4.43397 -17.76877,6.21907 -4.5614,1.36842 -9.73079,1.17057 -14.21501,2.66531 -1.01298,0.33766 -1.67392,1.38032 -2.66532,1.77688 -1.67254,0.66902 -3.56422,0.53516 -5.33063,0.88844 -0.59188,0.11837 -6.82052,0.38265 -7.10751,0 -0.79464,-1.05953 -1.00708,-2.47604 -1.77687,-3.55376 -0.73029,-1.02241 -1.77688,-1.77687 -2.66532,-2.66531 -1.48073,-2.96146 -2.83422,-5.99004 -4.44219,-8.88439 -3.33834,-6.00902 -4.60135,-7.00678 -7.99595,-12.43814 -1.75483,-2.80773 -2.87244,-5.96913 -4.44219,-8.88438 -0.81868,-1.52041 -2.02399,-2.83889 -2.66531,-4.44219 -2.03711,-5.09277 -0.89002,-11.5592 -1.77688,-16.88033 -0.40148,-2.40886 -1.34002,-4.70482 -1.77688,-7.10751 -0.99994,-5.49967 -1.22144,-11.32598 -1.77687,-16.88033 -0.63162,-6.31616 -1.44396,-3.33309 -2.66532,-10.66126 -1.51894,-9.11366 0.76612,-19.52955 -1.77688,-28.43003 -0.43812,-1.53343 -1.41827,-2.88824 -1.77687,-4.44219 -3.72774,-16.15351 0.75851,-0.021 -0.88844,-11.5497 -0.0936,-0.65555 -0.8063,-1.11979 -0.88844,-1.77688 -0.40572,-3.24578 -0.52721,-6.52179 -0.88844,-9.77282 -0.13081,-1.17734 0.28731,-2.40454 0,-3.55376 -0.32121,-1.28486 -1.48957,-2.26088 -1.77688,-3.55375 -0.32121,-1.44547 0.16352,-2.97052 0,-4.44219 -0.23808,-2.14279 -1.53878,-4.07628 -1.77687,-6.21907 -0.26163,-2.35468 0.33505,-4.76215 0,-7.10751 -0.40706,-2.84939 -0.88844,-4.45565 -0.88844,-7.10751 0,-1.92662 -0.78027,-9.88099 0,-10.66126 0.8836,-0.88359 2.98308,1.20621 3.55375,1.77688"
           id="path128-9" />
        <path
           style="display:inline;fill:#00ff00;stroke:#00d200;stroke-width:10;stroke-linecap:square;stroke-linejoin:miter;stroke-dasharray:none;stroke-opacity:1"
           d="m 375.66626,186.27574 c 10.6383,-6.47271 22.88457,-8.28178 34.6491,-11.5497 1.80466,-0.50129 3.48312,-1.46896 5.33063,-1.77688 10.78072,-1.79678 21.99807,-0.88843 32.87222,-0.88843 6.1119,0 18.47048,-1.10347 23.98784,0 2.21158,0.44231 4.05046,2.04571 6.21907,2.66531 16.64613,4.75604 -8.5774,-7.15824 18.6572,7.10751 9.15637,4.79619 17.53192,9.5886 25.76472,15.99189 2.20515,1.71512 7.52293,4.78256 5.33063,5.33063 -1.14922,0.28731 -2.38529,-0.19474 -3.55376,0 -2.67051,0.44509 -4.66584,2.57709 -7.1075,3.55376 -0.54993,0.21997 -1.19609,-0.11616 -1.77688,0 -2.79518,0.55903 -6.19613,1.76922 -8.88438,2.66531 -5.01066,1.67022 -10.13945,3.55777 -15.10346,5.33063 -2.12399,0.75857 -4.05046,2.04572 -6.21907,2.66532 -13.13429,1.87632 -0.21064,-0.46987 -10.66126,2.66531 -7.39116,2.21735 -16.3454,0.88844 -23.98784,0.88844 -6.84282,0 -14.5921,0.74782 -21.32252,0 -6.51569,-0.72397 -13.40783,-4.17313 -19.54564,-6.21907 -7.30639,-2.43546 -14.87087,-4.01704 -22.21097,-6.21907 -3.74852,-1.12456 -9.01324,-3.2757 -12.43813,-5.33063 -0.71826,-0.43095 -1.02768,-1.40228 -1.77688,-1.77688 -1.09213,-0.54606 -2.42004,-0.43495 -3.55375,-0.88843 -0.77772,-0.31109 -1.512,-0.98224 -1.77688,-1.77688 -0.78913,-2.3674 0,-6.32474 0,-8.88439 0,-0.59229 -0.41881,-1.35806 0,-1.77687 0.20941,-0.20941 0.60113,0.0718 0.88844,0 2.0916,-0.5229 4.14604,-1.18459 6.21907,-1.77688 z"
           id="path123-8" />
        <path
           style="display:inline;fill:#00ff00;stroke:#00d200;stroke-width:10;stroke-linecap:square;stroke-linejoin:miter;stroke-dasharray:none;stroke-opacity:1"
           d="m 365.005,188.05262 c -3.5199,-1.00482 -6.21862,-4.26437 -9.77283,-5.33063 -17.91585,-5.37476 -37.45717,-3.92405 -55.97162,-3.55376 -18.87675,0.37754 -39.94129,0.93637 -58.63693,3.55376 -4.837,0.67718 -9.47668,2.36917 -14.21502,3.55375 -18.97508,4.74377 -3.2313,-0.0113 -17.76877,6.21907 -1.72155,0.73781 -3.68634,0.87999 -5.33063,1.77688 -7.34609,4.00696 -15.43994,16.48088 -18.65721,23.98783 -1.91569,4.46995 -5.24859,10.25106 -6.21906,15.10346 -0.2904,1.45197 0.2094,2.97634 0,4.44219 -0.13245,0.92708 -1.82494,2.66532 -0.88844,2.66532 3.52985,0 19.62718,-13.93791 21.32252,-15.10346 6.76559,-4.65134 24.02519,-11.68996 31.09534,-14.21501 3.44972,-1.23205 7.14467,-1.63964 10.66127,-2.66532 8.74384,-2.55029 17.03381,-6.31647 25.76471,-8.88438 8.24413,-2.42475 16.79262,-4.12932 24.87628,-7.10751 7.32347,-2.69812 14.59346,-6.09157 22.21096,-7.99595 4.34769,-1.08692 8.9321,-0.89798 13.32657,-1.77687 9.23679,-1.84736 5.19909,-2.14404 15.10346,-2.66532 2.95736,-0.15565 5.93045,0.211 8.88438,0 3.34459,-0.2389 8.29451,-1.77688 11.5497,-1.77688"
           id="path124-6" />
        <path
           style="display:inline;fill:#00ff00;stroke:#00d200;stroke-width:10;stroke-linecap:square;stroke-linejoin:miter;stroke-dasharray:none;stroke-opacity:1"
           d="m 346.34779,191.60637 c -18.27006,2.78734 -27.42573,19.38765 -37.31442,32.87222 -6.31146,8.60655 -10.71411,17.09176 -13.32657,27.5416 -2.33894,9.35573 -4.44219,18.78737 -4.44219,28.43002 0,2.47343 -0.56266,25.20206 0,25.76472 1.22104,1.22104 1.80857,-2.9429 2.66531,-4.44219 5.17032,-9.04806 -3.26371,13.81994 3.55376,-7.99595 2.89616,-9.26774 7.18868,-14.37738 11.54969,-23.0994 1.30439,-2.60877 2.24937,-5.38717 3.55376,-7.99594 5.02332,-10.04664 11.00439,-19.77008 16.88033,-29.31847 1.25134,-2.03343 2.48598,-4.08353 3.55375,-6.21907 0.41882,-0.83763 0.34411,-1.90326 0.88844,-2.66532 0.97372,-1.36321 2.5486,-2.21355 3.55375,-3.55375 3.23199,-4.30932 0.15701,-2.61323 3.55376,-5.33063 4.15576,-3.32461 7.8731,-5.59059 10.66126,-9.77282 0.48168,-0.72253 0,-3.58587 0,-4.4422 0,-0.88843 0.49282,-1.92609 0,-2.66531 -1.64272,-2.46409 -3.55375,-4.73834 -5.33063,-7.10751 z"
           id="path125-5" />
        <path
           style="display:inline;fill:#00ff00;stroke:#00d200;stroke-width:10;stroke-linecap:square;stroke-linejoin:miter;stroke-dasharray:none;stroke-opacity:1"
           d="m 362.33968,198.71388 c 5.57752,2.07976 8.49901,6.72214 12.43814,10.66126 9.39183,9.39183 19.90123,17.8936 25.76471,30.20691 1.49028,3.12958 2.29741,6.54221 3.55376,9.77282 0.81745,2.10203 2.15817,4.02144 2.66531,6.21907 0.39955,1.73137 -0.13628,3.55899 0,5.33063 0.37522,4.87785 0.88844,9.31742 0.88844,14.21501 0,1.88675 0.50945,13.70556 0,14.21502 -0.16371,0.1637 -2.50161,0.72473 -2.66531,0.88844 -0.20941,0.2094 0.26488,0.756 0,0.88844 -0.79465,0.39732 -1.92609,-0.49282 -2.66532,0 -3.2057,2.13713 -4.50018,6.27705 -7.10751,8.88438 -0.75503,0.75503 -1.91029,1.02185 -2.66531,1.77688 -1.12769,1.12769 -0.64919,3.3145 -1.77688,4.44219 -0.41881,0.41881 0.11616,-1.19609 0,-1.77688 -0.47893,-2.39466 -1.00462,-4.79074 -1.77688,-7.10751 -3.57688,-10.73065 -8.78515,-20.92558 -11.5497,-31.98378 -1.4083,-5.63322 -1.72969,-10.5197 -3.55375,-15.99189 -2.7429,-8.22871 -6.6735,-15.92959 -9.77282,-23.98784 -0.77395,-2.01227 -1.05175,-4.18869 -1.77688,-6.21907 -0.2117,-4.32188 -3.90433,-6.95287 -5.33063,-10.66126 -0.49274,-1.28112 -4.37902,-19.60882 -2.66532,-21.32252 1.55346,-1.55346 3.21026,2.15007 3.55376,2.66531 3.40375,5.10564 -2.43574,-14.50056 4.44219,8.88439 0.6737,2.29059 0.59229,4.73834 0.88844,7.10751"
           id="path126-0" />
        <path
           style="display:inline;fill:#00ff00;stroke:#00d200;stroke-width:10;stroke-linecap:square;stroke-linejoin:miter;stroke-dasharray:none;stroke-opacity:1"
           d="m 373.88938,180.05667 c 0,-5.33063 0,-10.66126 0,-15.99189 0,-5.62678 0,-11.25355 0,-16.88033 0,-0.88844 0.79464,-2.26799 0,-2.66532 -0.84494,-0.42247 -6.23359,-0.71365 -7.10751,-0.88843 -0.64934,-0.12987 -1.12753,-0.75857 -1.77687,-0.88844 -1.45198,-0.2904 -3.03745,0.46825 -4.4422,0 -0.39732,-0.13244 -0.51384,-0.70114 -0.88843,-0.88844 -2.19506,-1.09753 -15.75718,0.0263 -17.76877,0.88844 -0.98144,0.42061 -1.65234,1.43922 -2.66532,1.77687 -0.84285,0.28095 -1.8034,-0.21547 -2.66531,0 -1.11876,0.27969 -2.48141,2.12915 -3.55376,2.66532 -0.26488,0.13244 -0.67903,-0.20941 -0.88844,0 -0.91688,0.91688 -1.29097,2.58196 -1.77687,3.55375 -1.28583,2.57166 -5.08939,5.08939 -7.10751,7.10751 -0.93471,0.93471 -8.58447,15.25341 -7.10751,15.99189 2.10428,1.05214 12.7238,-0.32681 15.99189,0 8.13655,0.81366 16.19137,1.60464 23.98784,3.55376 1.14269,0.28567 5.09804,0.65584 5.33063,0.88843 0.46825,0.46825 0.33745,1.40956 0.88844,1.77688 0.49282,0.32855 1.21498,-0.1873 1.77688,0 0.39732,0.13244 0.51384,0.70114 0.88844,0.88844 3.71142,1.85571 4.06525,0.48846 8.88438,-0.88844 z"
           id="path127-2" />
        <path
           style="display:inline;fill:#806600;stroke:#554400;stroke-width:6.5718;stroke-linecap:square;stroke-linejoin:miter;stroke-dasharray:none;stroke-opacity:1"
           d="m 245.07022,235.19175 c 1.07161,2.05009 2.50609,23.55562 1.66798,33.72237 -0.67108,8.14064 -1.25754,6.37922 -2.77995,14.10207 -0.47896,2.42962 -0.44893,4.9812 -1.11199,7.35761 -0.83016,2.97534 -2.22396,5.72258 -3.33595,8.58387 -0.78629,2.02324 -1.2182,4.22998 -2.22396,6.13134 -1.68348,3.18257 -3.96003,5.96243 -5.55992,9.19701 -0.47791,0.96622 -0.48851,2.20624 -1.11198,3.06567 -0.90423,1.24645 -2.31243,1.93695 -3.33595,3.06567 -3.71238,4.09392 -6.41635,9.26429 -10.00784,13.48894 -1.79259,2.10861 -3.64782,4.15452 -5.55991,6.13135 -1.54159,1.59376 -3.50975,2.64418 -5.00393,4.29193 -3.68131,4.05966 0.29533,0.95487 -3.33595,4.29193 -4.20826,3.86731 0.45515,-1.11504 -2.77995,2.45254 -0.77137,0.85065 -2.35776,2.15745 -1.66798,3.67881 0.80856,1.78332 7.50372,3.71623 8.89587,4.29193 3.64527,1.50747 7.39606,3.06 11.11982,4.29194 2.85456,0.94438 6.0896,0.80784 8.89586,1.8394 0.63393,0.23303 1.04755,0.95259 1.66798,1.22627 1.04669,0.46171 2.23052,0.36933 3.33595,0.61314 0.3704,0.0817 4.26833,0.26407 4.44793,0 0.49729,-0.73121 0.63024,-1.70878 1.11198,-2.45254 0.45702,-0.7056 1.11198,-1.22627 1.66798,-1.8394 0.92665,-2.04378 1.77367,-4.13388 2.77995,-6.13135 2.08916,-4.14697 2.87956,-4.83555 5.00393,-8.58387 1.09818,-1.93769 1.79759,-4.11945 2.77995,-6.13134 0.51234,-1.04927 1.26663,-1.95919 1.66797,-3.06566 1.27484,-3.51465 0.55698,-7.9773 1.11199,-11.64955 0.25125,-1.66241 0.83859,-3.24691 1.11198,-4.90507 0.62577,-3.79546 0.76439,-7.81635 1.11198,-11.64954 0.39527,-4.35895 0.90364,-2.30025 1.66798,-7.35761 0.95056,-6.28957 -0.47945,-13.47784 1.11198,-19.62028 0.27418,-1.05826 0.88757,-1.99325 1.11198,-3.06567 2.33285,-11.14795 -0.47468,-0.0145 0.55599,-7.97074 0.0586,-0.45241 0.50459,-0.7728 0.55599,-1.22627 0.25391,-2.24 0.32994,-4.50085 0.556,-6.74447 0.0819,-0.81251 -0.1798,-1.65943 0,-2.45254 0.20101,-0.88672 0.93218,-1.56029 1.11198,-2.45253 0.20102,-0.99756 -0.10233,-2.05003 0,-3.06567 0.14899,-1.4788 0.96298,-2.81315 1.11198,-4.29194 0.16373,-1.62502 -0.20968,-3.28648 0,-4.90507 0.25474,-1.96644 0.55599,-3.07496 0.55599,-4.90507 0,-1.32961 0.4883,-6.81913 0,-7.35761 -0.55296,-0.60979 -1.86683,0.83244 -2.22396,1.22627"
           id="path128-4" />
        <path
           style="display:inline;fill:#00ff00;stroke:#00d200;stroke-width:6.5718;stroke-linecap:square;stroke-linejoin:miter;stroke-dasharray:none;stroke-opacity:1"
           d="m 244.51423,229.67355 c -6.65753,-4.46698 -14.32133,-5.71547 -21.68366,-7.97074 -1.12937,-0.34595 -2.17977,-1.01377 -3.33595,-1.22627 -6.74666,-1.24 -13.76656,-0.61313 -20.57168,-0.61313 -3.82487,0 -11.55897,-0.76153 -15.01177,0 -1.38402,0.30525 -2.53481,1.4118 -3.89194,1.8394 -10.41727,3.28226 5.3678,-4.94008 -11.67581,4.90507 -5.73013,3.30997 -10.97161,6.61734 -16.12375,11.03641 -1.38001,1.18365 -4.70791,3.30057 -3.33595,3.6788 0.71919,0.19828 1.49273,-0.13439 2.22396,0 1.67123,0.30717 2.91992,1.77852 4.44793,2.45254 0.34415,0.15181 0.74852,-0.0802 1.11199,0 1.74924,0.3858 3.87758,1.22099 5.55991,1.8394 3.13571,1.15266 6.34534,2.45531 9.45185,3.6788 1.32921,0.52351 2.53482,1.41181 3.89194,1.83941 8.21954,1.29489 0.13183,-0.32427 6.6719,1.8394 4.62544,1.53025 10.22907,0.61313 15.01177,0.61313 4.28229,0 9.13184,0.51609 13.34379,0 4.07757,-0.49963 8.39072,-2.87998 12.23181,-4.29194 4.57239,-1.68077 9.3063,-2.77226 13.89979,-4.29193 2.34585,-0.77609 5.64055,-2.26065 7.78387,-3.67881 0.44949,-0.29741 0.64313,-0.96775 1.11199,-1.22627 0.68346,-0.37685 1.51448,-0.30017 2.22396,-0.61313 0.4867,-0.21469 0.94622,-0.67786 1.11198,-1.22627 0.49385,-1.6338 0,-4.36486 0,-6.13134 0,-0.40875 0.2621,-0.93723 0,-1.22626 -0.13105,-0.14452 -0.37619,0.0495 -0.55599,0 -1.30894,-0.36087 -2.59462,-0.81752 -3.89194,-1.22627 z"
           id="path123-86" />
        <path
           style="display:inline;fill:#00ff00;stroke:#00d200;stroke-width:6.5718;stroke-linecap:square;stroke-linejoin:miter;stroke-dasharray:none;stroke-opacity:1"
           d="m 251.18613,230.89982 c 2.20278,-0.69345 3.89166,-2.94295 6.11591,-3.6788 11.21187,-3.70926 23.44097,-2.70808 35.02745,-2.45254 11.81321,0.26055 24.99556,0.64621 36.69543,2.45254 3.02703,0.46734 5.93057,1.63502 8.89586,2.45253 11.87475,3.2738 2.02217,-0.008 11.11983,4.29194 1.07736,0.50918 2.30694,0.6073 3.33595,1.22627 4.59723,2.7653 9.66243,11.37387 11.67582,16.55461 1.19885,3.08482 3.2846,7.07451 3.89193,10.42328 0.18174,1.00204 -0.13104,2.05404 0,3.06566 0.0829,0.63981 1.14206,1.83941 0.55599,1.83941 -2.209,0 -12.28283,-9.61891 -13.34379,-10.42328 -4.23395,-3.21001 -15.03514,-8.06754 -19.45969,-9.81014 -2.15886,-0.85027 -4.47119,-1.13156 -6.6719,-1.8394 -5.47196,-1.76002 -10.65989,-4.35916 -16.12375,-6.13134 -5.15924,-1.67338 -10.50895,-2.84975 -15.56776,-4.90507 -4.58308,-1.86204 -9.1327,-4.20395 -13.89978,-5.51821 -2.72082,-0.75011 -5.58978,-0.61972 -8.33987,-1.22626 -5.78045,-1.27491 -3.25363,-1.47965 -9.45186,-1.83941 -1.85073,-0.10742 -3.71132,0.14562 -5.55991,0 -2.09307,-0.16487 -5.19076,-1.22626 -7.22789,-1.22626"
           id="path124-5" />
        <path
           style="display:inline;fill:#00ff00;stroke:#00d200;stroke-width:6.5718;stroke-linecap:square;stroke-linejoin:miter;stroke-dasharray:none;stroke-opacity:1"
           d="m 262.86195,233.35235 c 11.43354,1.92362 17.16322,13.37991 23.35164,22.68595 3.94976,5.9396 6.70497,11.79546 8.33986,19.00716 1.46373,6.45663 2.77996,12.96564 2.77996,19.62028 0,1.70697 0.35212,17.39258 0,17.78088 -0.76414,0.84267 -1.13182,-2.03097 -1.66797,-3.06567 -3.23563,-6.24429 2.04245,9.53749 -2.22397,-5.5182 -1.81244,-6.39591 -4.49873,-9.9222 -7.22788,-15.94148 -0.8163,-1.80038 -1.40767,-3.71783 -2.22397,-5.51821 -3.14363,-6.93344 -6.88663,-13.64383 -10.56384,-20.23341 -0.78309,-1.40333 -1.55574,-2.81815 -2.22396,-4.29194 -0.2621,-0.57807 -0.21535,-1.31349 -0.55599,-1.83941 -0.60936,-0.94078 -1.59493,-1.52762 -2.22397,-2.45253 -2.0226,-2.97397 -0.0983,-1.80346 -2.22396,-3.6788 -2.60071,-2.2944 -4.92705,-3.85821 -6.6719,-6.74447 -0.30144,-0.49864 0,-2.4747 0,-3.06568 0,-0.61313 -0.30841,-1.32924 0,-1.8394 1.02803,-1.70053 2.22396,-3.27004 3.33595,-4.90507 z"
           id="path125-0" />
        <path
           style="display:inline;fill:#00ff00;stroke:#00d200;stroke-width:6.5718;stroke-linecap:square;stroke-linejoin:miter;stroke-dasharray:none;stroke-opacity:1"
           d="m 252.8541,238.25742 c -3.49045,1.4353 -5.31874,4.63912 -7.78388,7.35761 -5.87747,6.48154 -12.45433,12.34883 -16.12374,20.84655 -0.93263,2.15981 -1.43774,4.51495 -2.22397,6.74447 -0.51157,1.45067 -1.3506,2.7753 -1.66797,4.29194 -0.25005,1.19486 0.0853,2.45615 0,3.6788 -0.23482,3.36633 -0.556,6.43019 -0.556,9.81014 0,1.3021 -0.31881,9.45856 0,9.81015 0.10245,0.11297 1.56553,0.50015 1.66798,0.61313 0.13105,0.14452 -0.16577,0.52174 0,0.61314 0.49729,0.2742 1.20536,-0.34011 1.66797,0 2.00615,1.47489 2.81625,4.33195 4.44794,6.13133 0.4725,0.52107 1.19547,0.70521 1.66797,1.22627 0.70571,0.77825 0.40626,2.28742 1.11198,3.06567 0.2621,0.28903 -0.0727,-0.82545 0,-1.22627 0.29972,-1.65261 0.6287,-3.30621 1.11199,-4.90507 2.23843,-7.40549 5.49781,-14.44127 7.22788,-22.07282 0.88133,-3.88763 1.08246,-7.25991 2.22397,-11.03641 1.71652,-5.67884 4.17632,-10.99341 6.1159,-16.55461 0.48434,-1.38872 0.65819,-2.89072 1.11198,-4.29194 0.13249,-2.98264 2.44336,-4.79835 3.33595,-7.3576 0.30836,-0.88414 2.74043,-13.53255 1.66798,-14.71522 -0.97217,-1.07208 -2.00901,1.48382 -2.22397,1.8394 -2.13009,3.52353 1.5243,-10.0072 -2.77996,6.13134 -0.4216,1.5808 -0.37066,3.27005 -0.55599,4.90508"
           id="path126-9" />
        <path
           style="display:inline;fill:#00ff00;stroke:#00d200;stroke-width:6.5718;stroke-linecap:square;stroke-linejoin:miter;stroke-dasharray:none;stroke-opacity:1"
           d="m 245.62622,225.38161 c 0,-3.6788 0,-7.3576 0,-11.03641 0,-3.88318 0,-7.76636 0,-11.64954 0,-0.61313 -0.49729,-1.5652 0,-1.8394 0.52877,-0.29155 3.90102,-0.49251 4.44793,-0.61313 0.40636,-0.0896 0.70562,-0.52351 1.11198,-0.61314 0.90866,-0.20041 1.90086,0.32315 2.77996,0 0.24864,-0.0914 0.32156,-0.48387 0.55599,-0.61313 1.37368,-0.75744 9.86096,0.0181 11.11982,0.61313 0.6142,0.29028 1.03405,0.99324 1.66798,1.22627 0.52746,0.19389 1.12858,-0.14871 1.66797,0 0.70013,0.19302 1.55289,1.46938 2.22397,1.8394 0.16576,0.0914 0.42494,-0.14452 0.55599,0 0.57379,0.63276 0.8079,1.78188 1.11198,2.45253 0.80468,1.77477 3.18498,3.51232 4.44793,4.90508 0.58495,0.64506 5.37223,10.52676 4.44794,11.0364 -1.31688,0.72611 -7.96265,-0.22554 -10.00785,0 -5.09191,0.56153 -10.13268,1.10741 -15.01177,2.45254 -0.7151,0.19715 -3.19039,0.45262 -3.33594,0.61313 -0.29304,0.32315 -0.21118,0.97277 -0.556,1.22627 -0.30841,0.22674 -0.76034,-0.12926 -1.11198,0 -0.24865,0.0914 -0.32157,0.48388 -0.55599,0.61314 -2.32264,1.28067 -2.54407,0.3371 -5.55991,-0.61314 z"
           id="path127-0" />
        <path
           style="display:inline;fill:#806600;stroke:#554400;stroke-width:8.23151;stroke-linecap:square;stroke-linejoin:miter;stroke-dasharray:none;stroke-opacity:1"
           d="m 86.246612,143.56396 c 1.063514,3.24083 2.487156,37.23729 1.655378,53.30914 -0.66601,12.86892 -1.248039,10.08443 -2.758946,22.29289 -0.475341,3.84081 -0.445538,7.87441 -1.103589,11.63109 -0.823887,4.70349 -2.207156,9.0464 -3.310745,13.56959 -0.780349,3.19839 -1.208996,6.68686 -2.207157,9.69257 -1.67076,5.03109 -3.93011,9.42556 -5.517912,14.53886 -0.474299,1.52742 -0.484819,3.48768 -1.103578,4.84629 -0.897398,1.97041 -2.294959,3.06197 -3.310745,4.84628 -3.684331,6.47177 -6.367872,14.64522 -9.932226,21.32364 -1.779046,3.33335 -3.620259,6.56757 -5.517902,9.69259 -1.529943,2.51946 -3.483232,4.17999 -4.966123,6.78479 -3.653496,6.41761 0.293099,1.50948 -3.310745,6.78479 -4.176465,6.11353 0.451711,-1.76269 -2.758946,3.87703 -0.765542,1.34473 -2.339946,3.41055 -1.655378,5.81555 0.802451,2.81912 7.447026,5.87471 8.828657,6.78479 3.617729,2.38304 7.340179,4.83732 11.035805,6.7848 2.832992,1.4929 6.04359,1.27706 8.828647,2.90777 0.62914,0.36838 1.039635,1.50588 1.655377,1.93852 1.038782,0.72988 2.213668,0.58384 3.310746,0.96926 0.367601,0.12916 4.23608,0.41745 4.414323,0 0.493533,-1.15591 0.625479,-2.70128 1.103579,-3.87703 0.453567,-1.11543 1.103578,-1.93852 1.655377,-2.90777 0.919649,-3.23086 1.760269,-6.53494 2.758946,-9.69259 2.073376,-6.55563 2.857804,-7.64415 4.966123,-13.56959 1.089881,-3.06314 1.784011,-6.51212 2.758951,-9.69257 0.50846,-1.65871 1.25706,-3.09713 1.65536,-4.84627 1.26521,-5.55604 0.55277,-12.61071 1.10359,-18.41589 0.24935,-2.62798 0.83226,-5.13279 1.10358,-7.75405 0.62104,-5.99996 0.75861,-12.35628 1.10358,-18.41588 0.39228,-6.89073 0.89681,-3.63629 1.65538,-11.63108 0.94337,-9.94271 -0.47583,-21.3061 1.10357,-31.01622 0.27211,-1.67292 0.880871,-3.15098 1.103581,-4.84628 2.31523,-17.62295 -0.47109,-0.0229 0.55179,-12.60034 0.0582,-0.71518 0.50078,-1.22166 0.55179,-1.93852 0.25199,-3.54105 0.32745,-7.11505 0.5518,-10.66182 0.0813,-1.28444 -0.17844,-2.62327 0,-3.87704 0.19949,-1.40175 0.92514,-2.46654 1.10358,-3.87702 0.1995,-1.57696 -0.10156,-3.24073 0,-4.84628 0.14786,-2.33773 0.9557,-4.4471 1.10358,-6.78481 0.16249,-2.56887 -0.2081,-5.19534 0,-7.75405 0.25281,-3.10859 0.55179,-4.86097 0.55179,-7.75405 0,-2.10188 0.48461,-10.77985 0,-11.63109 -0.54879,-0.96397 -1.85273,1.31594 -2.20716,1.93852"
           id="path128-4-8" />
        <path
           style="display:inline;fill:#00ff00;stroke:#00d200;stroke-width:8.23151;stroke-linecap:square;stroke-linejoin:miter;stroke-dasharray:none;stroke-opacity:1"
           d="m 85.694823,134.84065 c -6.607229,-7.06151 -14.213125,-9.03515 -21.519829,-12.60033 -1.120837,-0.54689 -2.163301,-1.6026 -3.310745,-1.93852 -6.695686,-1.96022 -13.662547,-0.96925 -20.416251,-0.96925 -3.795971,0 -11.471636,-1.20385 -14.898348,0 -1.373563,0.48254 -2.515659,2.2318 -3.862535,2.90777 -10.338562,5.18867 5.327244,-7.8094 -11.587593,7.75405 -5.6868362,5.23248 -10.88871447,10.46085 -16.0019275,17.44662 -1.3695833,1.87115 -4.6723395,5.21762 -3.3107452,5.81554 0.7137562,0.31345 1.4814517,-0.21245 2.2071569,0 1.658603,0.48558 2.8978585,2.81153 4.4143236,3.87703 0.3415498,0.23999 0.7428646,-0.12678 1.1035884,0 1.73602363,0.60989 3.8482826,1.93018 5.5179016,2.90777 3.112019,1.82216 6.2973982,3.88142 9.3804372,5.81554 1.319167,0.82758 2.515668,2.23182 3.862534,2.90778 8.157438,2.047 0.130834,-0.51261 6.621491,2.90777 4.590492,2.41906 10.151784,0.96925 14.898348,0.96925 4.249936,0 9.062845,0.81585 13.242971,0 4.046762,-0.78983 8.327324,-4.55274 12.139393,-6.7848 4.537843,-2.657 9.235986,-4.38246 13.79477,-6.78479 2.328126,-1.22686 5.597933,-3.57369 7.725059,-5.81555 0.446094,-0.47015 0.638271,-1.52984 1.103588,-1.93852 0.678297,-0.59573 1.503038,-0.47451 2.207157,-0.96925 0.483021,-0.33939 0.939071,-1.07158 1.103581,-1.93852 0.49012,-2.58275 0,-6.90007 0,-9.69257 0,-0.64616 0.26012,-1.48159 0,-1.9385 -0.13006,-0.22846 -0.37335,0.0782 -0.55179,0 -1.299052,-0.57047 -2.575018,-1.29235 -3.862536,-1.93852 z"
           id="path123-86-9" />
        <path
           style="display:inline;fill:#00ff00;stroke:#00d200;stroke-width:8.23151;stroke-linecap:square;stroke-linejoin:miter;stroke-dasharray:none;stroke-opacity:1"
           d="m 92.316309,136.77917 c 2.18614,-1.09622 3.86226,-4.65228 6.06971,-5.81553 11.127151,-5.86369 23.263861,-4.281 34.762801,-3.87704 11.72395,0.41188 24.8067,1.02155 36.41817,3.87704 3.00416,0.73878 5.88576,2.58467 8.82865,3.87701 11.78503,5.17531 2.00689,-0.0126 11.03581,6.78481 1.06922,0.80492 2.28951,0.96003 3.31075,1.93851 4.5625,4.37146 9.58943,17.98009 11.5876,26.16993 1.1898,4.87656 3.25979,11.18356 3.86253,16.47738 0.18036,1.58405 -0.13005,3.24707 0,4.84627 0.0823,1.01142 1.13343,2.90778 0.55179,2.90778 -2.19231,0 -12.19003,-15.2058 -13.24297,-16.47737 -4.20196,-5.07446 -14.92155,-12.75337 -19.31267,-15.50811 -2.14254,-1.34413 -4.4374,-1.7888 -6.62149,-2.90777 -5.43061,-2.78228 -10.57935,-6.89106 -16.00192,-9.69257 -5.12026,-2.64532 -10.42955,-4.50495 -15.45014,-7.75405 -4.54845,-2.94356 -9.0637,-6.64571 -13.79476,-8.72332 -2.70026,-1.18579 -5.54755,-0.97967 -8.27686,-1.9385 -5.73678,-2.01541 -3.22905,-2.33907 -9.38045,-2.90779 -1.83674,-0.16981 -3.68328,0.2302 -5.5179,0 -2.077251,-0.26063 -5.151541,-1.9385 -7.173281,-1.9385"
           id="path124-5-3" />
        <path
           style="display:inline;fill:#00ff00;stroke:#00d200;stroke-width:8.23151;stroke-linecap:square;stroke-linejoin:miter;stroke-dasharray:none;stroke-opacity:1"
           d="m 103.90392,140.65619 c 11.34715,3.04091 17.03354,21.15129 23.1752,35.8625 3.91992,9.38946 6.65432,18.64655 8.27685,30.04698 1.45267,10.2068 2.75896,20.4964 2.75896,31.01622 0,2.69841 0.34946,27.49461 0,28.10844 -0.75837,1.33212 -1.12327,-3.2106 -1.65537,-4.84628 -3.21118,-9.87113 2.02702,15.07709 -2.20717,-8.72331 -1.79874,-10.11081 -4.46474,-15.68525 -7.17327,-25.20068 -0.81013,-2.84608 -1.39703,-5.87723 -2.20716,-8.72332 -3.11988,-10.96055 -6.8346,-21.56849 -10.48403,-31.98546 -0.77717,-2.21842 -1.54398,-4.455 -2.20715,-6.7848 -0.26012,-0.91383 -0.21373,-2.0764 -0.55179,-2.90779 -0.60476,-1.48721 -1.58288,-2.4149 -2.20717,-3.87702 -2.00732,-4.70132 -0.0976,-2.85095 -2.20716,-5.81553 -2.58106,-3.62705 -4.88982,-6.09916 -6.62149,-10.66183 -0.29916,-0.78826 0,-3.91206 0,-4.8463 0,-0.96925 -0.30608,-2.10129 0,-2.90777 1.02027,-2.68823 2.20716,-5.16935 3.31075,-7.75405 z"
           id="path125-0-4" />
        <path
           style="display:inline;fill:#00ff00;stroke:#00d200;stroke-width:8.23151;stroke-linecap:square;stroke-linejoin:miter;stroke-dasharray:none;stroke-opacity:1"
           d="m 93.971679,148.41024 c -3.46408,2.26896 -5.278552,7.33364 -7.725067,11.63109 -5.833062,10.24618 -12.360231,19.52133 -16.001917,32.95473 -0.925583,3.41429 -1.426877,7.13735 -2.207167,10.66183 -0.507704,2.29325 -1.340395,4.38726 -1.655367,6.7848 -0.248161,1.88886 0.08465,3.88274 0,5.81554 -0.233046,5.32157 -0.551799,10.165 -0.551799,15.5081 0,2.05839 -0.316402,14.95232 0,15.50813 0.101676,0.17858 1.553701,0.79065 1.655377,0.96925 0.13006,0.22846 -0.164517,0.82478 0,0.96926 0.493533,0.43347 1.196253,-0.53765 1.655368,0 1.990992,2.33155 2.794972,6.84806 4.414333,9.69256 0.46893,0.82372 1.186438,1.11481 1.655368,1.93852 0.700378,1.23027 0.403191,3.61601 1.103579,4.84628 0.260119,0.45691 -0.07215,-1.30489 0,-1.93852 0.297455,-2.61248 0.623949,-5.22653 1.103588,-7.75405 2.221517,-11.70678 5.456271,-22.82911 7.17327,-34.89325 0.874671,-6.14566 1.074281,-11.47664 2.207166,-17.44662 1.703551,-8.97725 4.144768,-17.37865 6.069688,-26.16993 0.48068,-2.19532 0.65322,-4.56972 1.10358,-6.78481 0.13149,-4.71502 2.4249,-7.58534 3.31075,-11.63107 0.30603,-1.39767 2.719721,-21.39258 1.65537,-23.26217 -0.96482,-1.69477 -1.99383,2.34565 -2.20716,2.90776 -2.114,5.57009 1.51278,-15.81962 -2.75896,9.69257 -0.41841,2.49897 -0.36786,5.16938 -0.55179,7.75407"
           id="path126-9-4" />
        <path
           style="display:inline;fill:#00ff00;stroke:#00d200;stroke-width:8.23151;stroke-linecap:square;stroke-linejoin:miter;stroke-dasharray:none;stroke-opacity:1"
           d="m 86.798411,128.05585 c 0,-5.81553 0,-11.63107 0,-17.44662 0,-6.13863 0,-12.277252 0,-18.415882 0,-0.96925 -0.493532,-2.4743 0,-2.90777 0.524775,-0.46089 3.871548,-0.77857 4.414328,-0.96925 0.40329,-0.14164 0.70028,-0.82757 1.10357,-0.96926 0.9018,-0.31682 1.8865,0.51084 2.75896,0 0.24676,-0.14449 0.31913,-0.76492 0.55179,-0.96925 1.3633,-1.19738 9.786461,0.0286 11.035801,0.96925 0.60956,0.45888 1.02624,1.57013 1.65538,1.93851 0.52348,0.30651 1.12005,-0.23508 1.65537,0 0.69484,0.30513 1.54116,2.32283 2.20717,2.90777 0.1645,0.14449 0.42173,-0.22846 0.55179,0 0.56945,1.00028 0.80179,2.81684 1.10357,3.87702 0.7986,2.8056 3.16092,5.552362 4.41433,7.754072 0.58053,1.01973 5.33164,16.64096 4.41433,17.44661 -1.30693,1.14785 -7.90249,-0.35654 -9.93223,0 -5.05344,0.88768 -10.05613,1.75062 -14.898351,3.87703 -0.7097,0.31166 -3.16629,0.71552 -3.31074,0.96925 -0.29082,0.51085 -0.20958,1.53778 -0.5518,1.93852 -0.30608,0.35844 -0.75459,-0.20434 -1.10358,0 -0.24677,0.14449 -0.31914,0.76493 -0.55179,0.96927 -2.30509,2.02451 -2.52484,0.53289 -5.517898,-0.96927 z"
           id="path127-0-6" />
      </g>
    </g>
  </g>
</svg>
